G04 #@! TF.FileFunction,Copper,L4,Bot,Signal*
%FSLAX46Y46*%
G04 Gerber Fmt 4.6, Leading zero omitted, Abs format (unit mm)*
G04 Created by KiCad (PCBNEW 4.0.7-e2-6376~58~ubuntu14.04.1) date Thu Mar 15 17:55:13 2018*
%MOMM*%
%LPD*%
G01*
G04 APERTURE LIST*
%ADD10C,0.100000*%
%ADD11R,1.600000X1.600000*%
%ADD12O,1.600000X1.600000*%
%ADD13R,2.400000X1.600000*%
%ADD14O,2.400000X1.600000*%
%ADD15C,2.000000*%
%ADD16R,1.700000X1.700000*%
%ADD17O,1.700000X1.700000*%
%ADD18C,1.400000*%
%ADD19R,1.800000X1.800000*%
%ADD20O,1.800000X1.600000*%
%ADD21O,1.600000X1.800000*%
%ADD22C,1.900000*%
%ADD23C,1.600000*%
%ADD24O,1.800000X1.800000*%
%ADD25C,1.600000*%
%ADD26C,1.000000*%
%ADD27C,1.400000*%
%ADD28C,1.800000*%
%ADD29C,0.600000*%
G04 APERTURE END LIST*
D10*
D11*
X39878000Y-63881000D03*
D12*
X39878000Y-66421000D03*
X39878000Y-68961000D03*
X39878000Y-71501000D03*
X39878000Y-74041000D03*
X39878000Y-76581000D03*
X39878000Y-79121000D03*
X39878000Y-81661000D03*
X39878000Y-84201000D03*
X39878000Y-86741000D03*
D13*
X27178000Y-142621000D03*
D14*
X19558000Y-124841000D03*
X27178000Y-140081000D03*
X19558000Y-127381000D03*
X27178000Y-137541000D03*
X19558000Y-129921000D03*
X27178000Y-135001000D03*
X19558000Y-132461000D03*
X27178000Y-132461000D03*
X19558000Y-135001000D03*
X27178000Y-129921000D03*
X19558000Y-137541000D03*
X27178000Y-127381000D03*
X19558000Y-140081000D03*
X27178000Y-124841000D03*
X19558000Y-142621000D03*
D13*
X27178000Y-38481000D03*
D14*
X19558000Y-20701000D03*
X27178000Y-35941000D03*
X19558000Y-23241000D03*
X27178000Y-33401000D03*
X19558000Y-25781000D03*
X27178000Y-30861000D03*
X19558000Y-28321000D03*
X27178000Y-28321000D03*
X19558000Y-30861000D03*
X27178000Y-25781000D03*
X19558000Y-33401000D03*
X27178000Y-23241000D03*
X19558000Y-35941000D03*
X27178000Y-20701000D03*
X19558000Y-38481000D03*
D13*
X27178000Y-116586000D03*
D14*
X19558000Y-98806000D03*
X27178000Y-114046000D03*
X19558000Y-101346000D03*
X27178000Y-111506000D03*
X19558000Y-103886000D03*
X27178000Y-108966000D03*
X19558000Y-106426000D03*
X27178000Y-106426000D03*
X19558000Y-108966000D03*
X27178000Y-103886000D03*
X19558000Y-111506000D03*
X27178000Y-101346000D03*
X19558000Y-114046000D03*
X27178000Y-98806000D03*
X19558000Y-116586000D03*
D15*
X21463000Y-67691000D03*
X26463000Y-67691000D03*
X21543000Y-41656000D03*
X26543000Y-41656000D03*
D11*
X43688000Y-117221000D03*
D12*
X43688000Y-114681000D03*
X43688000Y-112141000D03*
X43688000Y-109601000D03*
X43688000Y-107061000D03*
X43688000Y-104521000D03*
X43688000Y-101981000D03*
X43688000Y-99441000D03*
X43688000Y-96901000D03*
X43688000Y-94361000D03*
D16*
X7493000Y-30226000D03*
D17*
X7493000Y-32766000D03*
D13*
X27178000Y-90551000D03*
D14*
X19558000Y-72771000D03*
X27178000Y-88011000D03*
X19558000Y-75311000D03*
X27178000Y-85471000D03*
X19558000Y-77851000D03*
X27178000Y-82931000D03*
X19558000Y-80391000D03*
X27178000Y-80391000D03*
X19558000Y-82931000D03*
X27178000Y-77851000D03*
X19558000Y-85471000D03*
X27178000Y-75311000D03*
X19558000Y-88011000D03*
X27178000Y-72771000D03*
X19558000Y-90551000D03*
D11*
X39878000Y-61341000D03*
D12*
X39878000Y-58801000D03*
X39878000Y-56261000D03*
X39878000Y-53721000D03*
X39878000Y-51181000D03*
X39878000Y-48641000D03*
X39878000Y-46101000D03*
X39878000Y-43561000D03*
X39878000Y-41021000D03*
X39878000Y-38481000D03*
D11*
X39878000Y-117221000D03*
D12*
X39878000Y-114681000D03*
X39878000Y-112141000D03*
X39878000Y-109601000D03*
X39878000Y-107061000D03*
X39878000Y-104521000D03*
X39878000Y-101981000D03*
X39878000Y-99441000D03*
X39878000Y-96901000D03*
X39878000Y-94361000D03*
D16*
X7874000Y-108966000D03*
D17*
X5334000Y-108966000D03*
X7874000Y-106426000D03*
X5334000Y-106426000D03*
X7874000Y-103886000D03*
X5334000Y-103886000D03*
X7874000Y-101346000D03*
X5334000Y-101346000D03*
X7874000Y-98806000D03*
X5334000Y-98806000D03*
X7874000Y-96266000D03*
X5334000Y-96266000D03*
D18*
X7533000Y-26416000D03*
X10033000Y-26416000D03*
D19*
X7493000Y-21336000D03*
D20*
X7493000Y-18796000D03*
X7493000Y-16256000D03*
D11*
X39878000Y-119761000D03*
D12*
X39878000Y-122301000D03*
X39878000Y-124841000D03*
X39878000Y-127381000D03*
X39878000Y-129921000D03*
X39878000Y-132461000D03*
X39878000Y-135001000D03*
X39878000Y-137541000D03*
X39878000Y-140081000D03*
X39878000Y-142621000D03*
D11*
X39878000Y-13081000D03*
D12*
X39878000Y-15621000D03*
X39878000Y-18161000D03*
X39878000Y-20701000D03*
X39878000Y-23241000D03*
X39878000Y-25781000D03*
X39878000Y-28321000D03*
X39878000Y-30861000D03*
X39878000Y-33401000D03*
X39878000Y-35941000D03*
D11*
X43688000Y-119761000D03*
D12*
X43688000Y-122301000D03*
X43688000Y-124841000D03*
X43688000Y-127381000D03*
X43688000Y-129921000D03*
X43688000Y-132461000D03*
X43688000Y-135001000D03*
X43688000Y-137541000D03*
X43688000Y-140081000D03*
X43688000Y-142621000D03*
D11*
X43688000Y-63881000D03*
D12*
X43688000Y-66421000D03*
X43688000Y-68961000D03*
X43688000Y-71501000D03*
X43688000Y-74041000D03*
X43688000Y-76581000D03*
X43688000Y-79121000D03*
X43688000Y-81661000D03*
X43688000Y-84201000D03*
X43688000Y-86741000D03*
D11*
X43688000Y-61341000D03*
D12*
X43688000Y-58801000D03*
X43688000Y-56261000D03*
X43688000Y-53721000D03*
X43688000Y-51181000D03*
X43688000Y-48641000D03*
X43688000Y-46101000D03*
X43688000Y-43561000D03*
X43688000Y-41021000D03*
X43688000Y-38481000D03*
D11*
X43688000Y-13081000D03*
D12*
X43688000Y-15621000D03*
X43688000Y-18161000D03*
X43688000Y-20701000D03*
X43688000Y-23241000D03*
X43688000Y-25781000D03*
X43688000Y-28321000D03*
X43688000Y-30861000D03*
X43688000Y-33401000D03*
X43688000Y-35941000D03*
D13*
X27178000Y-64516000D03*
D14*
X19558000Y-46736000D03*
X27178000Y-61976000D03*
X19558000Y-49276000D03*
X27178000Y-59436000D03*
X19558000Y-51816000D03*
X27178000Y-56896000D03*
X19558000Y-54356000D03*
X27178000Y-54356000D03*
X19558000Y-56896000D03*
X27178000Y-51816000D03*
X19558000Y-59436000D03*
X27178000Y-49276000D03*
X19558000Y-61976000D03*
X27178000Y-46736000D03*
X19558000Y-64516000D03*
D19*
X25908000Y-8636000D03*
D21*
X28448000Y-8636000D03*
X30988000Y-8636000D03*
D19*
X10668000Y-8636000D03*
D21*
X13208000Y-8636000D03*
X15748000Y-8636000D03*
D15*
X21543000Y-93726000D03*
X26543000Y-93726000D03*
X21543000Y-119761000D03*
X26543000Y-119761000D03*
X15748000Y-140081000D03*
X15748000Y-135081000D03*
X11938000Y-15621000D03*
X11938000Y-20621000D03*
X36068000Y-16891000D03*
X31068000Y-16891000D03*
D22*
X15113000Y-20621000D03*
D15*
X15113000Y-15621000D03*
D23*
X20828000Y-15621000D03*
D12*
X20828000Y-8001000D03*
D19*
X30988000Y-14351000D03*
D21*
X33528000Y-14351000D03*
D24*
X36068000Y-14351000D03*
D16*
X32258000Y-145161000D03*
D17*
X34798000Y-145161000D03*
X32258000Y-142621000D03*
X34798000Y-142621000D03*
X32258000Y-140081000D03*
X34798000Y-140081000D03*
X32258000Y-137541000D03*
X34798000Y-137541000D03*
D16*
X32258000Y-132461000D03*
D17*
X34798000Y-132461000D03*
X32258000Y-129921000D03*
X34798000Y-129921000D03*
X32258000Y-127381000D03*
X34798000Y-127381000D03*
X32258000Y-124841000D03*
X34798000Y-124841000D03*
D16*
X32258000Y-119761000D03*
D17*
X34798000Y-119761000D03*
X32258000Y-117221000D03*
X34798000Y-117221000D03*
X32258000Y-114681000D03*
X34798000Y-114681000D03*
X32258000Y-112141000D03*
X34798000Y-112141000D03*
D16*
X32258000Y-107061000D03*
D17*
X34798000Y-107061000D03*
X32258000Y-104521000D03*
X34798000Y-104521000D03*
X32258000Y-101981000D03*
X34798000Y-101981000D03*
X32258000Y-99441000D03*
X34798000Y-99441000D03*
D16*
X32258000Y-94361000D03*
D17*
X34798000Y-94361000D03*
X32258000Y-91821000D03*
X34798000Y-91821000D03*
X32258000Y-89281000D03*
X34798000Y-89281000D03*
X32258000Y-86741000D03*
X34798000Y-86741000D03*
D16*
X32258000Y-81661000D03*
D17*
X34798000Y-81661000D03*
X32258000Y-79121000D03*
X34798000Y-79121000D03*
X32258000Y-76581000D03*
X34798000Y-76581000D03*
X32258000Y-74041000D03*
X34798000Y-74041000D03*
D16*
X32258000Y-68961000D03*
D17*
X34798000Y-68961000D03*
X32258000Y-66421000D03*
X34798000Y-66421000D03*
X32258000Y-63881000D03*
X34798000Y-63881000D03*
X32258000Y-61341000D03*
X34798000Y-61341000D03*
D16*
X32258000Y-56261000D03*
D17*
X34798000Y-56261000D03*
X32258000Y-53721000D03*
X34798000Y-53721000D03*
X32258000Y-51181000D03*
X34798000Y-51181000D03*
X32258000Y-48641000D03*
X34798000Y-48641000D03*
D16*
X32258000Y-43561000D03*
D17*
X34798000Y-43561000D03*
X32258000Y-41021000D03*
X34798000Y-41021000D03*
X32258000Y-38481000D03*
X34798000Y-38481000D03*
X32258000Y-35941000D03*
X34798000Y-35941000D03*
D16*
X32258000Y-30861000D03*
D17*
X34798000Y-30861000D03*
X32258000Y-28321000D03*
X34798000Y-28321000D03*
X32258000Y-25781000D03*
X34798000Y-25781000D03*
X32258000Y-23241000D03*
X34798000Y-23241000D03*
D18*
X22098000Y-23241000D03*
X22098000Y-38481000D03*
X22098000Y-49276000D03*
X22098000Y-64516000D03*
X22098000Y-75311000D03*
X22098000Y-90551000D03*
X22098000Y-101346000D03*
X22098000Y-116586000D03*
X22098000Y-127381000D03*
X22098000Y-142621000D03*
X5334000Y-111506000D03*
X17018000Y-111506000D03*
X11706010Y-85598000D03*
X17018000Y-85471000D03*
X9906000Y-59436000D03*
X17018000Y-59436000D03*
X3292989Y-40196660D03*
X25908000Y-11811000D03*
X5587998Y-11811000D03*
X2794002Y-101346000D03*
X11176000Y-106426000D03*
X15113000Y-106426000D03*
X17018000Y-54356000D03*
X17018000Y-28321000D03*
X13230010Y-129921000D03*
X13208000Y-103886000D03*
X17018000Y-103886000D03*
X13208000Y-77851000D03*
X17018000Y-77851000D03*
X17018000Y-129921000D03*
X13208000Y-51816000D03*
X15113000Y-25781000D03*
X37338000Y-8636000D03*
X37338000Y-62611000D03*
X37338000Y-60071000D03*
X37338000Y-118491000D03*
X12954000Y-33782000D03*
X18034000Y-15621000D03*
X17018000Y-122301000D03*
X29717998Y-122428000D03*
X17018000Y-96265998D03*
X29718000Y-96266000D03*
X17018000Y-70231000D03*
X29718000Y-70231000D03*
X18923000Y-44196000D03*
X29717998Y-44196000D03*
D25*
X7533000Y-26416000D02*
X7533000Y-30186000D01*
X7533000Y-30186000D02*
X7493000Y-30226000D01*
X7493000Y-21336000D02*
X7493000Y-26376000D01*
X7493000Y-26376000D02*
X7533000Y-26416000D01*
D26*
X27178000Y-20701000D02*
X28928399Y-20701000D01*
X28928399Y-20701000D02*
X29309399Y-21082000D01*
X29309399Y-21082000D02*
X33274000Y-21082000D01*
X27178000Y-20701000D02*
X27178000Y-20574000D01*
X27178000Y-20574000D02*
X27686000Y-21082000D01*
X33274000Y-21082000D02*
X36068000Y-18288000D01*
X36068000Y-18288000D02*
X36068000Y-16891000D01*
D25*
X19558000Y-56896000D02*
X24377990Y-56896000D01*
D27*
X24377990Y-82931000D02*
X24477990Y-82931000D01*
D25*
X19558000Y-82931000D02*
X24377990Y-82931000D01*
D26*
X10668000Y-114300000D02*
X10668000Y-131415213D01*
D25*
X7874000Y-108966000D02*
X7874000Y-111416000D01*
X7874000Y-111416000D02*
X10668000Y-114210000D01*
X10668000Y-114210000D02*
X10668000Y-114300000D01*
D27*
X24377990Y-108966000D02*
X24477990Y-108966000D01*
D25*
X19558000Y-108966000D02*
X24377990Y-108966000D01*
D26*
X14333787Y-135081000D02*
X11840787Y-132588000D01*
X11840787Y-132588000D02*
X11430000Y-132177213D01*
X10668000Y-131415213D02*
X11840787Y-132588000D01*
X15748000Y-135081000D02*
X14333787Y-135081000D01*
D28*
X11938000Y-20621000D02*
X15113000Y-20621000D01*
D25*
X7493000Y-32766000D02*
X9533002Y-32766000D01*
X9533002Y-32766000D02*
X11938000Y-30361002D01*
X11938000Y-30361002D02*
X11938000Y-29591000D01*
D27*
X27178000Y-124841000D02*
X27178000Y-120396000D01*
X27178000Y-120396000D02*
X26543000Y-119761000D01*
X24477990Y-108966000D02*
X24477990Y-118330990D01*
X24477990Y-118330990D02*
X25908000Y-119761000D01*
X25908000Y-119761000D02*
X26543000Y-119761000D01*
X27178000Y-98806000D02*
X27178000Y-94361000D01*
X27178000Y-94361000D02*
X26543000Y-93726000D01*
X24477990Y-82931000D02*
X24477990Y-92295990D01*
X24477990Y-92295990D02*
X25908000Y-93726000D01*
X25908000Y-93726000D02*
X26543000Y-93726000D01*
X27178000Y-72771000D02*
X27178000Y-68406000D01*
X27178000Y-68406000D02*
X26463000Y-67691000D01*
X24377990Y-56896000D02*
X24377990Y-66160990D01*
X24377990Y-66160990D02*
X25908000Y-67691000D01*
X25908000Y-67691000D02*
X26463000Y-67691000D01*
X24377990Y-30861000D02*
X24377990Y-40125990D01*
X24377990Y-40125990D02*
X25908000Y-41656000D01*
X25908000Y-41656000D02*
X26543000Y-41656000D01*
X27178000Y-46736000D02*
X27178000Y-42291000D01*
X27178000Y-42291000D02*
X26543000Y-41656000D01*
D25*
X11938000Y-24511000D02*
X11938000Y-21336000D01*
X11938000Y-21336000D02*
X11938000Y-20621000D01*
X19558000Y-30861000D02*
X13208000Y-30861000D01*
X13208000Y-30861000D02*
X11938000Y-29591000D01*
X11938000Y-29591000D02*
X11938000Y-21336000D01*
X10033000Y-26416000D02*
X11938000Y-24511000D01*
D27*
X24477990Y-100236010D02*
X24477990Y-108966000D01*
X24477990Y-73566010D02*
X24477990Y-82931000D01*
X24477990Y-47531010D02*
X24377990Y-56896000D01*
X24477990Y-21496010D02*
X24377990Y-30861000D01*
D25*
X19558000Y-30861000D02*
X24377990Y-30861000D01*
X7493000Y-18796000D02*
X10113000Y-18796000D01*
X10113000Y-18796000D02*
X11938000Y-20621000D01*
X36068000Y-14351000D02*
X36068000Y-16891000D01*
D27*
X25273000Y-20701000D02*
X24477990Y-21496010D01*
X27178000Y-20701000D02*
X25273000Y-20701000D01*
X25273000Y-46736000D02*
X24477990Y-47531010D01*
X27178000Y-46736000D02*
X25273000Y-46736000D01*
X27178000Y-72771000D02*
X25273000Y-72771000D01*
X25273000Y-72771000D02*
X24477990Y-73566010D01*
X25908000Y-98806000D02*
X24477990Y-100236010D01*
X27178000Y-98806000D02*
X25908000Y-98806000D01*
D25*
X19558000Y-135001000D02*
X15828000Y-135001000D01*
X15828000Y-135001000D02*
X15748000Y-135081000D01*
D27*
X24477990Y-133891010D02*
X23368000Y-135001000D01*
X23368000Y-135001000D02*
X19558000Y-135001000D01*
X24477990Y-124941010D02*
X24477990Y-133891010D01*
X27178000Y-124841000D02*
X24578000Y-124841000D01*
X24578000Y-124841000D02*
X24477990Y-124941010D01*
D25*
X15748000Y-8636000D02*
X20193000Y-8636000D01*
X20193000Y-8636000D02*
X20828000Y-8001000D01*
X19558000Y-49276000D02*
X22098000Y-49276000D01*
X19558000Y-64516000D02*
X22077980Y-64516000D01*
X19558000Y-75311000D02*
X22098000Y-75311000D01*
X19558000Y-90551000D02*
X22098000Y-90551000D01*
X19558000Y-101346000D02*
X22098000Y-101346000D01*
X19558000Y-116586000D02*
X22098000Y-116586000D01*
X19558000Y-142621000D02*
X22098000Y-142621000D01*
X19558000Y-127381000D02*
X22098000Y-127381000D01*
X11938000Y-15621000D02*
X9400792Y-15621000D01*
X9400792Y-15621000D02*
X8765792Y-16256000D01*
X8765792Y-16256000D02*
X7493000Y-16256000D01*
D27*
X19558000Y-116586000D02*
X19558000Y-117776000D01*
X19558000Y-117776000D02*
X21543000Y-119761000D01*
X22098000Y-127381000D02*
X22098000Y-126391051D01*
X22098000Y-126391051D02*
X22258010Y-126231041D01*
X22258010Y-126231041D02*
X22258010Y-120556010D01*
X22258010Y-120556010D02*
X21543000Y-119841000D01*
X21543000Y-119841000D02*
X21543000Y-119761000D01*
X22098000Y-101346000D02*
X22098000Y-100356051D01*
X22098000Y-100356051D02*
X22258010Y-100196041D01*
X22258010Y-94521010D02*
X21543000Y-93806000D01*
X22258010Y-100196041D02*
X22258010Y-94521010D01*
X21543000Y-93806000D02*
X21543000Y-93726000D01*
X19558000Y-90551000D02*
X19558000Y-91741000D01*
X19558000Y-91741000D02*
X21543000Y-93726000D01*
X22098000Y-75311000D02*
X22098000Y-74321051D01*
X22098000Y-68326000D02*
X21463000Y-67691000D01*
X22098000Y-74321051D02*
X22258010Y-74161041D01*
X22258010Y-74161041D02*
X22258010Y-68486010D01*
X22258010Y-68486010D02*
X22098000Y-68326000D01*
X19558000Y-64516000D02*
X19558000Y-65786000D01*
X19558000Y-65786000D02*
X21463000Y-67691000D01*
X19558000Y-38481000D02*
X19558000Y-39671000D01*
X19558000Y-39671000D02*
X21543000Y-41656000D01*
X22098000Y-49276000D02*
X22098000Y-48286051D01*
X22098000Y-48286051D02*
X22258010Y-48126041D01*
X22258010Y-48126041D02*
X22258010Y-42451010D01*
X22258010Y-42451010D02*
X21543000Y-41736000D01*
X21543000Y-41736000D02*
X21543000Y-41656000D01*
D25*
X20828000Y-8001000D02*
X20828000Y-11811000D01*
X20828000Y-11811000D02*
X24003000Y-14986000D01*
X30353000Y-14986000D02*
X30988000Y-14351000D01*
X24003000Y-14986000D02*
X30353000Y-14986000D01*
X30988000Y-14351000D02*
X30988000Y-11811000D01*
D27*
X11938000Y-16891000D02*
X11938000Y-15621000D01*
X13208000Y-18161000D02*
X11938000Y-16891000D01*
X20630705Y-18121000D02*
X13208000Y-18161000D01*
X13883000Y-18121000D02*
X13843000Y-18161000D01*
X13843000Y-18161000D02*
X13208000Y-18161000D01*
X22098000Y-23241000D02*
X22098000Y-22251051D01*
X22098000Y-22251051D02*
X22258010Y-22091041D01*
X22258010Y-22091041D02*
X22258010Y-19748305D01*
X22258010Y-19748305D02*
X20630705Y-18121000D01*
D25*
X30988000Y-11811000D02*
X30988000Y-11176000D01*
X30988000Y-11176000D02*
X30988000Y-8636000D01*
X30988000Y-16811000D02*
X30988000Y-11811000D01*
X11938000Y-14351000D02*
X11938000Y-15621000D01*
X15748000Y-10541000D02*
X11938000Y-14351000D01*
X15748000Y-8636000D02*
X15748000Y-10541000D01*
X31068000Y-16891000D02*
X30988000Y-16811000D01*
X30988000Y-9908792D02*
X30988000Y-8636000D01*
D27*
X22098000Y-23241000D02*
X19558000Y-23241000D01*
X19558000Y-38481000D02*
X22098000Y-38481000D01*
X19558000Y-64516000D02*
X22098000Y-64516000D01*
D25*
X16238787Y-141986000D02*
X16238787Y-142101787D01*
X16238787Y-142101787D02*
X16758000Y-142621000D01*
X16758000Y-142621000D02*
X19558000Y-142621000D01*
X15748000Y-140081000D02*
X15748000Y-141495213D01*
X15748000Y-141495213D02*
X16238787Y-141986000D01*
D26*
X17272000Y-137541000D02*
X13843000Y-137541000D01*
X13843000Y-137541000D02*
X8382000Y-132080000D01*
X8382000Y-132080000D02*
X8382000Y-118364000D01*
X8382000Y-118364000D02*
X3183999Y-113165999D01*
X3183999Y-113165999D02*
X3183999Y-107373920D01*
X3183999Y-107373920D02*
X4131919Y-106426000D01*
X4131919Y-106426000D02*
X5334000Y-106426000D01*
D25*
X19558000Y-137541000D02*
X17272000Y-137541000D01*
X5334000Y-108966000D02*
X5334000Y-111506000D01*
X19558000Y-111506000D02*
X17213010Y-111506000D01*
D26*
X19558000Y-111506000D02*
X17018000Y-111506000D01*
D25*
X19558000Y-85471000D02*
X17038023Y-85471000D01*
X7874000Y-101346000D02*
X9076081Y-101346000D01*
D29*
X11430000Y-98992081D02*
X11706010Y-98716071D01*
D26*
X9076081Y-101346000D02*
X11430000Y-98992081D01*
D29*
X11706010Y-98716071D02*
X11706010Y-86587949D01*
X11706010Y-86587949D02*
X11706010Y-85598000D01*
D26*
X19558000Y-85471000D02*
X17018000Y-85471000D01*
D25*
X19558000Y-59436000D02*
X17018000Y-59436000D01*
D26*
X8858351Y-98593868D02*
X9903201Y-97973282D01*
D25*
X7874000Y-98806000D02*
X8646219Y-98806000D01*
X8646219Y-98806000D02*
X8858351Y-98593868D01*
D26*
X9905479Y-94994333D02*
X9905479Y-95115477D01*
D29*
X9903394Y-97028000D02*
X9903812Y-94996000D01*
D26*
X9903201Y-97973282D02*
X9903201Y-97028193D01*
X9903201Y-97028193D02*
X9903394Y-97028000D01*
D29*
X9905479Y-86868000D02*
X9906000Y-84328000D01*
D26*
X9905479Y-86868000D02*
X9905479Y-94994333D01*
X9905479Y-94994333D02*
X9903812Y-94996000D01*
X9906000Y-59436000D02*
X9906000Y-76708000D01*
X9906000Y-76708000D02*
X9906000Y-84328000D01*
D25*
X7874000Y-96266000D02*
X7874000Y-96053860D01*
X7874000Y-96053860D02*
X7805469Y-95985329D01*
X7805469Y-95985329D02*
X7805469Y-95250000D01*
D26*
X17758000Y-33401000D02*
X19558000Y-33401000D01*
X14478000Y-46736000D02*
X14478000Y-36681000D01*
X14478000Y-36681000D02*
X17758000Y-33401000D01*
X7366000Y-53848000D02*
X14478000Y-46736000D01*
X7366000Y-60198000D02*
X7366000Y-53848000D01*
X7874000Y-96266000D02*
X7874000Y-60706000D01*
X7874000Y-60706000D02*
X7366000Y-60198000D01*
D29*
X7366000Y-53848000D02*
X8636000Y-52578000D01*
X14478000Y-46736000D02*
X8636000Y-52578000D01*
X8636000Y-52578000D02*
X7975987Y-53238013D01*
D25*
X5334000Y-98806000D02*
X4131919Y-98806000D01*
D26*
X3183999Y-97858080D02*
X3183999Y-44196000D01*
X5292999Y-26606997D02*
X5292999Y-42087000D01*
X5292999Y-42087000D02*
X3183999Y-44196000D01*
X10668000Y-9652000D02*
X5292999Y-15027001D01*
X5292999Y-15027001D02*
X5292999Y-26606997D01*
X10668000Y-8636000D02*
X10668000Y-9652000D01*
X4131919Y-98806000D02*
X3183999Y-97858080D01*
D25*
X5334000Y-101346000D02*
X2794002Y-101346000D01*
D26*
X3279991Y-28171991D02*
X3292989Y-28184989D01*
X3292989Y-28184989D02*
X3292989Y-40196660D01*
X3279991Y-14119007D02*
X3279991Y-28171991D01*
X5587998Y-11811000D02*
X3279991Y-14119007D01*
D25*
X25908000Y-8636000D02*
X25908000Y-11811000D01*
X19558000Y-54356000D02*
X17018000Y-54356000D01*
D29*
X15308010Y-80391000D02*
X15113000Y-80391000D01*
D25*
X19558000Y-80391000D02*
X15308010Y-80391000D01*
X7874000Y-106426000D02*
X11176000Y-106426000D01*
X19558000Y-106426000D02*
X15330019Y-106426000D01*
X19558000Y-132461000D02*
X16510000Y-132461000D01*
D29*
X15113000Y-128778000D02*
X15113000Y-131064000D01*
D26*
X16510000Y-132461000D02*
X15113000Y-131064000D01*
D29*
X15113000Y-121666000D02*
X15113000Y-123190000D01*
D26*
X15113000Y-123190000D02*
X15113000Y-128778000D01*
D29*
X15113000Y-110744000D02*
X15113000Y-112522000D01*
D26*
X15113000Y-112522000D02*
X15113000Y-121666000D01*
D29*
X15138013Y-95250000D02*
X15138013Y-97028000D01*
X15138013Y-83312000D02*
X15138013Y-87630000D01*
D26*
X15138013Y-95250000D02*
X15138013Y-87630000D01*
D29*
X15138013Y-102362000D02*
X15138013Y-104648000D01*
D26*
X15138013Y-102362000D02*
X15138013Y-97028000D01*
X15113000Y-106426000D02*
X15113000Y-104673013D01*
X15113000Y-104673013D02*
X15138013Y-104648000D01*
X15113000Y-106426000D02*
X15113000Y-110744000D01*
X15113000Y-78994000D02*
X15138013Y-83820000D01*
X15113000Y-83286987D02*
X15113000Y-83794987D01*
X15113000Y-83794987D02*
X15138013Y-83820000D01*
D29*
X15113000Y-78994000D02*
X15113000Y-80391000D01*
X15113000Y-76708000D02*
X15113000Y-78994000D01*
X15138013Y-80416013D02*
X15138013Y-83312000D01*
D26*
X15113000Y-83286987D02*
X15138013Y-83312000D01*
D29*
X15113000Y-58166000D02*
X15113000Y-71628000D01*
D26*
X15113000Y-71628000D02*
X15113000Y-76708000D01*
D29*
X15113000Y-56388000D02*
X15113000Y-58166000D01*
D26*
X15113000Y-56261000D02*
X15113000Y-58166000D01*
X17018000Y-54356000D02*
X15113000Y-56261000D01*
X15113000Y-56261000D02*
X15113000Y-56388000D01*
X19558000Y-80391000D02*
X15163026Y-80391000D01*
X15163026Y-80391000D02*
X15138013Y-80416013D01*
X19558000Y-106426000D02*
X15113000Y-106426000D01*
D29*
X15113000Y-80391000D02*
X15138013Y-80416013D01*
D26*
X19558000Y-28321000D02*
X17018000Y-28321000D01*
D25*
X19558000Y-77851000D02*
X17018000Y-77851000D01*
X19558000Y-103886000D02*
X17238022Y-103886000D01*
X7874000Y-103886000D02*
X13012990Y-103886000D01*
X19558000Y-129921000D02*
X17018000Y-129921000D01*
D26*
X13208000Y-77851000D02*
X13208000Y-83566000D01*
X13208000Y-83566000D02*
X13208000Y-83949996D01*
D29*
X13512989Y-86941015D02*
X13512989Y-83870989D01*
X13512989Y-83870989D02*
X13208000Y-83566000D01*
X13230010Y-87223994D02*
X13230010Y-99314000D01*
D26*
X13208000Y-103886000D02*
X13208000Y-99336010D01*
X13208000Y-99336010D02*
X13230010Y-99314000D01*
D29*
X13230010Y-99314000D02*
X13230010Y-105664000D01*
X13230010Y-105664000D02*
X13230010Y-107950000D01*
D26*
X13208000Y-103886000D02*
X13208000Y-105641990D01*
X13208000Y-105641990D02*
X13230010Y-105664000D01*
X13230010Y-129921000D02*
X13230010Y-107950000D01*
D29*
X13512989Y-86941015D02*
X13230010Y-87223994D01*
D26*
X13208000Y-77851000D02*
X13208000Y-51816000D01*
D25*
X19558000Y-51816000D02*
X13208000Y-51816000D01*
D26*
X7874000Y-103886000D02*
X13208000Y-103886000D01*
X19558000Y-103886000D02*
X17018000Y-103886000D01*
D29*
X19558000Y-129921000D02*
X17758000Y-129921000D01*
D26*
X19558000Y-25781000D02*
X15113000Y-25781000D01*
D28*
X39878000Y-11176000D02*
X37338000Y-8636000D01*
X37338000Y-8636000D02*
X34544000Y-5842000D01*
X34544000Y-5842000D02*
X29969208Y-5842000D01*
X39878000Y-13081000D02*
X39878000Y-11176000D01*
D25*
X29969208Y-5842000D02*
X28448000Y-7363208D01*
X32042002Y-5842000D02*
X29969208Y-5842000D01*
X28448000Y-7363208D02*
X28448000Y-8636000D01*
X37338000Y-118491000D02*
X38747999Y-117081001D01*
X37338000Y-118491000D02*
X38608000Y-119761000D01*
X37338000Y-62611000D02*
X38747999Y-64020999D01*
X37338000Y-60071000D02*
X38608000Y-61341000D01*
X38608000Y-61341000D02*
X39878000Y-61341000D01*
X37338000Y-62611000D02*
X38608000Y-62611000D01*
X38608000Y-62611000D02*
X39878000Y-63881000D01*
X37338000Y-61201000D02*
X37338000Y-62611000D01*
X37338000Y-61201000D02*
X37338000Y-60071000D01*
X37338000Y-60425949D02*
X37338000Y-60071000D01*
X39878000Y-61341000D02*
X37478000Y-61341000D01*
X37478000Y-61341000D02*
X37338000Y-61201000D01*
X39878000Y-63881000D02*
X39878000Y-61341000D01*
D28*
X39878000Y-118491000D02*
X39878000Y-119700990D01*
X39878000Y-117221000D02*
X39878000Y-118491000D01*
X39878000Y-118491000D02*
X37338000Y-118491000D01*
D25*
X36488991Y-3341991D02*
X36703000Y-3556000D01*
X17229217Y-3341991D02*
X36488991Y-3341991D01*
X13840208Y-6731000D02*
X17229217Y-3341991D01*
D28*
X17523208Y-3048000D02*
X13840208Y-6731000D01*
X36255000Y-3048000D02*
X17523208Y-3048000D01*
X36763000Y-3556000D02*
X36255000Y-3048000D01*
D25*
X13208000Y-7363208D02*
X13840208Y-6731000D01*
D28*
X43688000Y-13081000D02*
X43688000Y-10481000D01*
X43688000Y-10481000D02*
X36763000Y-3556000D01*
X36763000Y-3556000D02*
X36703000Y-3556000D01*
X46228000Y-61341000D02*
X46228000Y-24377969D01*
X46288010Y-14521008D02*
X44888001Y-13120999D01*
X46228000Y-24377969D02*
X46288010Y-24317959D01*
X46288010Y-24317959D02*
X46288010Y-14521008D01*
X43727999Y-13120999D02*
X43688000Y-13081000D01*
X44888001Y-13120999D02*
X43727999Y-13120999D01*
X46228000Y-61341000D02*
X46228000Y-111004031D01*
X46228000Y-111004031D02*
X46288010Y-111064041D01*
X46288010Y-111064041D02*
X46288010Y-119560990D01*
X46288010Y-119560990D02*
X46088000Y-119761000D01*
D25*
X13208000Y-8636000D02*
X13208000Y-7363208D01*
X43688000Y-117221000D02*
X44958000Y-118491000D01*
X46228000Y-63881000D02*
X46228000Y-117221000D01*
X46228000Y-117221000D02*
X46228000Y-119621000D01*
X43688000Y-117221000D02*
X46228000Y-117221000D01*
X46088000Y-119761000D02*
X43688000Y-119761000D01*
X46228000Y-119621000D02*
X46088000Y-119761000D01*
X43688000Y-63881000D02*
X44958000Y-62611000D01*
X46228000Y-61341000D02*
X46228000Y-63881000D01*
X43688000Y-63881000D02*
X46228000Y-63881000D01*
X43688000Y-61341000D02*
X46228000Y-61341000D01*
X43688000Y-63881000D02*
X43688000Y-61341000D01*
D28*
X43688000Y-118491000D02*
X43688000Y-119700990D01*
X43688000Y-117221000D02*
X43688000Y-118491000D01*
D26*
X33528000Y-16251000D02*
X33528000Y-14351000D01*
X33528000Y-17835002D02*
X33528000Y-16251000D01*
X29963999Y-19191001D02*
X32172001Y-19191001D01*
X21668136Y-15621000D02*
X23573136Y-17526000D01*
X20828000Y-15621000D02*
X21668136Y-15621000D01*
X23573136Y-17526000D02*
X28298998Y-17526000D01*
X28298998Y-17526000D02*
X29963999Y-19191001D01*
X32172001Y-19191001D02*
X33528000Y-17835002D01*
D25*
X15113000Y-15621000D02*
X20828000Y-15621000D01*
D26*
X5334000Y-53086000D02*
X5334000Y-95250000D01*
D25*
X5334000Y-96266000D02*
X5334000Y-95250000D01*
D26*
X11176000Y-47244000D02*
X5334000Y-53086000D01*
X11176000Y-35560000D02*
X11176000Y-47244000D01*
X12954000Y-33782000D02*
X11176000Y-35560000D01*
X18034000Y-15621000D02*
X20828000Y-15621000D01*
X15748000Y-15621000D02*
X18034000Y-15621000D01*
X19558000Y-140081000D02*
X24003000Y-140081000D01*
X24003000Y-140081000D02*
X24638000Y-140716000D01*
X24638000Y-140716000D02*
X24638000Y-144421002D01*
X24638000Y-144421002D02*
X25377998Y-145161000D01*
X25377998Y-145161000D02*
X30408000Y-145161000D01*
X30408000Y-145161000D02*
X32258000Y-145161000D01*
X34798000Y-145161000D02*
X39243000Y-145161000D01*
X39243000Y-145161000D02*
X39878000Y-144526000D01*
X39878000Y-144526000D02*
X39878000Y-142621000D01*
D25*
X39878000Y-142621000D02*
X43688000Y-142621000D01*
D26*
X27178000Y-142621000D02*
X32258000Y-142621000D01*
D25*
X39878000Y-140081000D02*
X43688000Y-140081000D01*
D26*
X39309998Y-140081000D02*
X39878000Y-140081000D01*
X36769998Y-142621000D02*
X39309998Y-140081000D01*
X34798000Y-142621000D02*
X36769998Y-142621000D01*
X27178000Y-140081000D02*
X32258000Y-140081000D01*
X34798000Y-140081000D02*
X36068000Y-140081000D01*
X36068000Y-140081000D02*
X38608000Y-137541000D01*
X38608000Y-137541000D02*
X39878000Y-137541000D01*
D25*
X39878000Y-137541000D02*
X43688000Y-137541000D01*
D26*
X27178000Y-137541000D02*
X32258000Y-137541000D01*
D25*
X39878000Y-135001000D02*
X43688000Y-135001000D01*
D26*
X34798000Y-137541000D02*
X34798000Y-135636000D01*
X34798000Y-135636000D02*
X35433000Y-135001000D01*
X35433000Y-135001000D02*
X39878000Y-135001000D01*
X27178000Y-135001000D02*
X31568000Y-135001000D01*
X31568000Y-135001000D02*
X32258000Y-134311000D01*
X32258000Y-134311000D02*
X32258000Y-132461000D01*
D25*
X39878000Y-132461000D02*
X43688000Y-132461000D01*
D26*
X34798000Y-132461000D02*
X39878000Y-132461000D01*
X27178000Y-132461000D02*
X28448000Y-132461000D01*
X28448000Y-132461000D02*
X30988000Y-129921000D01*
X30988000Y-129921000D02*
X32258000Y-129921000D01*
D25*
X39878000Y-129921000D02*
X43688000Y-129921000D01*
D26*
X34798000Y-129921000D02*
X39878000Y-129921000D01*
X31055919Y-127381000D02*
X32258000Y-127381000D01*
X27178000Y-129921000D02*
X28442402Y-129921000D01*
X30982402Y-127381000D02*
X31055919Y-127381000D01*
X28442402Y-129921000D02*
X30982402Y-127381000D01*
D25*
X39878000Y-127381000D02*
X43688000Y-127381000D01*
D26*
X34798000Y-127381000D02*
X39878000Y-127381000D01*
X31055919Y-124841000D02*
X32258000Y-124841000D01*
X30976802Y-124841000D02*
X31055919Y-124841000D01*
X27178000Y-127381000D02*
X28436802Y-127381000D01*
X28436802Y-127381000D02*
X30976802Y-124841000D01*
D25*
X39878000Y-124841000D02*
X43688000Y-124841000D01*
D26*
X34798000Y-124841000D02*
X39878000Y-124841000D01*
D25*
X19558000Y-114046000D02*
X17780000Y-114046000D01*
D26*
X17018000Y-122301000D02*
X17018000Y-114808000D01*
X17018000Y-114808000D02*
X17780000Y-114046000D01*
X31441000Y-122428000D02*
X30707947Y-122428000D01*
X30707947Y-122428000D02*
X29717998Y-122428000D01*
X32258000Y-121611000D02*
X31441000Y-122428000D01*
X32258000Y-119761000D02*
X32258000Y-121611000D01*
D28*
X39878000Y-122301000D02*
X43688000Y-122301000D01*
D26*
X34798000Y-121666000D02*
X35433000Y-122301000D01*
X35433000Y-122301000D02*
X39878000Y-122301000D01*
X34798000Y-119761000D02*
X34798000Y-121666000D01*
X27178000Y-116586000D02*
X27813000Y-117221000D01*
X27813000Y-117221000D02*
X32258000Y-117221000D01*
D25*
X39878000Y-114681000D02*
X43688000Y-114681000D01*
D26*
X38746630Y-114681000D02*
X39878000Y-114681000D01*
X38036716Y-114681000D02*
X38746630Y-114681000D01*
X34798000Y-117221000D02*
X35496716Y-117221000D01*
X35496716Y-117221000D02*
X38036716Y-114681000D01*
D29*
X34798000Y-117221000D02*
X35144558Y-117221000D01*
D26*
X27178000Y-114046000D02*
X29378000Y-114046000D01*
X29378000Y-114046000D02*
X30013000Y-114681000D01*
X30013000Y-114681000D02*
X31055919Y-114681000D01*
X31055919Y-114681000D02*
X32258000Y-114681000D01*
D28*
X43688000Y-112141000D02*
X39878000Y-112141000D01*
D26*
X34798000Y-114681000D02*
X35491118Y-114681000D01*
X35491118Y-114681000D02*
X38031118Y-112141000D01*
X38031118Y-112141000D02*
X38746630Y-112141000D01*
X38746630Y-112141000D02*
X39878000Y-112141000D01*
X27178000Y-111506000D02*
X31623000Y-111506000D01*
X31623000Y-111506000D02*
X32258000Y-112141000D01*
D25*
X39878000Y-109601000D02*
X43688000Y-109601000D01*
D26*
X35433000Y-109601000D02*
X39878000Y-109601000D01*
X34798000Y-110236000D02*
X35433000Y-109601000D01*
X34798000Y-112141000D02*
X34798000Y-110236000D01*
X27178000Y-108966000D02*
X30988000Y-108966000D01*
X30988000Y-108966000D02*
X32258000Y-107696000D01*
X32258000Y-107696000D02*
X32258000Y-107061000D01*
D25*
X39878000Y-107061000D02*
X43688000Y-107061000D01*
D26*
X34798000Y-107061000D02*
X39878000Y-107061000D01*
X27178000Y-106426000D02*
X28852998Y-106426000D01*
X28852998Y-106426000D02*
X30757998Y-104521000D01*
X30757998Y-104521000D02*
X31055919Y-104521000D01*
X31055919Y-104521000D02*
X32258000Y-104521000D01*
D25*
X39878000Y-104521000D02*
X43688000Y-104521000D01*
D26*
X34798000Y-104521000D02*
X39878000Y-104521000D01*
X31055919Y-101981000D02*
X32258000Y-101981000D01*
X29918460Y-101981000D02*
X31055919Y-101981000D01*
X28013460Y-103886000D02*
X29918460Y-101981000D01*
X27178000Y-103886000D02*
X28013460Y-103886000D01*
D25*
X39878000Y-101981000D02*
X43688000Y-101981000D01*
D26*
X34798000Y-101981000D02*
X39878000Y-101981000D01*
X28007862Y-101346000D02*
X29912862Y-99441000D01*
X27178000Y-101346000D02*
X28007862Y-101346000D01*
X29912862Y-99441000D02*
X31055919Y-99441000D01*
X31055919Y-99441000D02*
X32258000Y-99441000D01*
D25*
X39878000Y-99441000D02*
X43688000Y-99441000D01*
D26*
X34798000Y-99441000D02*
X39878000Y-99441000D01*
D25*
X19558000Y-88011000D02*
X17758000Y-88011000D01*
D26*
X17018000Y-88751000D02*
X17018000Y-96265998D01*
X17758000Y-88011000D02*
X17018000Y-88751000D01*
X32258000Y-94361000D02*
X31623000Y-94361000D01*
X31623000Y-94361000D02*
X29718000Y-96266000D01*
X35433000Y-96901000D02*
X39878000Y-96901000D01*
X34798000Y-96266000D02*
X35433000Y-96901000D01*
X34798000Y-94361000D02*
X34798000Y-96266000D01*
D25*
X39878000Y-96901000D02*
X43688000Y-96901000D01*
D26*
X27178000Y-90551000D02*
X28448000Y-91821000D01*
X28448000Y-91821000D02*
X32258000Y-91821000D01*
X39878000Y-92456000D02*
X39878000Y-94361000D01*
X39243000Y-91821000D02*
X39878000Y-92456000D01*
X34798000Y-91821000D02*
X39243000Y-91821000D01*
D25*
X39878000Y-94361000D02*
X43688000Y-94361000D01*
D26*
X27178000Y-88011000D02*
X30345998Y-88011000D01*
X30345998Y-88011000D02*
X31615998Y-89281000D01*
X31615998Y-89281000D02*
X32258000Y-89281000D01*
D25*
X39878000Y-86741000D02*
X43688000Y-86741000D01*
D26*
X39243000Y-89281000D02*
X39878000Y-88646000D01*
X39878000Y-88646000D02*
X39878000Y-86741000D01*
X34798000Y-89281000D02*
X39243000Y-89281000D01*
X27178000Y-85471000D02*
X30988000Y-85471000D01*
X30988000Y-85471000D02*
X32258000Y-86741000D01*
D25*
X39878000Y-84201000D02*
X43688000Y-84201000D01*
D26*
X34798000Y-86741000D02*
X34798000Y-84836000D01*
X34798000Y-84836000D02*
X35433000Y-84201000D01*
X35433000Y-84201000D02*
X39878000Y-84201000D01*
X32258000Y-82296000D02*
X32258000Y-81661000D01*
X31623000Y-82931000D02*
X32258000Y-82296000D01*
X27178000Y-82931000D02*
X31623000Y-82931000D01*
D25*
X39878000Y-81661000D02*
X43688000Y-81661000D01*
D26*
X34798000Y-81661000D02*
X39878000Y-81661000D01*
X29378000Y-80391000D02*
X30648000Y-79121000D01*
X30648000Y-79121000D02*
X31055919Y-79121000D01*
X27178000Y-80391000D02*
X29378000Y-80391000D01*
X31055919Y-79121000D02*
X32258000Y-79121000D01*
D25*
X39878000Y-79121000D02*
X43688000Y-79121000D01*
D26*
X34798000Y-79121000D02*
X39878000Y-79121000D01*
X30648000Y-76581000D02*
X31055919Y-76581000D01*
X29908011Y-77320989D02*
X30648000Y-76581000D01*
X29902412Y-77320989D02*
X29908011Y-77320989D01*
X29372401Y-77851000D02*
X29902412Y-77320989D01*
X27178000Y-77851000D02*
X29372401Y-77851000D01*
X31055919Y-76581000D02*
X32258000Y-76581000D01*
D25*
X39878000Y-76581000D02*
X43688000Y-76581000D01*
D26*
X34798000Y-76581000D02*
X39878000Y-76581000D01*
X31055919Y-74041000D02*
X32258000Y-74041000D01*
X29372401Y-75311000D02*
X30642401Y-74041000D01*
X27178000Y-75311000D02*
X29372401Y-75311000D01*
X30642401Y-74041000D02*
X31055919Y-74041000D01*
D25*
X39878000Y-74041000D02*
X43688000Y-74041000D01*
D26*
X34798000Y-74041000D02*
X39878000Y-74041000D01*
X17018000Y-62716000D02*
X17018000Y-70231000D01*
X17758000Y-61976000D02*
X17018000Y-62716000D01*
X19558000Y-61976000D02*
X17758000Y-61976000D01*
X32258000Y-68961000D02*
X30988000Y-68961000D01*
X30988000Y-68961000D02*
X29718000Y-70231000D01*
D25*
X39878000Y-71501000D02*
X43688000Y-71501000D01*
D26*
X34798000Y-68961000D02*
X34798000Y-70866000D01*
X34798000Y-70866000D02*
X35433000Y-71501000D01*
X35433000Y-71501000D02*
X39878000Y-71501000D01*
X27178000Y-64516000D02*
X29083000Y-66421000D01*
X29083000Y-66421000D02*
X32258000Y-66421000D01*
X38103222Y-68961000D02*
X38746630Y-68961000D01*
X34798000Y-66421000D02*
X35563222Y-66421000D01*
X38746630Y-68961000D02*
X39878000Y-68961000D01*
X35563222Y-66421000D02*
X38103222Y-68961000D01*
D25*
X39878000Y-68961000D02*
X43688000Y-68961000D01*
D26*
X27178000Y-61976000D02*
X29710998Y-61976000D01*
X29710998Y-61976000D02*
X31615998Y-63881000D01*
X31615998Y-63881000D02*
X32258000Y-63881000D01*
X34798000Y-63881000D02*
X35638138Y-63881000D01*
X35638138Y-63881000D02*
X38178138Y-66421000D01*
X38178138Y-66421000D02*
X39878000Y-66421000D01*
D29*
X34798000Y-63881000D02*
X35285979Y-63881000D01*
D25*
X39878000Y-66421000D02*
X43688000Y-66421000D01*
D26*
X27178000Y-59436000D02*
X31623000Y-59436000D01*
X31623000Y-59436000D02*
X32258000Y-60071000D01*
X32258000Y-60071000D02*
X32258000Y-61341000D01*
X34798000Y-61341000D02*
X34798000Y-59641138D01*
X34798000Y-59641138D02*
X36468148Y-57970990D01*
X36468148Y-57970990D02*
X38207852Y-57970990D01*
X39037862Y-58801000D02*
X39878000Y-58801000D01*
X38207852Y-57970990D02*
X39037862Y-58801000D01*
D25*
X39878000Y-58801000D02*
X43688000Y-58801000D01*
D26*
X27178000Y-56896000D02*
X31623000Y-56896000D01*
X31623000Y-56896000D02*
X32258000Y-56261000D01*
X35128011Y-55930989D02*
X39547989Y-55930989D01*
X34798000Y-56261000D02*
X35128011Y-55930989D01*
X39547989Y-55930989D02*
X39878000Y-56261000D01*
D25*
X39878000Y-56261000D02*
X43688000Y-56261000D01*
D26*
X27178000Y-54356000D02*
X29378000Y-54356000D01*
X29378000Y-54356000D02*
X30013000Y-53721000D01*
X30013000Y-53721000D02*
X31055919Y-53721000D01*
X31055919Y-53721000D02*
X32258000Y-53721000D01*
X34798000Y-53721000D02*
X39878000Y-53721000D01*
D25*
X39878000Y-53721000D02*
X43688000Y-53721000D01*
D26*
X27178000Y-51816000D02*
X29378000Y-51816000D01*
X29378000Y-51816000D02*
X30013000Y-51181000D01*
X30013000Y-51181000D02*
X31055919Y-51181000D01*
X31055919Y-51181000D02*
X32258000Y-51181000D01*
X34798000Y-51181000D02*
X39878000Y-51181000D01*
D25*
X39878000Y-51181000D02*
X43688000Y-51181000D01*
D26*
X27178000Y-49276000D02*
X29378000Y-49276000D01*
X29378000Y-49276000D02*
X30013000Y-48641000D01*
X30013000Y-48641000D02*
X31055919Y-48641000D01*
X31055919Y-48641000D02*
X32258000Y-48641000D01*
X34798000Y-48641000D02*
X39878000Y-48641000D01*
D25*
X39878000Y-48641000D02*
X43688000Y-48641000D01*
D26*
X18223001Y-43496001D02*
X18923000Y-44196000D01*
X17018000Y-42291000D02*
X18223001Y-43496001D01*
X17018000Y-36686598D02*
X17018000Y-42291000D01*
X17763598Y-35941000D02*
X17018000Y-36686598D01*
X19558000Y-35941000D02*
X17763598Y-35941000D01*
X32258000Y-43561000D02*
X30352998Y-43561000D01*
X30352998Y-43561000D02*
X29717998Y-44196000D01*
X34798000Y-43561000D02*
X34798000Y-45466000D01*
X35433000Y-46101000D02*
X39878000Y-46101000D01*
X34798000Y-45466000D02*
X35433000Y-46101000D01*
D25*
X39878000Y-46101000D02*
X43688000Y-46101000D01*
D26*
X27178000Y-38481000D02*
X29718000Y-41021000D01*
X29718000Y-41021000D02*
X32258000Y-41021000D01*
X38746630Y-43561000D02*
X39878000Y-43561000D01*
X38534483Y-43561000D02*
X38746630Y-43561000D01*
X35994483Y-41021000D02*
X38534483Y-43561000D01*
X34798000Y-41021000D02*
X35994483Y-41021000D01*
D25*
X39878000Y-43561000D02*
X43688000Y-43561000D01*
D26*
X27178000Y-35941000D02*
X28515919Y-35941000D01*
X28515919Y-35941000D02*
X31055919Y-38481000D01*
X31055919Y-38481000D02*
X32258000Y-38481000D01*
X34798000Y-38481000D02*
X36000081Y-38481000D01*
X36000081Y-38481000D02*
X38540081Y-41021000D01*
X38540081Y-41021000D02*
X38746630Y-41021000D01*
X38746630Y-41021000D02*
X39878000Y-41021000D01*
D25*
X39878000Y-41021000D02*
X43688000Y-41021000D01*
D26*
X31623000Y-34036000D02*
X32258000Y-34671000D01*
X32258000Y-34671000D02*
X32258000Y-35941000D01*
X30013000Y-34036000D02*
X31623000Y-34036000D01*
X27178000Y-33401000D02*
X29378000Y-33401000D01*
X29378000Y-33401000D02*
X30013000Y-34036000D01*
X34798000Y-35941000D02*
X36703000Y-35941000D01*
X39243000Y-38481000D02*
X39878000Y-38481000D01*
X36703000Y-35941000D02*
X39243000Y-38481000D01*
D25*
X39878000Y-38481000D02*
X43688000Y-38481000D01*
D26*
X27178000Y-30861000D02*
X32258000Y-30861000D01*
D25*
X39878000Y-30861000D02*
X43688000Y-30861000D01*
D26*
X34798000Y-30861000D02*
X39878000Y-30861000D01*
X27178000Y-28321000D02*
X32258000Y-28321000D01*
D25*
X39878000Y-28321000D02*
X43688000Y-28321000D01*
D26*
X34798000Y-28321000D02*
X39878000Y-28321000D01*
X27178000Y-25781000D02*
X32258000Y-25781000D01*
D25*
X39878000Y-25781000D02*
X43688000Y-25781000D01*
D26*
X34798000Y-25781000D02*
X39878000Y-25781000D01*
X27178000Y-23241000D02*
X32258000Y-23241000D01*
D28*
X39878000Y-23241000D02*
X43688000Y-23241000D01*
D26*
X34798000Y-23241000D02*
X39878000Y-23241000D01*
M02*
