M48
;DRILL file {KiCad 4.0.7-e2-6376~58~ubuntu14.04.1} date Thu Mar 15 14:05:39 2018
;FORMAT={-:-/ absolute / inch / decimal}
FMAT,2
INCH,TZ
T1C0.016
T2C0.028
T3C0.031
T4C0.039
%
G90
G05
M72
T1
X0.05Y-3.94
X0.0696Y-1.5325
X0.15Y-4.34
X0.16Y-0.415
X0.33Y-2.29
X0.38Y-4.14
X0.4009Y-3.32
X0.45Y-1.28
X0.46Y-1.99
X0.46Y-3.015
X0.46Y-4.04
X0.4609Y-5.065
X0.535Y-0.965
X0.535Y-4.14
X0.61Y-1.065
X0.61Y-2.09
X0.61Y-2.29
X0.61Y-2.715
X0.61Y-3.015
X0.61Y-3.315
X0.61Y-3.74
X0.61Y-4.04
X0.61Y-4.34
X0.61Y-4.765
X0.61Y-5.065
X0.65Y-0.565
X0.685Y-1.69
X0.81Y-0.865
X0.81Y-1.465
X0.81Y-1.89
X0.81Y-2.49
X0.81Y-2.915
X0.81Y-3.515
X0.81Y-3.94
X0.81Y-4.54
X0.81Y-4.965
X0.81Y-5.565
X0.96Y-0.415
X1.11Y-1.69
X1.11Y-4.77
X1.11Y-2.715
X1.11Y-3.74
X1.41Y-0.29
X1.41Y-2.315
X1.41Y-2.415
X1.41Y-4.615
T2
X0.2366Y-0.99
X0.335Y-0.99
T3
X0.71Y-0.765
X0.71Y-0.865
X0.71Y-0.965
X0.71Y-1.065
X0.71Y-1.165
X0.71Y-1.265
X0.71Y-1.365
X0.71Y-1.465
X0.71Y-1.79
X0.71Y-1.89
X0.71Y-1.99
X0.71Y-2.09
X0.71Y-2.19
X0.71Y-2.29
X0.71Y-2.39
X0.71Y-2.49
X0.71Y-2.815
X0.71Y-2.915
X0.71Y-3.015
X0.71Y-3.115
X0.71Y-3.215
X0.71Y-3.315
X0.71Y-3.415
X0.71Y-3.515
X0.71Y-3.84
X0.71Y-3.94
X0.71Y-4.04
X0.71Y-4.14
X0.71Y-4.24
X0.71Y-4.34
X0.71Y-4.44
X0.71Y-4.54
X0.71Y-4.865
X0.71Y-4.965
X0.71Y-5.065
X0.71Y-5.165
X0.71Y-5.265
X0.71Y-5.365
X0.71Y-5.465
X0.71Y-5.565
X0.76Y-0.265
X0.76Y-0.565
X1.01Y-0.765
X1.01Y-0.865
X1.01Y-0.965
X1.01Y-1.065
X1.01Y-1.165
X1.01Y-1.265
X1.01Y-1.365
X1.01Y-1.465
X1.01Y-1.79
X1.01Y-1.89
X1.01Y-1.99
X1.01Y-2.09
X1.01Y-2.19
X1.01Y-2.29
X1.01Y-2.39
X1.01Y-2.49
X1.01Y-2.815
X1.01Y-2.915
X1.01Y-3.015
X1.01Y-3.115
X1.01Y-3.215
X1.01Y-3.315
X1.01Y-3.415
X1.01Y-3.515
X1.01Y-3.84
X1.01Y-3.94
X1.01Y-4.04
X1.01Y-4.14
X1.01Y-4.24
X1.01Y-4.34
X1.01Y-4.44
X1.01Y-4.54
X1.01Y-4.865
X1.01Y-4.965
X1.01Y-5.065
X1.01Y-5.165
X1.01Y-5.265
X1.01Y-5.365
X1.01Y-5.465
X1.01Y-5.565
X1.51Y-0.465
X1.51Y-0.565
X1.51Y-0.665
X1.51Y-0.765
X1.51Y-0.865
X1.51Y-0.965
X1.51Y-1.065
X1.51Y-1.165
X1.51Y-1.265
X1.51Y-1.365
X1.51Y-1.465
X1.51Y-1.565
X1.51Y-1.665
X1.51Y-1.765
X1.51Y-1.865
X1.51Y-1.965
X1.51Y-2.065
X1.51Y-2.165
X1.51Y-2.265
X1.51Y-2.365
X1.51Y-2.465
X1.51Y-2.565
X1.51Y-2.665
X1.51Y-2.765
X1.51Y-2.865
X1.51Y-2.965
X1.51Y-3.065
X1.51Y-3.165
X1.51Y-3.265
X1.51Y-3.365
X1.51Y-3.665
X1.51Y-3.765
X1.51Y-3.865
X1.51Y-3.965
X1.51Y-4.065
X1.51Y-4.165
X1.51Y-4.265
X1.51Y-4.365
X1.51Y-4.465
X1.51Y-4.565
X1.51Y-4.665
X1.51Y-4.765
X1.51Y-4.865
X1.51Y-4.965
X1.51Y-5.065
X1.51Y-5.165
X1.51Y-5.265
X1.51Y-5.365
X1.51Y-5.465
X1.51Y-5.565
X1.66Y-0.465
X1.66Y-0.565
X1.66Y-0.665
X1.66Y-0.765
X1.66Y-0.865
X1.66Y-0.965
X1.66Y-1.065
X1.66Y-1.165
X1.66Y-1.265
X1.66Y-1.365
X1.66Y-1.465
X1.66Y-1.565
X1.66Y-1.665
X1.66Y-1.765
X1.66Y-1.865
X1.66Y-1.965
X1.66Y-2.065
X1.66Y-2.165
X1.66Y-2.265
X1.66Y-2.365
X1.66Y-2.465
X1.66Y-2.565
X1.66Y-2.665
X1.66Y-2.765
X1.66Y-2.865
X1.66Y-2.965
X1.66Y-3.065
X1.66Y-3.165
X1.66Y-3.265
X1.66Y-3.365
X1.66Y-3.665
X1.66Y-3.765
X1.66Y-3.865
X1.66Y-3.965
X1.66Y-4.065
X1.66Y-4.165
X1.66Y-4.265
X1.66Y-4.365
X1.66Y-4.465
X1.66Y-4.565
X1.66Y-4.665
X1.66Y-4.765
X1.66Y-4.865
X1.66Y-4.965
X1.66Y-5.065
X1.66Y-5.165
X1.66Y-5.265
X1.66Y-5.365
X1.66Y-5.465
X1.66Y-5.565
T4
X0.15Y-3.74
X0.15Y-3.84
X0.15Y-3.94
X0.15Y-4.04
X0.15Y-4.14
X0.15Y-4.24
X0.235Y-0.59
X0.235Y-0.69
X0.235Y-0.79
X0.235Y-1.14
X0.235Y-1.24
X0.25Y-3.74
X0.25Y-3.84
X0.25Y-3.94
X0.25Y-4.04
X0.25Y-4.14
X0.25Y-4.24
X0.36Y-0.29
X0.41Y-0.565
X0.41Y-0.7619
X0.46Y-0.29
X0.535Y-0.565
X0.535Y-0.7619
X0.56Y-0.29
X0.56Y-5.2681
X0.56Y-5.465
X0.785Y-2.615
X0.7881Y-1.59
X0.7881Y-3.64
X0.7881Y-4.665
X0.96Y-0.29
X0.9819Y-2.615
X0.985Y-1.59
X0.985Y-3.64
X0.985Y-4.665
X1.06Y-0.29
X1.16Y-0.29
X1.16Y-0.515
X1.1631Y-0.615
X1.21Y-0.865
X1.21Y-0.965
X1.21Y-1.065
X1.21Y-1.165
X1.21Y-1.365
X1.21Y-1.465
X1.21Y-1.565
X1.21Y-1.665
X1.21Y-1.865
X1.21Y-1.965
X1.21Y-2.065
X1.21Y-2.165
X1.21Y-2.365
X1.21Y-2.465
X1.21Y-2.565
X1.21Y-2.665
X1.21Y-2.865
X1.21Y-2.965
X1.21Y-3.065
X1.21Y-3.165
X1.21Y-3.365
X1.21Y-3.465
X1.21Y-3.565
X1.21Y-3.665
X1.21Y-3.865
X1.21Y-3.965
X1.21Y-4.065
X1.21Y-4.165
X1.21Y-4.365
X1.21Y-4.465
X1.21Y-4.565
X1.21Y-4.665
X1.21Y-4.865
X1.21Y-4.965
X1.21Y-5.065
X1.21Y-5.165
X1.21Y-5.365
X1.21Y-5.465
X1.21Y-5.565
X1.21Y-5.665
X1.26Y-0.515
X1.31Y-0.865
X1.31Y-0.965
X1.31Y-1.065
X1.31Y-1.165
X1.31Y-1.365
X1.31Y-1.465
X1.31Y-1.565
X1.31Y-1.665
X1.31Y-1.865
X1.31Y-1.965
X1.31Y-2.065
X1.31Y-2.165
X1.31Y-2.365
X1.31Y-2.465
X1.31Y-2.565
X1.31Y-2.665
X1.31Y-2.865
X1.31Y-2.965
X1.31Y-3.065
X1.31Y-3.165
X1.31Y-3.365
X1.31Y-3.465
X1.31Y-3.565
X1.31Y-3.665
X1.31Y-3.865
X1.31Y-3.965
X1.31Y-4.065
X1.31Y-4.165
X1.31Y-4.365
X1.31Y-4.465
X1.31Y-4.565
X1.31Y-4.665
X1.31Y-4.865
X1.31Y-4.965
X1.31Y-5.065
X1.31Y-5.165
X1.31Y-5.365
X1.31Y-5.465
X1.31Y-5.565
X1.31Y-5.665
X1.36Y-0.515
X1.36Y-0.615
T0
M30
