M48
;DRILL file {KiCad 4.0.7-e2-6376~58~ubuntu14.04.1} date Thu Mar 22 17:03:31 2018
;FORMAT={-:-/ absolute / inch / decimal}
FMAT,2
INCH,TZ
T1C0.016
T2C0.028
T3C0.031
T4C0.039
T5C0.098
%
G90
G05
M72
T1
X0.21Y-4.39
X0.22Y-0.465
X0.39Y-2.34
X0.44Y-4.19
X0.4609Y-3.37
X0.51Y-1.33
X0.52Y-2.04
X0.52Y-3.065
X0.52Y-4.09
X0.5209Y-5.115
X0.595Y-1.015
X0.595Y-4.19
X0.67Y-1.115
X0.67Y-2.14
X0.67Y-2.34
X0.67Y-2.765
X0.67Y-3.065
X0.67Y-3.365
X0.67Y-3.79
X0.67Y-4.09
X0.67Y-4.39
X0.67Y-4.815
X0.67Y-5.115
X0.71Y-0.615
X0.745Y-1.74
X0.87Y-0.915
X0.87Y-1.515
X0.87Y-1.94
X0.87Y-2.54
X0.87Y-2.965
X0.87Y-3.565
X0.87Y-3.99
X0.87Y-4.59
X0.87Y-5.015
X0.87Y-5.615
X1.02Y-0.465
X1.17Y-1.74
X1.17Y-4.82
X1.17Y-2.765
X1.17Y-3.79
X1.47Y-0.34
X1.47Y-2.365
X1.47Y-2.465
X1.47Y-4.665
T2
X0.2966Y-1.04
X0.395Y-1.04
T3
X0.77Y-0.815
X0.77Y-0.915
X0.77Y-1.015
X0.77Y-1.115
X0.77Y-1.215
X0.77Y-1.315
X0.77Y-1.415
X0.77Y-1.515
X0.77Y-1.84
X0.77Y-1.94
X0.77Y-2.04
X0.77Y-2.14
X0.77Y-2.24
X0.77Y-2.34
X0.77Y-2.44
X0.77Y-2.54
X0.77Y-2.865
X0.77Y-2.965
X0.77Y-3.065
X0.77Y-3.165
X0.77Y-3.265
X0.77Y-3.365
X0.77Y-3.465
X0.77Y-3.565
X0.77Y-3.89
X0.77Y-3.99
X0.77Y-4.09
X0.77Y-4.19
X0.77Y-4.29
X0.77Y-4.39
X0.77Y-4.49
X0.77Y-4.59
X0.77Y-4.915
X0.77Y-5.015
X0.77Y-5.115
X0.77Y-5.215
X0.77Y-5.315
X0.77Y-5.415
X0.77Y-5.515
X0.77Y-5.615
X0.82Y-0.315
X0.82Y-0.615
X1.07Y-0.815
X1.07Y-0.915
X1.07Y-1.015
X1.07Y-1.115
X1.07Y-1.215
X1.07Y-1.315
X1.07Y-1.415
X1.07Y-1.515
X1.07Y-1.84
X1.07Y-1.94
X1.07Y-2.04
X1.07Y-2.14
X1.07Y-2.24
X1.07Y-2.34
X1.07Y-2.44
X1.07Y-2.54
X1.07Y-2.865
X1.07Y-2.965
X1.07Y-3.065
X1.07Y-3.165
X1.07Y-3.265
X1.07Y-3.365
X1.07Y-3.465
X1.07Y-3.565
X1.07Y-3.89
X1.07Y-3.99
X1.07Y-4.09
X1.07Y-4.19
X1.07Y-4.29
X1.07Y-4.39
X1.07Y-4.49
X1.07Y-4.59
X1.07Y-4.915
X1.07Y-5.015
X1.07Y-5.115
X1.07Y-5.215
X1.07Y-5.315
X1.07Y-5.415
X1.07Y-5.515
X1.07Y-5.615
X1.57Y-0.515
X1.57Y-0.615
X1.57Y-0.715
X1.57Y-0.815
X1.57Y-0.915
X1.57Y-1.015
X1.57Y-1.115
X1.57Y-1.215
X1.57Y-1.315
X1.57Y-1.415
X1.57Y-1.515
X1.57Y-1.615
X1.57Y-1.715
X1.57Y-1.815
X1.57Y-1.915
X1.57Y-2.015
X1.57Y-2.115
X1.57Y-2.215
X1.57Y-2.315
X1.57Y-2.415
X1.57Y-2.515
X1.57Y-2.615
X1.57Y-2.715
X1.57Y-2.815
X1.57Y-2.915
X1.57Y-3.015
X1.57Y-3.115
X1.57Y-3.215
X1.57Y-3.315
X1.57Y-3.415
X1.57Y-3.715
X1.57Y-3.815
X1.57Y-3.915
X1.57Y-4.015
X1.57Y-4.115
X1.57Y-4.215
X1.57Y-4.315
X1.57Y-4.415
X1.57Y-4.515
X1.57Y-4.615
X1.57Y-4.715
X1.57Y-4.815
X1.57Y-4.915
X1.57Y-5.015
X1.57Y-5.115
X1.57Y-5.215
X1.57Y-5.315
X1.57Y-5.415
X1.57Y-5.515
X1.57Y-5.615
X1.72Y-0.515
X1.72Y-0.615
X1.72Y-0.715
X1.72Y-0.815
X1.72Y-0.915
X1.72Y-1.015
X1.72Y-1.115
X1.72Y-1.215
X1.72Y-1.315
X1.72Y-1.415
X1.72Y-1.515
X1.72Y-1.615
X1.72Y-1.715
X1.72Y-1.815
X1.72Y-1.915
X1.72Y-2.015
X1.72Y-2.115
X1.72Y-2.215
X1.72Y-2.315
X1.72Y-2.415
X1.72Y-2.515
X1.72Y-2.615
X1.72Y-2.715
X1.72Y-2.815
X1.72Y-2.915
X1.72Y-3.015
X1.72Y-3.115
X1.72Y-3.215
X1.72Y-3.315
X1.72Y-3.415
X1.72Y-3.715
X1.72Y-3.815
X1.72Y-3.915
X1.72Y-4.015
X1.72Y-4.115
X1.72Y-4.215
X1.72Y-4.315
X1.72Y-4.415
X1.72Y-4.515
X1.72Y-4.615
X1.72Y-4.715
X1.72Y-4.815
X1.72Y-4.915
X1.72Y-5.015
X1.72Y-5.115
X1.72Y-5.215
X1.72Y-5.315
X1.72Y-5.415
X1.72Y-5.515
X1.72Y-5.615
T4
X0.21Y-3.79
X0.21Y-3.89
X0.21Y-3.99
X0.21Y-4.09
X0.21Y-4.19
X0.21Y-4.29
X0.295Y-0.64
X0.295Y-0.74
X0.295Y-0.84
X0.295Y-1.19
X0.295Y-1.29
X0.31Y-3.79
X0.31Y-3.89
X0.31Y-3.99
X0.31Y-4.09
X0.31Y-4.19
X0.31Y-4.29
X0.42Y-0.34
X0.47Y-0.615
X0.47Y-0.8119
X0.52Y-0.34
X0.595Y-0.615
X0.595Y-0.8119
X0.62Y-0.34
X0.62Y-5.3181
X0.62Y-5.515
X0.845Y-2.665
X0.8481Y-1.64
X0.8481Y-3.69
X0.8481Y-4.715
X1.02Y-0.34
X1.0419Y-2.665
X1.045Y-1.64
X1.045Y-3.69
X1.045Y-4.715
X1.12Y-0.34
X1.22Y-0.34
X1.22Y-0.565
X1.2231Y-0.665
X1.27Y-0.915
X1.27Y-1.015
X1.27Y-1.115
X1.27Y-1.215
X1.27Y-1.415
X1.27Y-1.515
X1.27Y-1.615
X1.27Y-1.715
X1.27Y-1.915
X1.27Y-2.015
X1.27Y-2.115
X1.27Y-2.215
X1.27Y-2.415
X1.27Y-2.515
X1.27Y-2.615
X1.27Y-2.715
X1.27Y-2.915
X1.27Y-3.015
X1.27Y-3.115
X1.27Y-3.215
X1.27Y-3.415
X1.27Y-3.515
X1.27Y-3.615
X1.27Y-3.715
X1.27Y-3.915
X1.27Y-4.015
X1.27Y-4.115
X1.27Y-4.215
X1.27Y-4.415
X1.27Y-4.515
X1.27Y-4.615
X1.27Y-4.715
X1.27Y-4.915
X1.27Y-5.015
X1.27Y-5.115
X1.27Y-5.215
X1.27Y-5.415
X1.27Y-5.515
X1.27Y-5.615
X1.27Y-5.715
X1.32Y-0.565
X1.37Y-0.915
X1.37Y-1.015
X1.37Y-1.115
X1.37Y-1.215
X1.37Y-1.415
X1.37Y-1.515
X1.37Y-1.615
X1.37Y-1.715
X1.37Y-1.915
X1.37Y-2.015
X1.37Y-2.115
X1.37Y-2.215
X1.37Y-2.415
X1.37Y-2.515
X1.37Y-2.615
X1.37Y-2.715
X1.37Y-2.915
X1.37Y-3.015
X1.37Y-3.115
X1.37Y-3.215
X1.37Y-3.415
X1.37Y-3.515
X1.37Y-3.615
X1.37Y-3.715
X1.37Y-3.915
X1.37Y-4.015
X1.37Y-4.115
X1.37Y-4.215
X1.37Y-4.415
X1.37Y-4.515
X1.37Y-4.615
X1.37Y-4.715
X1.37Y-4.915
X1.37Y-5.015
X1.37Y-5.115
X1.37Y-5.215
X1.37Y-5.415
X1.37Y-5.515
X1.37Y-5.615
X1.37Y-5.715
X1.42Y-0.565
X1.42Y-0.665
T5
X0.2Y-5.64
X1.74Y-0.2
T0
M30
