<?xml version="1.0" standalone="no"?>
<!DOCTYPE svg PUBLIC "-//W3C//DTD SVG 1.1//EN"
"http://www.w3.org/Graphics/SVG/1.1/DTD/svg11.dtd">
<svg width="4136.03" height="11996" viewBox="0 0 4136.03 11996" version="1.1"
xmlns="http://www.w3.org/2000/svg"
xmlns:xlink="http://www.w3.org/1999/xlink">
<circle cx="2388.02" cy="10058" r="16" style=""/>
<circle cx="2788.02" cy="10258" r="16" style=""/>
<circle cx="3086.22" cy="10258" r="16" style=""/>
<circle cx="2388.02" cy="11258" r="16" style=""/>
<circle cx="1788.02" cy="9668.02" r="16" style=""/>
<circle cx="1188.02" cy="9358.02" r="16" style=""/>
<circle cx="1788.02" cy="7608.02" r="16" style=""/>
<circle cx="1788.02" cy="5558.02" r="16" style=""/>
<circle cx="1188.02" cy="4958.02" r="16" style=""/>
<circle cx="1188.02" cy="4758.02" r="16" style=""/>
<circle cx="1788.02" cy="3508.02" r="16" style=""/>
<circle cx="2388.02" cy="3058.02" r="16" style=""/>
<circle cx="3108.02" cy="2688.02" r="16" style=""/>
<circle cx="2788.02" cy="2258.02" r="16" style=""/>
<circle cx="2938.02" cy="2058.02" r="16" style=""/>
<circle cx="2388.02" cy="1858.02" r="16" style=""/>
<circle cx="1188.02" cy="708.016" r="16" style=""/>
<circle cx="2088.02" cy="958.016" r="16" style=""/>
<circle cx="2708.02" cy="1258.02" r="16" style=""/>
<circle cx="3688.02" cy="958.016" r="16" style=""/>
<circle cx="3868.82" cy="3193.02" r="16" style=""/>
<circle cx="2638.02" cy="3508.02" r="16" style=""/>
<circle cx="2388.02" cy="3908.02" r="16" style=""/>
<circle cx="2788.02" cy="4308.02" r="16" style=""/>
<circle cx="3088.02" cy="4108.02" r="16" style=""/>
<circle cx="3348.02" cy="4708.02" r="16" style=""/>
<circle cx="2788.02" cy="4708.02" r="16" style=""/>
<circle cx="2388.02" cy="5108.02" r="16" style=""/>
<circle cx="2788.02" cy="5558.02" r="16" style=""/>
<circle cx="2388.02" cy="5958.02" r="16" style=""/>
<circle cx="2788.02" cy="6158.02" r="16" style=""/>
<circle cx="3088.02" cy="6158.02" r="16" style=""/>
<circle cx="3206.22" cy="6768.02" r="16" style=""/>
<circle cx="2788.02" cy="6758.02" r="16" style=""/>
<circle cx="2388.02" cy="7158.02" r="16" style=""/>
<circle cx="2788.02" cy="7608.02" r="16" style=""/>
<circle cx="2388.02" cy="8008.02" r="16" style=""/>
<circle cx="2788.02" cy="8208.02" r="16" style=""/>
<circle cx="3088.02" cy="8208.02" r="16" style=""/>
<circle cx="3248.02" cy="8408.02" r="16" style=""/>
<circle cx="2938.02" cy="8408.02" r="16" style=""/>
<circle cx="2788.02" cy="8808.02" r="16" style=""/>
<circle cx="2388.02" cy="9208.02" r="16" style=""/>
<circle cx="2788.02" cy="9658.02" r="16" style=""/>
<circle cx="3708.02" cy="8808.02" r="16" style=""/>
<circle cx="3908.02" cy="8008.02" r="16" style=""/>
<circle cx="3534.82" cy="2108.02" r="28" style=""/>
<circle cx="3338.02" cy="2108.02" r="28" style=""/>
<circle cx="988.016" cy="11258" r="31" style=""/>
<circle cx="688.016" cy="11258" r="31" style=""/>
<circle cx="688.016" cy="11058" r="31" style=""/>
<circle cx="688.016" cy="10858" r="31" style=""/>
<circle cx="688.016" cy="10658" r="31" style=""/>
<circle cx="688.016" cy="10458" r="31" style=""/>
<circle cx="688.016" cy="10258" r="31" style=""/>
<circle cx="688.016" cy="10058" r="31" style=""/>
<circle cx="688.016" cy="9858.02" r="31" style=""/>
<circle cx="688.016" cy="9658.02" r="31" style=""/>
<circle cx="688.016" cy="9458.02" r="31" style=""/>
<circle cx="688.016" cy="9258.02" r="31" style=""/>
<circle cx="688.016" cy="9058.02" r="31" style=""/>
<circle cx="688.016" cy="8858.02" r="31" style=""/>
<circle cx="688.016" cy="8658.02" r="31" style=""/>
<circle cx="688.016" cy="8458.02" r="31" style=""/>
<circle cx="688.016" cy="8258.02" r="31" style=""/>
<circle cx="688.016" cy="8058.02" r="31" style=""/>
<circle cx="688.016" cy="7858.02" r="31" style=""/>
<circle cx="688.016" cy="7658.02" r="31" style=""/>
<circle cx="688.016" cy="7458.02" r="31" style=""/>
<circle cx="988.016" cy="7458.02" r="31" style=""/>
<circle cx="988.016" cy="7658.02" r="31" style=""/>
<circle cx="988.016" cy="7858.02" r="31" style=""/>
<circle cx="988.016" cy="8058.02" r="31" style=""/>
<circle cx="988.016" cy="8258.02" r="31" style=""/>
<circle cx="988.016" cy="8458.02" r="31" style=""/>
<circle cx="988.016" cy="8658.02" r="31" style=""/>
<circle cx="988.016" cy="8858.02" r="31" style=""/>
<circle cx="988.016" cy="9058.02" r="31" style=""/>
<circle cx="988.016" cy="9258.02" r="31" style=""/>
<circle cx="988.016" cy="9458.02" r="31" style=""/>
<circle cx="988.016" cy="9658.02" r="31" style=""/>
<circle cx="988.016" cy="9858.02" r="31" style=""/>
<circle cx="988.016" cy="10058" r="31" style=""/>
<circle cx="988.016" cy="10258" r="31" style=""/>
<circle cx="988.016" cy="10458" r="31" style=""/>
<circle cx="988.016" cy="10658" r="31" style=""/>
<circle cx="988.016" cy="10858" r="31" style=""/>
<circle cx="988.016" cy="11058" r="31" style=""/>
<circle cx="1988.02" cy="9858.02" r="31" style=""/>
<circle cx="1988.02" cy="10058" r="31" style=""/>
<circle cx="1988.02" cy="10258" r="31" style=""/>
<circle cx="1988.02" cy="10458" r="31" style=""/>
<circle cx="1988.02" cy="10658" r="31" style=""/>
<circle cx="1988.02" cy="10858" r="31" style=""/>
<circle cx="1988.02" cy="11058" r="31" style=""/>
<circle cx="1988.02" cy="11258" r="31" style=""/>
<circle cx="2588.02" cy="11258" r="31" style=""/>
<circle cx="2588.02" cy="11058" r="31" style=""/>
<circle cx="2588.02" cy="10858" r="31" style=""/>
<circle cx="2588.02" cy="10658" r="31" style=""/>
<circle cx="2588.02" cy="10458" r="31" style=""/>
<circle cx="2588.02" cy="10258" r="31" style=""/>
<circle cx="2588.02" cy="10058" r="31" style=""/>
<circle cx="2588.02" cy="9858.02" r="31" style=""/>
<circle cx="2588.02" cy="9208.02" r="31" style=""/>
<circle cx="2588.02" cy="9008.02" r="31" style=""/>
<circle cx="1988.02" cy="9208.02" r="31" style=""/>
<circle cx="1988.02" cy="9008.02" r="31" style=""/>
<circle cx="1988.02" cy="8808.02" r="31" style=""/>
<circle cx="1988.02" cy="8608.02" r="31" style=""/>
<circle cx="1988.02" cy="8408.02" r="31" style=""/>
<circle cx="1988.02" cy="8208.02" r="31" style=""/>
<circle cx="1988.02" cy="8008.02" r="31" style=""/>
<circle cx="1988.02" cy="7808.02" r="31" style=""/>
<circle cx="2588.02" cy="8808.02" r="31" style=""/>
<circle cx="2588.02" cy="8608.02" r="31" style=""/>
<circle cx="2588.02" cy="8408.02" r="31" style=""/>
<circle cx="2588.02" cy="8208.02" r="31" style=""/>
<circle cx="2588.02" cy="8008.02" r="31" style=""/>
<circle cx="2588.02" cy="7808.02" r="31" style=""/>
<circle cx="2588.02" cy="7158.02" r="31" style=""/>
<circle cx="2588.02" cy="6958.02" r="31" style=""/>
<circle cx="2588.02" cy="6758.02" r="31" style=""/>
<circle cx="2588.02" cy="6558.02" r="31" style=""/>
<circle cx="2588.02" cy="6358.02" r="31" style=""/>
<circle cx="2588.02" cy="6158.02" r="31" style=""/>
<circle cx="2588.02" cy="5958.02" r="31" style=""/>
<circle cx="1988.02" cy="6558.02" r="31" style=""/>
<circle cx="1988.02" cy="6758.02" r="31" style=""/>
<circle cx="1988.02" cy="6958.02" r="31" style=""/>
<circle cx="1988.02" cy="7158.02" r="31" style=""/>
<circle cx="988.016" cy="6858.02" r="31" style=""/>
<circle cx="688.016" cy="6858.02" r="31" style=""/>
<circle cx="688.016" cy="6658.02" r="31" style=""/>
<circle cx="688.016" cy="6458.02" r="31" style=""/>
<circle cx="688.016" cy="6258.02" r="31" style=""/>
<circle cx="688.016" cy="6058.02" r="31" style=""/>
<circle cx="688.016" cy="5858.02" r="31" style=""/>
<circle cx="688.016" cy="5658.02" r="31" style=""/>
<circle cx="688.016" cy="5458.02" r="31" style=""/>
<circle cx="688.016" cy="5258.02" r="31" style=""/>
<circle cx="688.016" cy="5058.02" r="31" style=""/>
<circle cx="688.016" cy="4858.02" r="31" style=""/>
<circle cx="688.016" cy="4658.02" r="31" style=""/>
<circle cx="688.016" cy="4458.02" r="31" style=""/>
<circle cx="688.016" cy="4258.02" r="31" style=""/>
<circle cx="688.016" cy="4058.02" r="31" style=""/>
<circle cx="688.016" cy="3858.02" r="31" style=""/>
<circle cx="688.016" cy="3658.02" r="31" style=""/>
<circle cx="688.016" cy="3458.02" r="31" style=""/>
<circle cx="688.016" cy="3258.02" r="31" style=""/>
<circle cx="688.016" cy="3058.02" r="31" style=""/>
<circle cx="688.016" cy="2858.02" r="31" style=""/>
<circle cx="688.016" cy="2658.02" r="31" style=""/>
<circle cx="688.016" cy="2458.02" r="31" style=""/>
<circle cx="688.016" cy="2258.02" r="31" style=""/>
<circle cx="688.016" cy="2058.02" r="31" style=""/>
<circle cx="688.016" cy="1858.02" r="31" style=""/>
<circle cx="688.016" cy="1658.02" r="31" style=""/>
<circle cx="688.016" cy="1458.02" r="31" style=""/>
<circle cx="688.016" cy="1258.02" r="31" style=""/>
<circle cx="688.016" cy="1058.02" r="31" style=""/>
<circle cx="988.016" cy="1058.02" r="31" style=""/>
<circle cx="988.016" cy="1258.02" r="31" style=""/>
<circle cx="988.016" cy="1458.02" r="31" style=""/>
<circle cx="988.016" cy="1658.02" r="31" style=""/>
<circle cx="988.016" cy="1858.02" r="31" style=""/>
<circle cx="988.016" cy="2058.02" r="31" style=""/>
<circle cx="988.016" cy="2258.02" r="31" style=""/>
<circle cx="988.016" cy="2458.02" r="31" style=""/>
<circle cx="988.016" cy="2658.02" r="31" style=""/>
<circle cx="988.016" cy="2858.02" r="31" style=""/>
<circle cx="988.016" cy="3058.02" r="31" style=""/>
<circle cx="988.016" cy="3258.02" r="31" style=""/>
<circle cx="988.016" cy="3458.02" r="31" style=""/>
<circle cx="988.016" cy="3658.02" r="31" style=""/>
<circle cx="988.016" cy="3858.02" r="31" style=""/>
<circle cx="988.016" cy="4058.02" r="31" style=""/>
<circle cx="988.016" cy="4258.02" r="31" style=""/>
<circle cx="988.016" cy="4458.02" r="31" style=""/>
<circle cx="988.016" cy="4658.02" r="31" style=""/>
<circle cx="988.016" cy="4858.02" r="31" style=""/>
<circle cx="988.016" cy="5058.02" r="31" style=""/>
<circle cx="988.016" cy="5258.02" r="31" style=""/>
<circle cx="988.016" cy="5458.02" r="31" style=""/>
<circle cx="988.016" cy="5658.02" r="31" style=""/>
<circle cx="988.016" cy="5858.02" r="31" style=""/>
<circle cx="988.016" cy="6058.02" r="31" style=""/>
<circle cx="988.016" cy="6258.02" r="31" style=""/>
<circle cx="988.016" cy="6458.02" r="31" style=""/>
<circle cx="988.016" cy="6658.02" r="31" style=""/>
<circle cx="1988.02" cy="6358.02" r="31" style=""/>
<circle cx="1988.02" cy="6158.02" r="31" style=""/>
<circle cx="1988.02" cy="5958.02" r="31" style=""/>
<circle cx="1988.02" cy="5758.02" r="31" style=""/>
<circle cx="2588.02" cy="5758.02" r="31" style=""/>
<circle cx="2588.02" cy="5108.02" r="31" style=""/>
<circle cx="2588.02" cy="4908.02" r="31" style=""/>
<circle cx="1988.02" cy="5108.02" r="31" style=""/>
<circle cx="1988.02" cy="4908.02" r="31" style=""/>
<circle cx="1988.02" cy="4708.02" r="31" style=""/>
<circle cx="1988.02" cy="4508.02" r="31" style=""/>
<circle cx="1988.02" cy="4308.02" r="31" style=""/>
<circle cx="1988.02" cy="4108.02" r="31" style=""/>
<circle cx="1988.02" cy="3908.02" r="31" style=""/>
<circle cx="1988.02" cy="3708.02" r="31" style=""/>
<circle cx="2588.02" cy="4708.02" r="31" style=""/>
<circle cx="2588.02" cy="4508.02" r="31" style=""/>
<circle cx="2588.02" cy="4308.02" r="31" style=""/>
<circle cx="2588.02" cy="4108.02" r="31" style=""/>
<circle cx="2588.02" cy="3908.02" r="31" style=""/>
<circle cx="2588.02" cy="3708.02" r="31" style=""/>
<circle cx="2588.02" cy="3058.02" r="31" style=""/>
<circle cx="2588.02" cy="2858.02" r="31" style=""/>
<circle cx="1988.02" cy="3058.02" r="31" style=""/>
<circle cx="1988.02" cy="2858.02" r="31" style=""/>
<circle cx="1988.02" cy="2658.02" r="31" style=""/>
<circle cx="1988.02" cy="2458.02" r="31" style=""/>
<circle cx="1988.02" cy="2258.02" r="31" style=""/>
<circle cx="1988.02" cy="2058.02" r="31" style=""/>
<circle cx="2588.02" cy="2658.02" r="31" style=""/>
<circle cx="2588.02" cy="2458.02" r="31" style=""/>
<circle cx="2588.02" cy="2258.02" r="31" style=""/>
<circle cx="2588.02" cy="2058.02" r="31" style=""/>
<circle cx="2588.02" cy="1858.02" r="31" style=""/>
<circle cx="2588.02" cy="1658.02" r="31" style=""/>
<circle cx="1988.02" cy="1858.02" r="31" style=""/>
<circle cx="1988.02" cy="1658.02" r="31" style=""/>
<circle cx="2488.02" cy="1258.02" r="31" style=""/>
<circle cx="2488.02" cy="658.016" r="31" style=""/>
<circle cx="1388.02" cy="11058" r="39" style=""/>
<circle cx="1388.02" cy="11258" r="39" style=""/>
<circle cx="1388.02" cy="11458" r="39" style=""/>
<circle cx="1588.02" cy="11458" r="39" style=""/>
<circle cx="1588.02" cy="11258" r="39" style=""/>
<circle cx="1588.02" cy="11058" r="39" style=""/>
<circle cx="1588.02" cy="10858" r="39" style=""/>
<circle cx="1388.02" cy="10858" r="39" style=""/>
<circle cx="1388.02" cy="10458" r="39" style=""/>
<circle cx="1588.02" cy="10458" r="39" style=""/>
<circle cx="1588.02" cy="10258" r="39" style=""/>
<circle cx="1388.02" cy="10258" r="39" style=""/>
<circle cx="1388.02" cy="10058" r="39" style=""/>
<circle cx="1588.02" cy="10058" r="39" style=""/>
<circle cx="1588.02" cy="9858.02" r="39" style=""/>
<circle cx="1388.02" cy="9858.02" r="39" style=""/>
<circle cx="1388.02" cy="9458.02" r="39" style=""/>
<circle cx="1588.02" cy="9458.02" r="39" style=""/>
<circle cx="1588.02" cy="9258.02" r="39" style=""/>
<circle cx="1388.02" cy="9258.02" r="39" style=""/>
<circle cx="1388.02" cy="9058.02" r="39" style=""/>
<circle cx="1588.02" cy="9058.02" r="39" style=""/>
<circle cx="1588.02" cy="8858.02" r="39" style=""/>
<circle cx="1388.02" cy="8858.02" r="39" style=""/>
<circle cx="1388.02" cy="8458.02" r="39" style=""/>
<circle cx="1588.02" cy="8458.02" r="39" style=""/>
<circle cx="1588.02" cy="8258.02" r="39" style=""/>
<circle cx="1388.02" cy="8258.02" r="39" style=""/>
<circle cx="1388.02" cy="8058.02" r="39" style=""/>
<circle cx="1588.02" cy="8058.02" r="39" style=""/>
<circle cx="1588.02" cy="7858.02" r="39" style=""/>
<circle cx="1388.02" cy="7858.02" r="39" style=""/>
<circle cx="1388.02" cy="7458.02" r="39" style=""/>
<circle cx="1388.02" cy="7258.02" r="39" style=""/>
<circle cx="1388.02" cy="7058.02" r="39" style=""/>
<circle cx="1388.02" cy="6858.02" r="39" style=""/>
<circle cx="1588.02" cy="6858.02" r="39" style=""/>
<circle cx="1588.02" cy="7058.02" r="39" style=""/>
<circle cx="1588.02" cy="7258.02" r="39" style=""/>
<circle cx="1588.02" cy="7458.02" r="39" style=""/>
<circle cx="2038.02" cy="7408.02" r="39" style=""/>
<circle cx="2431.82" cy="7408.02" r="39" style=""/>
<circle cx="1588.02" cy="6458.02" r="39" style=""/>
<circle cx="1388.02" cy="6458.02" r="39" style=""/>
<circle cx="1388.02" cy="6258.02" r="39" style=""/>
<circle cx="1588.02" cy="6258.02" r="39" style=""/>
<circle cx="1588.02" cy="6058.02" r="39" style=""/>
<circle cx="1388.02" cy="6058.02" r="39" style=""/>
<circle cx="1388.02" cy="5858.02" r="39" style=""/>
<circle cx="1588.02" cy="5858.02" r="39" style=""/>
<circle cx="1388.02" cy="5458.02" r="39" style=""/>
<circle cx="1388.02" cy="5258.02" r="39" style=""/>
<circle cx="1388.02" cy="5058.02" r="39" style=""/>
<circle cx="1388.02" cy="4858.02" r="39" style=""/>
<circle cx="1588.02" cy="4858.02" r="39" style=""/>
<circle cx="1588.02" cy="5058.02" r="39" style=""/>
<circle cx="1588.02" cy="5258.02" r="39" style=""/>
<circle cx="1588.02" cy="5458.02" r="39" style=""/>
<circle cx="2044.22" cy="5358.02" r="39" style=""/>
<circle cx="2438.02" cy="5358.02" r="39" style=""/>
<circle cx="1588.02" cy="4458.02" r="39" style=""/>
<circle cx="1388.02" cy="4458.02" r="39" style=""/>
<circle cx="1388.02" cy="4258.02" r="39" style=""/>
<circle cx="1588.02" cy="4258.02" r="39" style=""/>
<circle cx="1588.02" cy="4058.02" r="39" style=""/>
<circle cx="1388.02" cy="4058.02" r="39" style=""/>
<circle cx="1388.02" cy="3858.02" r="39" style=""/>
<circle cx="1588.02" cy="3858.02" r="39" style=""/>
<circle cx="1388.02" cy="3458.02" r="39" style=""/>
<circle cx="1388.02" cy="3258.02" r="39" style=""/>
<circle cx="1388.02" cy="3058.02" r="39" style=""/>
<circle cx="1388.02" cy="2858.02" r="39" style=""/>
<circle cx="1588.02" cy="2858.02" r="39" style=""/>
<circle cx="1588.02" cy="3058.02" r="39" style=""/>
<circle cx="1588.02" cy="3258.02" r="39" style=""/>
<circle cx="1588.02" cy="3458.02" r="39" style=""/>
<circle cx="2038.02" cy="3308.02" r="39" style=""/>
<circle cx="2431.82" cy="3308.02" r="39" style=""/>
<circle cx="1588.02" cy="2458.02" r="39" style=""/>
<circle cx="1388.02" cy="2458.02" r="39" style=""/>
<circle cx="1388.02" cy="2258.02" r="39" style=""/>
<circle cx="1588.02" cy="2258.02" r="39" style=""/>
<circle cx="1588.02" cy="2058.02" r="39" style=""/>
<circle cx="1388.02" cy="2058.02" r="39" style=""/>
<circle cx="1388.02" cy="1858.02" r="39" style=""/>
<circle cx="1588.02" cy="1858.02" r="39" style=""/>
<circle cx="1288.02" cy="1358.02" r="39" style=""/>
<circle cx="1288.02" cy="1158.02" r="39" style=""/>
<circle cx="1488.02" cy="1158.02" r="39" style=""/>
<circle cx="1681.82" cy="1358.02" r="39" style=""/>
<circle cx="1688.02" cy="1158.02" r="39" style=""/>
<circle cx="1688.02" cy="708.016" r="39" style=""/>
<circle cx="1888.02" cy="708.016" r="39" style=""/>
<circle cx="2088.02" cy="708.016" r="39" style=""/>
<circle cx="2888.02" cy="708.016" r="39" style=""/>
<circle cx="3088.02" cy="708.016" r="39" style=""/>
<circle cx="3288.02" cy="708.016" r="39" style=""/>
<circle cx="3188.02" cy="1258.02" r="39" style=""/>
<circle cx="2938.02" cy="1258.02" r="39" style=""/>
<circle cx="2938.02" cy="1651.82" r="39" style=""/>
<circle cx="3188.02" cy="1651.82" r="39" style=""/>
<circle cx="3538.02" cy="1308.02" r="39" style=""/>
<circle cx="3538.02" cy="1508.02" r="39" style=""/>
<circle cx="3538.02" cy="1708.02" r="39" style=""/>
<circle cx="3538.02" cy="2408.02" r="39" style=""/>
<circle cx="3538.02" cy="2608.02" r="39" style=""/>
<circle cx="3708.02" cy="7608.02" r="39" style=""/>
<circle cx="3708.02" cy="7808.02" r="39" style=""/>
<circle cx="3508.02" cy="7608.02" r="39" style=""/>
<circle cx="3508.02" cy="7808.02" r="39" style=""/>
<circle cx="3508.02" cy="8008.02" r="39" style=""/>
<circle cx="3708.02" cy="8008.02" r="39" style=""/>
<circle cx="3708.02" cy="8208.02" r="39" style=""/>
<circle cx="3708.02" cy="8408.02" r="39" style=""/>
<circle cx="3508.02" cy="8208.02" r="39" style=""/>
<circle cx="3508.02" cy="8408.02" r="39" style=""/>
<circle cx="3708.02" cy="8608.02" r="39" style=""/>
<circle cx="3508.02" cy="8608.02" r="39" style=""/>
<circle cx="2431.82" cy="9458.02" r="39" style=""/>
<circle cx="2038.02" cy="9458.02" r="39" style=""/>
<circle cx="2888.02" cy="10664.2" r="39" style=""/>
<circle cx="2888.02" cy="11058" r="39" style=""/>
</svg>
