<?xml version="1.0" standalone="no"?>
<!DOCTYPE svg PUBLIC "-//W3C//DTD SVG 1.1//EN"
"http://www.w3.org/Graphics/SVG/1.1/DTD/svg11.dtd">
<svg width="3566.58" height="11335.8" viewBox="0 0 3566.58 11335.8" version="1.1"
xmlns="http://www.w3.org/2000/svg"
xmlns:xlink="http://www.w3.org/1999/xlink">
<circle cx="1379.59" cy="9474.87" r="16" style=""/>
<circle cx="779.591" cy="9164.87" r="16" style=""/>
<circle cx="1379.59" cy="7414.87" r="16" style=""/>
<circle cx="1379.59" cy="5364.87" r="16" style=""/>
<circle cx="779.591" cy="4764.87" r="16" style=""/>
<circle cx="779.591" cy="4564.87" r="16" style=""/>
<circle cx="1379.59" cy="3314.87" r="16" style=""/>
<circle cx="1979.59" cy="2864.87" r="16" style=""/>
<circle cx="2699.59" cy="2494.87" r="16" style=""/>
<circle cx="2379.59" cy="2064.87" r="16" style=""/>
<circle cx="2529.59" cy="1864.87" r="16" style=""/>
<circle cx="1979.59" cy="1664.87" r="16" style=""/>
<circle cx="779.591" cy="514.866" r="16" style=""/>
<circle cx="1679.59" cy="764.866" r="16" style=""/>
<circle cx="2299.59" cy="1064.87" r="16" style=""/>
<circle cx="3279.59" cy="764.866" r="16" style=""/>
<circle cx="3460.39" cy="2999.87" r="16" style=""/>
<circle cx="2229.59" cy="3314.87" r="16" style=""/>
<circle cx="1979.59" cy="3714.87" r="16" style=""/>
<circle cx="2379.59" cy="4114.87" r="16" style=""/>
<circle cx="2679.59" cy="3914.87" r="16" style=""/>
<circle cx="2939.59" cy="4514.87" r="16" style=""/>
<circle cx="2379.59" cy="4514.87" r="16" style=""/>
<circle cx="1979.59" cy="4914.87" r="16" style=""/>
<circle cx="2379.59" cy="5364.87" r="16" style=""/>
<circle cx="1979.59" cy="5764.87" r="16" style=""/>
<circle cx="2379.59" cy="5964.87" r="16" style=""/>
<circle cx="2679.59" cy="5964.87" r="16" style=""/>
<circle cx="2797.79" cy="6574.87" r="16" style=""/>
<circle cx="2379.59" cy="6564.87" r="16" style=""/>
<circle cx="1979.59" cy="6964.87" r="16" style=""/>
<circle cx="2379.59" cy="7414.87" r="16" style=""/>
<circle cx="1979.59" cy="7814.87" r="16" style=""/>
<circle cx="2379.59" cy="8014.87" r="16" style=""/>
<circle cx="2679.59" cy="8014.87" r="16" style=""/>
<circle cx="3499.59" cy="7814.87" r="16" style=""/>
<circle cx="3299.59" cy="8614.87" r="16" style=""/>
<circle cx="2839.59" cy="8214.87" r="16" style=""/>
<circle cx="2529.59" cy="8214.87" r="16" style=""/>
<circle cx="2379.59" cy="8614.87" r="16" style=""/>
<circle cx="1979.59" cy="9014.87" r="16" style=""/>
<circle cx="2379.59" cy="9464.87" r="16" style=""/>
<circle cx="1979.59" cy="9864.87" r="16" style=""/>
<circle cx="2379.59" cy="10064.9" r="16" style=""/>
<circle cx="2677.79" cy="10064.9" r="16" style=""/>
<circle cx="1979.59" cy="11064.9" r="16" style=""/>
<circle cx="3126.39" cy="1914.87" r="28" style=""/>
<circle cx="2929.59" cy="1914.87" r="28" style=""/>
<circle cx="279.591" cy="11064.9" r="31" style=""/>
<circle cx="279.591" cy="10864.9" r="31" style=""/>
<circle cx="279.591" cy="10664.9" r="31" style=""/>
<circle cx="279.591" cy="10464.9" r="31" style=""/>
<circle cx="279.591" cy="10264.9" r="31" style=""/>
<circle cx="279.591" cy="10064.9" r="31" style=""/>
<circle cx="279.591" cy="9864.87" r="31" style=""/>
<circle cx="279.591" cy="9664.87" r="31" style=""/>
<circle cx="279.591" cy="9464.87" r="31" style=""/>
<circle cx="279.591" cy="9264.87" r="31" style=""/>
<circle cx="279.591" cy="9064.87" r="31" style=""/>
<circle cx="279.591" cy="8864.87" r="31" style=""/>
<circle cx="279.591" cy="8664.87" r="31" style=""/>
<circle cx="279.591" cy="8464.87" r="31" style=""/>
<circle cx="279.591" cy="8264.87" r="31" style=""/>
<circle cx="279.591" cy="8064.87" r="31" style=""/>
<circle cx="279.591" cy="7864.87" r="31" style=""/>
<circle cx="279.591" cy="7664.87" r="31" style=""/>
<circle cx="279.591" cy="7464.87" r="31" style=""/>
<circle cx="279.591" cy="7264.87" r="31" style=""/>
<circle cx="579.591" cy="7264.87" r="31" style=""/>
<circle cx="579.591" cy="7464.87" r="31" style=""/>
<circle cx="579.591" cy="7664.87" r="31" style=""/>
<circle cx="579.591" cy="7864.87" r="31" style=""/>
<circle cx="579.591" cy="8064.87" r="31" style=""/>
<circle cx="579.591" cy="8264.87" r="31" style=""/>
<circle cx="579.591" cy="8464.87" r="31" style=""/>
<circle cx="579.591" cy="8664.87" r="31" style=""/>
<circle cx="579.591" cy="8864.87" r="31" style=""/>
<circle cx="579.591" cy="9064.87" r="31" style=""/>
<circle cx="579.591" cy="9264.87" r="31" style=""/>
<circle cx="579.591" cy="9464.87" r="31" style=""/>
<circle cx="579.591" cy="9664.87" r="31" style=""/>
<circle cx="579.591" cy="9864.87" r="31" style=""/>
<circle cx="579.591" cy="10064.9" r="31" style=""/>
<circle cx="579.591" cy="10264.9" r="31" style=""/>
<circle cx="579.591" cy="10464.9" r="31" style=""/>
<circle cx="579.591" cy="10664.9" r="31" style=""/>
<circle cx="579.591" cy="10864.9" r="31" style=""/>
<circle cx="579.591" cy="11064.9" r="31" style=""/>
<circle cx="1579.59" cy="10064.9" r="31" style=""/>
<circle cx="1579.59" cy="10264.9" r="31" style=""/>
<circle cx="1579.59" cy="10464.9" r="31" style=""/>
<circle cx="1579.59" cy="10664.9" r="31" style=""/>
<circle cx="1579.59" cy="10864.9" r="31" style=""/>
<circle cx="1579.59" cy="11064.9" r="31" style=""/>
<circle cx="2179.59" cy="11064.9" r="31" style=""/>
<circle cx="2179.59" cy="10864.9" r="31" style=""/>
<circle cx="2179.59" cy="10664.9" r="31" style=""/>
<circle cx="2179.59" cy="10464.9" r="31" style=""/>
<circle cx="2179.59" cy="10264.9" r="31" style=""/>
<circle cx="2179.59" cy="10064.9" r="31" style=""/>
<circle cx="2179.59" cy="9864.87" r="31" style=""/>
<circle cx="2179.59" cy="9664.87" r="31" style=""/>
<circle cx="1579.59" cy="9864.87" r="31" style=""/>
<circle cx="1579.59" cy="9664.87" r="31" style=""/>
<circle cx="1579.59" cy="9014.87" r="31" style=""/>
<circle cx="1579.59" cy="8814.87" r="31" style=""/>
<circle cx="1579.59" cy="8614.87" r="31" style=""/>
<circle cx="1579.59" cy="8414.87" r="31" style=""/>
<circle cx="2179.59" cy="9014.87" r="31" style=""/>
<circle cx="2179.59" cy="8814.87" r="31" style=""/>
<circle cx="2179.59" cy="8614.87" r="31" style=""/>
<circle cx="2179.59" cy="8414.87" r="31" style=""/>
<circle cx="2179.59" cy="8214.87" r="31" style=""/>
<circle cx="2179.59" cy="8014.87" r="31" style=""/>
<circle cx="1579.59" cy="8214.87" r="31" style=""/>
<circle cx="1579.59" cy="8014.87" r="31" style=""/>
<circle cx="1579.59" cy="7814.87" r="31" style=""/>
<circle cx="1579.59" cy="7614.87" r="31" style=""/>
<circle cx="2179.59" cy="7814.87" r="31" style=""/>
<circle cx="2179.59" cy="7614.87" r="31" style=""/>
<circle cx="2179.59" cy="6964.87" r="31" style=""/>
<circle cx="2179.59" cy="6764.87" r="31" style=""/>
<circle cx="2179.59" cy="6564.87" r="31" style=""/>
<circle cx="2179.59" cy="6364.87" r="31" style=""/>
<circle cx="2179.59" cy="6164.87" r="31" style=""/>
<circle cx="2179.59" cy="5964.87" r="31" style=""/>
<circle cx="2179.59" cy="5764.87" r="31" style=""/>
<circle cx="1579.59" cy="6364.87" r="31" style=""/>
<circle cx="1579.59" cy="6564.87" r="31" style=""/>
<circle cx="1579.59" cy="6764.87" r="31" style=""/>
<circle cx="1579.59" cy="6964.87" r="31" style=""/>
<circle cx="579.591" cy="6664.87" r="31" style=""/>
<circle cx="279.591" cy="6664.87" r="31" style=""/>
<circle cx="279.591" cy="6464.87" r="31" style=""/>
<circle cx="279.591" cy="6264.87" r="31" style=""/>
<circle cx="279.591" cy="6064.87" r="31" style=""/>
<circle cx="279.591" cy="5864.87" r="31" style=""/>
<circle cx="279.591" cy="5664.87" r="31" style=""/>
<circle cx="279.591" cy="5464.87" r="31" style=""/>
<circle cx="279.591" cy="5264.87" r="31" style=""/>
<circle cx="279.591" cy="5064.87" r="31" style=""/>
<circle cx="279.591" cy="4864.87" r="31" style=""/>
<circle cx="279.591" cy="4664.87" r="31" style=""/>
<circle cx="279.591" cy="4464.87" r="31" style=""/>
<circle cx="279.591" cy="4264.87" r="31" style=""/>
<circle cx="279.591" cy="4064.87" r="31" style=""/>
<circle cx="279.591" cy="3864.87" r="31" style=""/>
<circle cx="279.591" cy="3664.87" r="31" style=""/>
<circle cx="279.591" cy="3464.87" r="31" style=""/>
<circle cx="279.591" cy="3264.87" r="31" style=""/>
<circle cx="279.591" cy="3064.87" r="31" style=""/>
<circle cx="279.591" cy="2864.87" r="31" style=""/>
<circle cx="279.591" cy="2664.87" r="31" style=""/>
<circle cx="279.591" cy="2464.87" r="31" style=""/>
<circle cx="279.591" cy="2264.87" r="31" style=""/>
<circle cx="279.591" cy="2064.87" r="31" style=""/>
<circle cx="279.591" cy="1864.87" r="31" style=""/>
<circle cx="279.591" cy="1664.87" r="31" style=""/>
<circle cx="279.591" cy="1464.87" r="31" style=""/>
<circle cx="279.591" cy="1264.87" r="31" style=""/>
<circle cx="279.591" cy="1064.87" r="31" style=""/>
<circle cx="279.591" cy="864.866" r="31" style=""/>
<circle cx="579.591" cy="864.866" r="31" style=""/>
<circle cx="579.591" cy="1064.87" r="31" style=""/>
<circle cx="579.591" cy="1264.87" r="31" style=""/>
<circle cx="579.591" cy="1464.87" r="31" style=""/>
<circle cx="579.591" cy="1664.87" r="31" style=""/>
<circle cx="579.591" cy="1864.87" r="31" style=""/>
<circle cx="579.591" cy="2064.87" r="31" style=""/>
<circle cx="579.591" cy="2264.87" r="31" style=""/>
<circle cx="579.591" cy="2464.87" r="31" style=""/>
<circle cx="579.591" cy="2664.87" r="31" style=""/>
<circle cx="579.591" cy="2864.87" r="31" style=""/>
<circle cx="579.591" cy="3064.87" r="31" style=""/>
<circle cx="579.591" cy="3264.87" r="31" style=""/>
<circle cx="579.591" cy="3464.87" r="31" style=""/>
<circle cx="579.591" cy="3664.87" r="31" style=""/>
<circle cx="579.591" cy="3864.87" r="31" style=""/>
<circle cx="579.591" cy="4064.87" r="31" style=""/>
<circle cx="579.591" cy="4264.87" r="31" style=""/>
<circle cx="579.591" cy="4464.87" r="31" style=""/>
<circle cx="579.591" cy="4664.87" r="31" style=""/>
<circle cx="579.591" cy="4864.87" r="31" style=""/>
<circle cx="579.591" cy="5064.87" r="31" style=""/>
<circle cx="579.591" cy="5264.87" r="31" style=""/>
<circle cx="579.591" cy="5464.87" r="31" style=""/>
<circle cx="579.591" cy="5664.87" r="31" style=""/>
<circle cx="579.591" cy="5864.87" r="31" style=""/>
<circle cx="579.591" cy="6064.87" r="31" style=""/>
<circle cx="579.591" cy="6264.87" r="31" style=""/>
<circle cx="579.591" cy="6464.87" r="31" style=""/>
<circle cx="1579.59" cy="6164.87" r="31" style=""/>
<circle cx="1579.59" cy="5964.87" r="31" style=""/>
<circle cx="1579.59" cy="5764.87" r="31" style=""/>
<circle cx="1579.59" cy="5564.87" r="31" style=""/>
<circle cx="2179.59" cy="5564.87" r="31" style=""/>
<circle cx="2179.59" cy="4914.87" r="31" style=""/>
<circle cx="2179.59" cy="4714.87" r="31" style=""/>
<circle cx="1579.59" cy="4914.87" r="31" style=""/>
<circle cx="1579.59" cy="4714.87" r="31" style=""/>
<circle cx="1579.59" cy="4514.87" r="31" style=""/>
<circle cx="1579.59" cy="4314.87" r="31" style=""/>
<circle cx="1579.59" cy="4114.87" r="31" style=""/>
<circle cx="1579.59" cy="3914.87" r="31" style=""/>
<circle cx="1579.59" cy="3714.87" r="31" style=""/>
<circle cx="1579.59" cy="3514.87" r="31" style=""/>
<circle cx="2179.59" cy="4514.87" r="31" style=""/>
<circle cx="2179.59" cy="4314.87" r="31" style=""/>
<circle cx="2179.59" cy="4114.87" r="31" style=""/>
<circle cx="2179.59" cy="3914.87" r="31" style=""/>
<circle cx="2179.59" cy="3714.87" r="31" style=""/>
<circle cx="2179.59" cy="3514.87" r="31" style=""/>
<circle cx="2179.59" cy="2864.87" r="31" style=""/>
<circle cx="2179.59" cy="2664.87" r="31" style=""/>
<circle cx="1579.59" cy="2864.87" r="31" style=""/>
<circle cx="1579.59" cy="2664.87" r="31" style=""/>
<circle cx="1579.59" cy="2464.87" r="31" style=""/>
<circle cx="1579.59" cy="2264.87" r="31" style=""/>
<circle cx="1579.59" cy="2064.87" r="31" style=""/>
<circle cx="1579.59" cy="1864.87" r="31" style=""/>
<circle cx="2179.59" cy="2464.87" r="31" style=""/>
<circle cx="2179.59" cy="2264.87" r="31" style=""/>
<circle cx="2179.59" cy="2064.87" r="31" style=""/>
<circle cx="2179.59" cy="1864.87" r="31" style=""/>
<circle cx="2179.59" cy="1664.87" r="31" style=""/>
<circle cx="2179.59" cy="1464.87" r="31" style=""/>
<circle cx="1579.59" cy="1664.87" r="31" style=""/>
<circle cx="1579.59" cy="1464.87" r="31" style=""/>
<circle cx="2079.59" cy="1064.87" r="31" style=""/>
<circle cx="2079.59" cy="464.866" r="31" style=""/>
<circle cx="979.591" cy="10664.9" r="39" style=""/>
<circle cx="979.591" cy="10864.9" r="39" style=""/>
<circle cx="979.591" cy="11064.9" r="39" style=""/>
<circle cx="979.591" cy="11264.9" r="39" style=""/>
<circle cx="1179.59" cy="11264.9" r="39" style=""/>
<circle cx="1179.59" cy="11064.9" r="39" style=""/>
<circle cx="1179.59" cy="10864.9" r="39" style=""/>
<circle cx="1179.59" cy="10664.9" r="39" style=""/>
<circle cx="1179.59" cy="10264.9" r="39" style=""/>
<circle cx="979.591" cy="10264.9" r="39" style=""/>
<circle cx="979.591" cy="10064.9" r="39" style=""/>
<circle cx="1179.59" cy="10064.9" r="39" style=""/>
<circle cx="1179.59" cy="9864.87" r="39" style=""/>
<circle cx="979.591" cy="9864.87" r="39" style=""/>
<circle cx="979.591" cy="9664.87" r="39" style=""/>
<circle cx="1179.59" cy="9664.87" r="39" style=""/>
<circle cx="1179.59" cy="9264.87" r="39" style=""/>
<circle cx="979.591" cy="9264.87" r="39" style=""/>
<circle cx="979.591" cy="9064.87" r="39" style=""/>
<circle cx="1179.59" cy="9064.87" r="39" style=""/>
<circle cx="1179.59" cy="8864.87" r="39" style=""/>
<circle cx="979.591" cy="8864.87" r="39" style=""/>
<circle cx="979.591" cy="8664.87" r="39" style=""/>
<circle cx="1179.59" cy="8664.87" r="39" style=""/>
<circle cx="1179.59" cy="8264.87" r="39" style=""/>
<circle cx="979.591" cy="8264.87" r="39" style=""/>
<circle cx="979.591" cy="8064.87" r="39" style=""/>
<circle cx="1179.59" cy="8064.87" r="39" style=""/>
<circle cx="1179.59" cy="7864.87" r="39" style=""/>
<circle cx="979.591" cy="7864.87" r="39" style=""/>
<circle cx="979.591" cy="7664.87" r="39" style=""/>
<circle cx="1179.59" cy="7664.87" r="39" style=""/>
<circle cx="979.591" cy="7264.87" r="39" style=""/>
<circle cx="979.591" cy="7064.87" r="39" style=""/>
<circle cx="979.591" cy="6864.87" r="39" style=""/>
<circle cx="979.591" cy="6664.87" r="39" style=""/>
<circle cx="1179.59" cy="6664.87" r="39" style=""/>
<circle cx="1179.59" cy="6864.87" r="39" style=""/>
<circle cx="1179.59" cy="7064.87" r="39" style=""/>
<circle cx="1179.59" cy="7264.87" r="39" style=""/>
<circle cx="1629.59" cy="7214.87" r="39" style=""/>
<circle cx="2023.39" cy="7214.87" r="39" style=""/>
<circle cx="1179.59" cy="6264.87" r="39" style=""/>
<circle cx="979.591" cy="6264.87" r="39" style=""/>
<circle cx="979.591" cy="6064.87" r="39" style=""/>
<circle cx="1179.59" cy="6064.87" r="39" style=""/>
<circle cx="1179.59" cy="5864.87" r="39" style=""/>
<circle cx="979.591" cy="5864.87" r="39" style=""/>
<circle cx="979.591" cy="5664.87" r="39" style=""/>
<circle cx="1179.59" cy="5664.87" r="39" style=""/>
<circle cx="979.591" cy="5264.87" r="39" style=""/>
<circle cx="979.591" cy="5064.87" r="39" style=""/>
<circle cx="979.591" cy="4864.87" r="39" style=""/>
<circle cx="979.591" cy="4664.87" r="39" style=""/>
<circle cx="1179.59" cy="4664.87" r="39" style=""/>
<circle cx="1179.59" cy="4864.87" r="39" style=""/>
<circle cx="1179.59" cy="5064.87" r="39" style=""/>
<circle cx="1179.59" cy="5264.87" r="39" style=""/>
<circle cx="1635.79" cy="5164.87" r="39" style=""/>
<circle cx="2029.59" cy="5164.87" r="39" style=""/>
<circle cx="1179.59" cy="4264.87" r="39" style=""/>
<circle cx="979.591" cy="4264.87" r="39" style=""/>
<circle cx="979.591" cy="4064.87" r="39" style=""/>
<circle cx="1179.59" cy="4064.87" r="39" style=""/>
<circle cx="1179.59" cy="3864.87" r="39" style=""/>
<circle cx="979.591" cy="3864.87" r="39" style=""/>
<circle cx="979.591" cy="3664.87" r="39" style=""/>
<circle cx="1179.59" cy="3664.87" r="39" style=""/>
<circle cx="979.591" cy="3264.87" r="39" style=""/>
<circle cx="979.591" cy="3064.87" r="39" style=""/>
<circle cx="979.591" cy="2864.87" r="39" style=""/>
<circle cx="979.591" cy="2664.87" r="39" style=""/>
<circle cx="1179.59" cy="2664.87" r="39" style=""/>
<circle cx="1179.59" cy="2864.87" r="39" style=""/>
<circle cx="1179.59" cy="3064.87" r="39" style=""/>
<circle cx="1179.59" cy="3264.87" r="39" style=""/>
<circle cx="1629.59" cy="3114.87" r="39" style=""/>
<circle cx="2023.39" cy="3114.87" r="39" style=""/>
<circle cx="1179.59" cy="2264.87" r="39" style=""/>
<circle cx="979.591" cy="2264.87" r="39" style=""/>
<circle cx="979.591" cy="2064.87" r="39" style=""/>
<circle cx="1179.59" cy="2064.87" r="39" style=""/>
<circle cx="1179.59" cy="1864.87" r="39" style=""/>
<circle cx="979.591" cy="1864.87" r="39" style=""/>
<circle cx="979.591" cy="1664.87" r="39" style=""/>
<circle cx="1179.59" cy="1664.87" r="39" style=""/>
<circle cx="879.591" cy="1164.87" r="39" style=""/>
<circle cx="879.591" cy="964.866" r="39" style=""/>
<circle cx="1079.59" cy="964.866" r="39" style=""/>
<circle cx="1273.39" cy="1164.87" r="39" style=""/>
<circle cx="1279.59" cy="964.866" r="39" style=""/>
<circle cx="1279.59" cy="514.866" r="39" style=""/>
<circle cx="1479.59" cy="514.866" r="39" style=""/>
<circle cx="1679.59" cy="514.866" r="39" style=""/>
<circle cx="2479.59" cy="514.866" r="39" style=""/>
<circle cx="2679.59" cy="514.866" r="39" style=""/>
<circle cx="2879.59" cy="514.866" r="39" style=""/>
<circle cx="2779.59" cy="1064.87" r="39" style=""/>
<circle cx="2529.59" cy="1064.87" r="39" style=""/>
<circle cx="2529.59" cy="1458.67" r="39" style=""/>
<circle cx="2779.59" cy="1458.67" r="39" style=""/>
<circle cx="3129.59" cy="1114.87" r="39" style=""/>
<circle cx="3129.59" cy="1314.87" r="39" style=""/>
<circle cx="3129.59" cy="1514.87" r="39" style=""/>
<circle cx="3129.59" cy="2214.87" r="39" style=""/>
<circle cx="3129.59" cy="2414.87" r="39" style=""/>
<circle cx="3299.59" cy="7414.87" r="39" style=""/>
<circle cx="3299.59" cy="7614.87" r="39" style=""/>
<circle cx="3099.59" cy="7414.87" r="39" style=""/>
<circle cx="3099.59" cy="7614.87" r="39" style=""/>
<circle cx="3099.59" cy="7814.87" r="39" style=""/>
<circle cx="3299.59" cy="7814.87" r="39" style=""/>
<circle cx="3299.59" cy="8014.87" r="39" style=""/>
<circle cx="3299.59" cy="8214.87" r="39" style=""/>
<circle cx="3099.59" cy="8014.87" r="39" style=""/>
<circle cx="3099.59" cy="8214.87" r="39" style=""/>
<circle cx="3299.59" cy="8414.87" r="39" style=""/>
<circle cx="3099.59" cy="8414.87" r="39" style=""/>
<circle cx="2023.39" cy="9264.87" r="39" style=""/>
<circle cx="1629.59" cy="9264.87" r="39" style=""/>
<circle cx="2479.59" cy="10471.1" r="39" style=""/>
<circle cx="2479.59" cy="10864.9" r="39" style=""/>
</svg>
