<?xml version="1.0" standalone="no"?>
<!DOCTYPE svg PUBLIC "-//W3C//DTD SVG 1.1//EN"
"http://www.w3.org/Graphics/SVG/1.1/DTD/svg11.dtd">
<svg width="4136.03" height="11936" viewBox="0 0 4136.03 11936" version="1.1"
xmlns="http://www.w3.org/2000/svg"
xmlns:xlink="http://www.w3.org/1999/xlink">
<circle cx="2268.02" cy="10158" r="16" style=""/>
<circle cx="1668.02" cy="9768.02" r="16" style=""/>
<circle cx="1068.02" cy="9458.02" r="16" style=""/>
<circle cx="1668.02" cy="7708.02" r="16" style=""/>
<circle cx="1668.02" cy="5658.02" r="16" style=""/>
<circle cx="1068.02" cy="5058.02" r="16" style=""/>
<circle cx="1068.02" cy="4858.02" r="16" style=""/>
<circle cx="1668.02" cy="3608.02" r="16" style=""/>
<circle cx="2268.02" cy="3158.02" r="16" style=""/>
<circle cx="2668.02" cy="2358.02" r="16" style=""/>
<circle cx="2818.02" cy="2158.02" r="16" style=""/>
<circle cx="2268.02" cy="1958.02" r="16" style=""/>
<circle cx="1068.02" cy="808.016" r="16" style=""/>
<circle cx="1968.02" cy="1058.02" r="16" style=""/>
<circle cx="2588.02" cy="1358.02" r="16" style=""/>
<circle cx="3568.02" cy="1058.02" r="16" style=""/>
<circle cx="2988.02" cy="2788.02" r="16" style=""/>
<circle cx="2518.02" cy="3608.02" r="16" style=""/>
<circle cx="2268.02" cy="4008.02" r="16" style=""/>
<circle cx="2668.02" cy="4408.02" r="16" style=""/>
<circle cx="2968.02" cy="4208.02" r="16" style=""/>
<circle cx="3228.02" cy="4808.02" r="16" style=""/>
<circle cx="2668.02" cy="4808.02" r="16" style=""/>
<circle cx="2268.02" cy="5208.02" r="16" style=""/>
<circle cx="2668.02" cy="5658.02" r="16" style=""/>
<circle cx="2268.02" cy="6058.02" r="16" style=""/>
<circle cx="2668.02" cy="6258.02" r="16" style=""/>
<circle cx="2968.02" cy="6258.02" r="16" style=""/>
<circle cx="3086.22" cy="6868.02" r="16" style=""/>
<circle cx="2668.02" cy="6858.02" r="16" style=""/>
<circle cx="2268.02" cy="7258.02" r="16" style=""/>
<circle cx="2668.02" cy="7708.02" r="16" style=""/>
<circle cx="2268.02" cy="8108.02" r="16" style=""/>
<circle cx="2668.02" cy="8308.02" r="16" style=""/>
<circle cx="2968.02" cy="8308.02" r="16" style=""/>
<circle cx="3128.02" cy="8508.02" r="16" style=""/>
<circle cx="3588.02" cy="8908.02" r="16" style=""/>
<circle cx="2818.02" cy="8508.02" r="16" style=""/>
<circle cx="2668.02" cy="8908.02" r="16" style=""/>
<circle cx="2268.02" cy="9308.02" r="16" style=""/>
<circle cx="2668.02" cy="9758.02" r="16" style=""/>
<circle cx="2966.22" cy="10358" r="16" style=""/>
<circle cx="2668.02" cy="10358" r="16" style=""/>
<circle cx="2268.02" cy="11358" r="16" style=""/>
<circle cx="3414.82" cy="2208.02" r="28" style=""/>
<circle cx="3218.02" cy="2208.02" r="28" style=""/>
<circle cx="568.016" cy="11358" r="31" style=""/>
<circle cx="568.016" cy="11158" r="31" style=""/>
<circle cx="568.016" cy="10958" r="31" style=""/>
<circle cx="568.016" cy="10758" r="31" style=""/>
<circle cx="568.016" cy="10558" r="31" style=""/>
<circle cx="568.016" cy="10358" r="31" style=""/>
<circle cx="568.016" cy="10158" r="31" style=""/>
<circle cx="568.016" cy="9958.02" r="31" style=""/>
<circle cx="568.016" cy="9758.02" r="31" style=""/>
<circle cx="568.016" cy="9558.02" r="31" style=""/>
<circle cx="568.016" cy="9358.02" r="31" style=""/>
<circle cx="568.016" cy="9158.02" r="31" style=""/>
<circle cx="568.016" cy="8958.02" r="31" style=""/>
<circle cx="568.016" cy="8758.02" r="31" style=""/>
<circle cx="568.016" cy="8558.02" r="31" style=""/>
<circle cx="568.016" cy="8358.02" r="31" style=""/>
<circle cx="568.016" cy="8158.02" r="31" style=""/>
<circle cx="568.016" cy="7958.02" r="31" style=""/>
<circle cx="568.016" cy="7758.02" r="31" style=""/>
<circle cx="568.016" cy="7558.02" r="31" style=""/>
<circle cx="868.016" cy="7558.02" r="31" style=""/>
<circle cx="868.016" cy="7758.02" r="31" style=""/>
<circle cx="868.016" cy="7958.02" r="31" style=""/>
<circle cx="868.016" cy="8158.02" r="31" style=""/>
<circle cx="868.016" cy="8358.02" r="31" style=""/>
<circle cx="868.016" cy="8558.02" r="31" style=""/>
<circle cx="868.016" cy="8758.02" r="31" style=""/>
<circle cx="868.016" cy="8958.02" r="31" style=""/>
<circle cx="868.016" cy="9158.02" r="31" style=""/>
<circle cx="868.016" cy="9358.02" r="31" style=""/>
<circle cx="868.016" cy="9558.02" r="31" style=""/>
<circle cx="868.016" cy="9758.02" r="31" style=""/>
<circle cx="868.016" cy="9958.02" r="31" style=""/>
<circle cx="868.016" cy="10158" r="31" style=""/>
<circle cx="868.016" cy="10358" r="31" style=""/>
<circle cx="868.016" cy="10558" r="31" style=""/>
<circle cx="868.016" cy="10758" r="31" style=""/>
<circle cx="868.016" cy="10958" r="31" style=""/>
<circle cx="868.016" cy="11158" r="31" style=""/>
<circle cx="868.016" cy="11358" r="31" style=""/>
<circle cx="1868.02" cy="10358" r="31" style=""/>
<circle cx="1868.02" cy="10558" r="31" style=""/>
<circle cx="1868.02" cy="10758" r="31" style=""/>
<circle cx="1868.02" cy="10958" r="31" style=""/>
<circle cx="1868.02" cy="11158" r="31" style=""/>
<circle cx="1868.02" cy="11358" r="31" style=""/>
<circle cx="2468.02" cy="11358" r="31" style=""/>
<circle cx="2468.02" cy="11158" r="31" style=""/>
<circle cx="2468.02" cy="10958" r="31" style=""/>
<circle cx="2468.02" cy="10758" r="31" style=""/>
<circle cx="2468.02" cy="10558" r="31" style=""/>
<circle cx="2468.02" cy="10358" r="31" style=""/>
<circle cx="2468.02" cy="10158" r="31" style=""/>
<circle cx="2468.02" cy="9958.02" r="31" style=""/>
<circle cx="1868.02" cy="10158" r="31" style=""/>
<circle cx="1868.02" cy="9958.02" r="31" style=""/>
<circle cx="1868.02" cy="9308.02" r="31" style=""/>
<circle cx="1868.02" cy="9108.02" r="31" style=""/>
<circle cx="1868.02" cy="8908.02" r="31" style=""/>
<circle cx="1868.02" cy="8708.02" r="31" style=""/>
<circle cx="2468.02" cy="9308.02" r="31" style=""/>
<circle cx="2468.02" cy="9108.02" r="31" style=""/>
<circle cx="2468.02" cy="8908.02" r="31" style=""/>
<circle cx="2468.02" cy="8708.02" r="31" style=""/>
<circle cx="2468.02" cy="8508.02" r="31" style=""/>
<circle cx="2468.02" cy="8308.02" r="31" style=""/>
<circle cx="1868.02" cy="8508.02" r="31" style=""/>
<circle cx="1868.02" cy="8308.02" r="31" style=""/>
<circle cx="1868.02" cy="8108.02" r="31" style=""/>
<circle cx="1868.02" cy="7908.02" r="31" style=""/>
<circle cx="2468.02" cy="8108.02" r="31" style=""/>
<circle cx="2468.02" cy="7908.02" r="31" style=""/>
<circle cx="2468.02" cy="7258.02" r="31" style=""/>
<circle cx="2468.02" cy="7058.02" r="31" style=""/>
<circle cx="2468.02" cy="6858.02" r="31" style=""/>
<circle cx="2468.02" cy="6658.02" r="31" style=""/>
<circle cx="2468.02" cy="6458.02" r="31" style=""/>
<circle cx="2468.02" cy="6258.02" r="31" style=""/>
<circle cx="2468.02" cy="6058.02" r="31" style=""/>
<circle cx="2468.02" cy="5858.02" r="31" style=""/>
<circle cx="1868.02" cy="5858.02" r="31" style=""/>
<circle cx="1868.02" cy="6058.02" r="31" style=""/>
<circle cx="1868.02" cy="6258.02" r="31" style=""/>
<circle cx="1868.02" cy="6458.02" r="31" style=""/>
<circle cx="1868.02" cy="6658.02" r="31" style=""/>
<circle cx="1868.02" cy="6858.02" r="31" style=""/>
<circle cx="1868.02" cy="7058.02" r="31" style=""/>
<circle cx="1868.02" cy="7258.02" r="31" style=""/>
<circle cx="868.016" cy="6958.02" r="31" style=""/>
<circle cx="568.016" cy="6958.02" r="31" style=""/>
<circle cx="868.016" cy="6758.02" r="31" style=""/>
<circle cx="868.016" cy="6558.02" r="31" style=""/>
<circle cx="868.016" cy="6358.02" r="31" style=""/>
<circle cx="568.016" cy="6758.02" r="31" style=""/>
<circle cx="568.016" cy="6558.02" r="31" style=""/>
<circle cx="568.016" cy="6358.02" r="31" style=""/>
<circle cx="568.016" cy="6158.02" r="31" style=""/>
<circle cx="568.016" cy="5958.02" r="31" style=""/>
<circle cx="568.016" cy="5758.02" r="31" style=""/>
<circle cx="568.016" cy="5558.02" r="31" style=""/>
<circle cx="568.016" cy="5358.02" r="31" style=""/>
<circle cx="568.016" cy="5158.02" r="31" style=""/>
<circle cx="568.016" cy="4958.02" r="31" style=""/>
<circle cx="568.016" cy="4758.02" r="31" style=""/>
<circle cx="568.016" cy="4558.02" r="31" style=""/>
<circle cx="568.016" cy="4358.02" r="31" style=""/>
<circle cx="568.016" cy="4158.02" r="31" style=""/>
<circle cx="568.016" cy="3958.02" r="31" style=""/>
<circle cx="568.016" cy="3758.02" r="31" style=""/>
<circle cx="568.016" cy="3558.02" r="31" style=""/>
<circle cx="568.016" cy="3358.02" r="31" style=""/>
<circle cx="568.016" cy="3158.02" r="31" style=""/>
<circle cx="568.016" cy="2958.02" r="31" style=""/>
<circle cx="568.016" cy="2758.02" r="31" style=""/>
<circle cx="568.016" cy="2558.02" r="31" style=""/>
<circle cx="568.016" cy="2358.02" r="31" style=""/>
<circle cx="568.016" cy="2158.02" r="31" style=""/>
<circle cx="568.016" cy="1958.02" r="31" style=""/>
<circle cx="568.016" cy="1758.02" r="31" style=""/>
<circle cx="568.016" cy="1558.02" r="31" style=""/>
<circle cx="568.016" cy="1358.02" r="31" style=""/>
<circle cx="568.016" cy="1158.02" r="31" style=""/>
<circle cx="868.016" cy="1158.02" r="31" style=""/>
<circle cx="868.016" cy="1358.02" r="31" style=""/>
<circle cx="868.016" cy="1558.02" r="31" style=""/>
<circle cx="868.016" cy="1758.02" r="31" style=""/>
<circle cx="868.016" cy="1958.02" r="31" style=""/>
<circle cx="868.016" cy="2158.02" r="31" style=""/>
<circle cx="868.016" cy="2358.02" r="31" style=""/>
<circle cx="868.016" cy="2558.02" r="31" style=""/>
<circle cx="868.016" cy="2758.02" r="31" style=""/>
<circle cx="868.016" cy="2958.02" r="31" style=""/>
<circle cx="868.016" cy="3158.02" r="31" style=""/>
<circle cx="868.016" cy="3358.02" r="31" style=""/>
<circle cx="868.016" cy="3558.02" r="31" style=""/>
<circle cx="868.016" cy="3758.02" r="31" style=""/>
<circle cx="868.016" cy="3958.02" r="31" style=""/>
<circle cx="868.016" cy="4158.02" r="31" style=""/>
<circle cx="868.016" cy="4358.02" r="31" style=""/>
<circle cx="868.016" cy="4558.02" r="31" style=""/>
<circle cx="868.016" cy="4758.02" r="31" style=""/>
<circle cx="868.016" cy="4958.02" r="31" style=""/>
<circle cx="868.016" cy="5158.02" r="31" style=""/>
<circle cx="868.016" cy="5358.02" r="31" style=""/>
<circle cx="868.016" cy="5558.02" r="31" style=""/>
<circle cx="868.016" cy="5758.02" r="31" style=""/>
<circle cx="868.016" cy="5958.02" r="31" style=""/>
<circle cx="868.016" cy="6158.02" r="31" style=""/>
<circle cx="1868.02" cy="5208.02" r="31" style=""/>
<circle cx="1868.02" cy="5008.02" r="31" style=""/>
<circle cx="1868.02" cy="4808.02" r="31" style=""/>
<circle cx="1868.02" cy="4608.02" r="31" style=""/>
<circle cx="2468.02" cy="5208.02" r="31" style=""/>
<circle cx="2468.02" cy="5008.02" r="31" style=""/>
<circle cx="2468.02" cy="4808.02" r="31" style=""/>
<circle cx="2468.02" cy="4608.02" r="31" style=""/>
<circle cx="2468.02" cy="4408.02" r="31" style=""/>
<circle cx="2468.02" cy="4208.02" r="31" style=""/>
<circle cx="1868.02" cy="4408.02" r="31" style=""/>
<circle cx="1868.02" cy="4208.02" r="31" style=""/>
<circle cx="1868.02" cy="4008.02" r="31" style=""/>
<circle cx="1868.02" cy="3808.02" r="31" style=""/>
<circle cx="2468.02" cy="4008.02" r="31" style=""/>
<circle cx="2468.02" cy="3808.02" r="31" style=""/>
<circle cx="2468.02" cy="3158.02" r="31" style=""/>
<circle cx="2468.02" cy="2958.02" r="31" style=""/>
<circle cx="1868.02" cy="3158.02" r="31" style=""/>
<circle cx="1868.02" cy="2958.02" r="31" style=""/>
<circle cx="1868.02" cy="2758.02" r="31" style=""/>
<circle cx="1868.02" cy="2558.02" r="31" style=""/>
<circle cx="1868.02" cy="2358.02" r="31" style=""/>
<circle cx="1868.02" cy="2158.02" r="31" style=""/>
<circle cx="2468.02" cy="2758.02" r="31" style=""/>
<circle cx="2468.02" cy="2558.02" r="31" style=""/>
<circle cx="2468.02" cy="2358.02" r="31" style=""/>
<circle cx="2468.02" cy="2158.02" r="31" style=""/>
<circle cx="2468.02" cy="1958.02" r="31" style=""/>
<circle cx="2468.02" cy="1758.02" r="31" style=""/>
<circle cx="1868.02" cy="1958.02" r="31" style=""/>
<circle cx="1868.02" cy="1758.02" r="31" style=""/>
<circle cx="2368.02" cy="1358.02" r="31" style=""/>
<circle cx="2368.02" cy="758.016" r="31" style=""/>
<circle cx="1268.02" cy="10958" r="39" style=""/>
<circle cx="1268.02" cy="11158" r="39" style=""/>
<circle cx="1268.02" cy="11358" r="39" style=""/>
<circle cx="1268.02" cy="11558" r="39" style=""/>
<circle cx="1468.02" cy="11558" r="39" style=""/>
<circle cx="1468.02" cy="11358" r="39" style=""/>
<circle cx="1468.02" cy="11158" r="39" style=""/>
<circle cx="1468.02" cy="10958" r="39" style=""/>
<circle cx="1468.02" cy="10558" r="39" style=""/>
<circle cx="1268.02" cy="10558" r="39" style=""/>
<circle cx="1268.02" cy="10358" r="39" style=""/>
<circle cx="1468.02" cy="10358" r="39" style=""/>
<circle cx="1468.02" cy="10158" r="39" style=""/>
<circle cx="1268.02" cy="10158" r="39" style=""/>
<circle cx="1268.02" cy="9958.02" r="39" style=""/>
<circle cx="1468.02" cy="9958.02" r="39" style=""/>
<circle cx="1468.02" cy="9558.02" r="39" style=""/>
<circle cx="1268.02" cy="9558.02" r="39" style=""/>
<circle cx="1268.02" cy="9358.02" r="39" style=""/>
<circle cx="1468.02" cy="9358.02" r="39" style=""/>
<circle cx="1468.02" cy="9158.02" r="39" style=""/>
<circle cx="1268.02" cy="9158.02" r="39" style=""/>
<circle cx="1268.02" cy="8958.02" r="39" style=""/>
<circle cx="1468.02" cy="8958.02" r="39" style=""/>
<circle cx="1468.02" cy="8558.02" r="39" style=""/>
<circle cx="1268.02" cy="8558.02" r="39" style=""/>
<circle cx="1268.02" cy="8358.02" r="39" style=""/>
<circle cx="1468.02" cy="8358.02" r="39" style=""/>
<circle cx="1468.02" cy="8158.02" r="39" style=""/>
<circle cx="1268.02" cy="8158.02" r="39" style=""/>
<circle cx="1268.02" cy="7958.02" r="39" style=""/>
<circle cx="1468.02" cy="7958.02" r="39" style=""/>
<circle cx="1268.02" cy="7558.02" r="39" style=""/>
<circle cx="1268.02" cy="7358.02" r="39" style=""/>
<circle cx="1268.02" cy="7158.02" r="39" style=""/>
<circle cx="1268.02" cy="6958.02" r="39" style=""/>
<circle cx="1468.02" cy="6958.02" r="39" style=""/>
<circle cx="1468.02" cy="7158.02" r="39" style=""/>
<circle cx="1468.02" cy="7358.02" r="39" style=""/>
<circle cx="1468.02" cy="7558.02" r="39" style=""/>
<circle cx="1918.02" cy="7508.02" r="39" style=""/>
<circle cx="2311.82" cy="7508.02" r="39" style=""/>
<circle cx="1468.02" cy="6558.02" r="39" style=""/>
<circle cx="1268.02" cy="6558.02" r="39" style=""/>
<circle cx="1268.02" cy="6358.02" r="39" style=""/>
<circle cx="1468.02" cy="6358.02" r="39" style=""/>
<circle cx="1468.02" cy="6158.02" r="39" style=""/>
<circle cx="1268.02" cy="6158.02" r="39" style=""/>
<circle cx="1268.02" cy="5958.02" r="39" style=""/>
<circle cx="1468.02" cy="5958.02" r="39" style=""/>
<circle cx="1268.02" cy="5558.02" r="39" style=""/>
<circle cx="1268.02" cy="5358.02" r="39" style=""/>
<circle cx="1268.02" cy="5158.02" r="39" style=""/>
<circle cx="1268.02" cy="4958.02" r="39" style=""/>
<circle cx="1468.02" cy="4958.02" r="39" style=""/>
<circle cx="1468.02" cy="5158.02" r="39" style=""/>
<circle cx="1468.02" cy="5358.02" r="39" style=""/>
<circle cx="1468.02" cy="5558.02" r="39" style=""/>
<circle cx="1924.22" cy="5458.02" r="39" style=""/>
<circle cx="2318.02" cy="5458.02" r="39" style=""/>
<circle cx="1468.02" cy="4558.02" r="39" style=""/>
<circle cx="1268.02" cy="4558.02" r="39" style=""/>
<circle cx="1268.02" cy="4358.02" r="39" style=""/>
<circle cx="1468.02" cy="4358.02" r="39" style=""/>
<circle cx="1468.02" cy="4158.02" r="39" style=""/>
<circle cx="1268.02" cy="4158.02" r="39" style=""/>
<circle cx="1268.02" cy="3958.02" r="39" style=""/>
<circle cx="1468.02" cy="3958.02" r="39" style=""/>
<circle cx="1268.02" cy="3558.02" r="39" style=""/>
<circle cx="1268.02" cy="3358.02" r="39" style=""/>
<circle cx="1268.02" cy="3158.02" r="39" style=""/>
<circle cx="1268.02" cy="2958.02" r="39" style=""/>
<circle cx="1468.02" cy="2958.02" r="39" style=""/>
<circle cx="1468.02" cy="3158.02" r="39" style=""/>
<circle cx="1468.02" cy="3358.02" r="39" style=""/>
<circle cx="1468.02" cy="3558.02" r="39" style=""/>
<circle cx="1918.02" cy="3408.02" r="39" style=""/>
<circle cx="2311.82" cy="3408.02" r="39" style=""/>
<circle cx="1468.02" cy="2558.02" r="39" style=""/>
<circle cx="1268.02" cy="2558.02" r="39" style=""/>
<circle cx="1268.02" cy="2358.02" r="39" style=""/>
<circle cx="1468.02" cy="2358.02" r="39" style=""/>
<circle cx="1468.02" cy="2158.02" r="39" style=""/>
<circle cx="1268.02" cy="2158.02" r="39" style=""/>
<circle cx="1268.02" cy="1958.02" r="39" style=""/>
<circle cx="1468.02" cy="1958.02" r="39" style=""/>
<circle cx="1168.02" cy="1458.02" r="39" style=""/>
<circle cx="1168.02" cy="1258.02" r="39" style=""/>
<circle cx="1368.02" cy="1258.02" r="39" style=""/>
<circle cx="1561.82" cy="1458.02" r="39" style=""/>
<circle cx="1568.02" cy="1258.02" r="39" style=""/>
<circle cx="1568.02" cy="808.016" r="39" style=""/>
<circle cx="1768.02" cy="808.016" r="39" style=""/>
<circle cx="1968.02" cy="808.016" r="39" style=""/>
<circle cx="2768.02" cy="808.016" r="39" style=""/>
<circle cx="2968.02" cy="808.016" r="39" style=""/>
<circle cx="3168.02" cy="808.016" r="39" style=""/>
<circle cx="3068.02" cy="1358.02" r="39" style=""/>
<circle cx="2818.02" cy="1358.02" r="39" style=""/>
<circle cx="2818.02" cy="1751.82" r="39" style=""/>
<circle cx="3068.02" cy="1751.82" r="39" style=""/>
<circle cx="3418.02" cy="1408.02" r="39" style=""/>
<circle cx="3418.02" cy="1608.02" r="39" style=""/>
<circle cx="3418.02" cy="1808.02" r="39" style=""/>
<circle cx="3418.02" cy="2508.02" r="39" style=""/>
<circle cx="3418.02" cy="2708.02" r="39" style=""/>
<circle cx="3388.02" cy="7708.02" r="39" style=""/>
<circle cx="3588.02" cy="7708.02" r="39" style=""/>
<circle cx="3588.02" cy="7908.02" r="39" style=""/>
<circle cx="3388.02" cy="7908.02" r="39" style=""/>
<circle cx="3588.02" cy="8108.02" r="39" style=""/>
<circle cx="3588.02" cy="8308.02" r="39" style=""/>
<circle cx="3388.02" cy="8108.02" r="39" style=""/>
<circle cx="3388.02" cy="8308.02" r="39" style=""/>
<circle cx="3588.02" cy="8508.02" r="39" style=""/>
<circle cx="3588.02" cy="8708.02" r="39" style=""/>
<circle cx="3388.02" cy="8508.02" r="39" style=""/>
<circle cx="3388.02" cy="8708.02" r="39" style=""/>
<circle cx="2311.82" cy="9558.02" r="39" style=""/>
<circle cx="1918.02" cy="9558.02" r="39" style=""/>
<circle cx="2768.02" cy="10764.2" r="39" style=""/>
<circle cx="2768.02" cy="11158" r="39" style=""/>
<circle cx="3608.02" cy="11408" r="98" style=""/>
<circle cx="528.016" cy="528.016" r="98" style=""/>
</svg>
