<?xml version="1.0" standalone="no"?>
<!DOCTYPE svg PUBLIC "-//W3C//DTD SVG 1.1//EN"
"http://www.w3.org/Graphics/SVG/1.1/DTD/svg11.dtd">
<svg width="4116" height="11976" viewBox="0 0 4116 11976" version="1.1"
xmlns="http://www.w3.org/2000/svg"
xmlns:xlink="http://www.w3.org/1999/xlink">
<g fill-rule="evenodd"><path d="M 118.104,11975.8 L 95.0629,11973.5 L 72.9081,11966.8 L 52.4892,11955.9 L 34.5922,11941.2 L 19.9049,11923.3 L 8.99152,11902.9 L 2.26988,11880.7 L 4.26326e-14,11857.7 L 4.26326e-14,118.314 L 2.26988,95.273 L 8.99152,73.1182 L 19.9049,52.6992 L 34.5922,34.8022 L 52.4892,20.115 L 72.9081,9.20157 L 95.0629,2.47993 L 118.104,0.210047 L 3997.9,0.210047 L 4020.94,2.47993 L 4043.09,9.20157 L 4063.51,20.115 L 4081.41,34.8022 L 4096.1,52.6992 L 4107.01,73.1182 L 4113.73,95.273 L 4116,118.314 L 4116,11857.7 L 4113.73,11880.7 L 4107.01,11902.9 L 4096.1,11923.3 L 4081.41,11941.2 L 4063.51,11955.9 L 4043.09,11966.8 L 4020.94,11973.5 L 3997.9,11975.8 L 298.094,11975.8 L 118.104,11975.8 z " style="fill-opacity:1.000000;fill:rgb(103,198,105);stroke:rgb(0,0,0);stroke-width:2"/></g>
</svg>
