<?xml version="1.0" standalone="no"?>
<!DOCTYPE svg PUBLIC "-//W3C//DTD SVG 1.1//EN"
"http://www.w3.org/Graphics/SVG/1.1/DTD/svg11.dtd">
<svg width="4116" height="11916" viewBox="0 0 4116 11916" version="1.1"
xmlns="http://www.w3.org/2000/svg"
xmlns:xlink="http://www.w3.org/1999/xlink">
<g fill-rule="evenodd"><path d="M 4.26326e-14,11915.8 L 4.26326e-14,0.208444 L 4116,0.208444 L 4116,11915.8 L 4.26326e-14,11915.8 z " style="fill-opacity:0.300000;fill:rgb(103,198,105);"/></g>
<g fill-rule="evenodd"><path d="M 118.104,11915.8 L 95.0629,11913.5 L 72.9081,11906.8 L 52.4892,11895.9 L 34.5922,11881.2 L 19.9049,11863.3 L 8.99152,11842.9 L 2.26988,11820.7 L 4.26326e-14,11797.7 L 4.26326e-14,118.312 L 2.26988,95.2714 L 8.99152,73.1165 L 19.9049,52.6976 L 34.5922,34.8006 L 52.4892,20.1134 L 72.9081,9.19996 L 95.0629,2.47832 L 118.104,0.208444 L 3997.9,0.208444 L 4020.94,2.47832 L 4043.09,9.19996 L 4063.51,20.1134 L 4081.41,34.8006 L 4096.1,52.6976 L 4107.01,73.1165 L 4113.73,95.2714 L 4116,118.312 L 4116,11797.7 L 4113.73,11820.7 L 4107.01,11842.9 L 4096.1,11863.3 L 4081.41,11881.2 L 4063.51,11895.9 L 4043.09,11906.8 L 4020.94,11913.5 L 3997.9,11915.8 L 298.094,11915.8 L 118.104,11915.8 z " style="fill-opacity:0.600000;fill:rgb(103,198,105);stroke:rgb(0,0,0);stroke-width:2"/></g>
<g fill-rule="evenodd"><path d="M 298.094,11797.7 L 118.104,11797.7 L 118.104,118.312 L 3997.9,118.312 L 3997.9,11797.7 L 298.094,11797.7 z " style="fill-opacity:1.000000;fill:rgb(103,198,105);stroke:rgb(0,0,0);stroke-width:2"/></g>
</svg>
