<?xml version="1.0" encoding="UTF-8" standalone="no"?>
<!-- Created with Inkscape (http://www.inkscape.org/) -->

<svg
   xmlns:dc="http://purl.org/dc/elements/1.1/"
   xmlns:cc="http://creativecommons.org/ns#"
   xmlns:rdf="http://www.w3.org/1999/02/22-rdf-syntax-ns#"
   xmlns:svg="http://www.w3.org/2000/svg"
   xmlns="http://www.w3.org/2000/svg"
   xmlns:sodipodi="http://sodipodi.sourceforge.net/DTD/sodipodi-0.dtd"
   xmlns:inkscape="http://www.inkscape.org/namespaces/inkscape"
   width="320mm"
   height="320mm"
   viewBox="0 0 1133.8583 1133.8583"
   id="svg2"
   version="1.1"
   inkscape:version="0.91 r"
   sodipodi:docname="stator_mount_1.svg">
  <defs
     id="defs4" />
  <sodipodi:namedview
     id="base"
     pagecolor="#ffffff"
     bordercolor="#666666"
     borderopacity="1.0"
     inkscape:pageopacity="0.0"
     inkscape:pageshadow="2"
     inkscape:zoom="0.7"
     inkscape:cx="288.62295"
     inkscape:cy="539.95521"
     inkscape:document-units="mm"
     inkscape:current-layer="layer1"
     showgrid="false"
     inkscape:window-width="1920"
     inkscape:window-height="1028"
     inkscape:window-x="0"
     inkscape:window-y="0"
     inkscape:window-maximized="1"
     showborder="true"
     objecttolerance="20">
    <inkscape:grid
       type="xygrid"
       id="grid4260"
       units="mm"
       spacingx="0.88582679"
       spacingy="0.88582679"
       empspacing="4" />
  </sodipodi:namedview>
  <metadata
     id="metadata7">
    <rdf:RDF>
      <cc:Work
         rdf:about="">
        <dc:format>image/svg+xml</dc:format>
        <dc:type
           rdf:resource="http://purl.org/dc/dcmitype/StillImage" />
        <dc:title></dc:title>
      </cc:Work>
    </rdf:RDF>
  </metadata>
  <g
     inkscape:label="Layer 1"
     inkscape:groupmode="layer"
     id="layer1"
     transform="translate(0,81.496063)">
    <path
       style="fill:none;fill-opacity:1;stroke:#ff0000;stroke-width:0.35511595;stroke-miterlimit:4;stroke-dasharray:none;stroke-opacity:1"
       d="M 265.74803,-28.168975 A 265.57088,265.29949 0 0 0 0.17755797,237.12975 a 265.57088,265.29949 0 0 0 0.17238609,3.43861 l 0,811.61624 105.97039594,0 0,-16.3813 318.85538,0 0,16.3813 105.9704,0 0,-810.19816 a 265.57088,265.29949 0 0 0 0.17238,-4.85669 265.57088,265.29949 0 0 0 -265.57047,-265.298725 z m 0,40.533679 a 14.40934,14.387591 0 0 1 14.4099,14.388154 14.40934,14.387591 0 0 1 -14.4099,14.388158 14.40934,14.387591 0 0 1 -14.4099,-14.388158 14.40934,14.387591 0 0 1 14.4099,-14.388154 z M 61.402024,166.39778 a 8.5169569,8.5041018 0 0 1 8.517437,8.50457 8.5169569,8.5041018 0 0 1 -8.517437,8.50263 8.5169569,8.5041018 0 0 1 -8.517437,-8.50263 8.5169569,8.5041018 0 0 1 8.517437,-8.50457 z m 408.692016,0 a 8.5169569,8.5041018 0 0 1 8.51744,8.50457 8.5169569,8.5041018 0 0 1 -8.51744,8.50263 8.5169569,8.5041018 0 0 1 -8.51745,-8.50263 8.5169569,8.5041018 0 0 1 8.51745,-8.50457 z m -204.34601,32.02714 a 38.6329,38.574589 0 0 1 38.6321,38.57574 38.6329,38.574589 0 0 1 -38.6321,38.5738 38.6329,38.574589 0 0 1 -38.6321,-38.5738 38.6329,38.574589 0 0 1 38.6321,-38.57574 z M 61.402024,290.59439 a 8.5169569,8.5041018 0 0 1 8.517437,8.50458 8.5169569,8.5041018 0 0 1 -8.517437,8.50262 8.5169569,8.5041018 0 0 1 -8.517437,-8.50262 8.5169569,8.5041018 0 0 1 8.517437,-8.50458 z m 408.692016,0 a 8.5169569,8.5041018 0 0 1 8.51744,8.50458 8.5169569,8.5041018 0 0 1 -8.51744,8.50262 8.5169569,8.5041018 0 0 1 -8.51745,-8.50262 8.5169569,8.5041018 0 0 1 8.51745,-8.50458 z m -365.30167,193.7687 73.1426,0 0,18.02822 -73.1426,0 0,-18.02822 z m 248.76871,0 73.14261,0 0,18.02822 -73.14261,0 0,-18.02822 z m -87.81305,24.78808 a 14.40934,14.387591 0 0 1 14.4099,14.38815 14.40934,14.387591 0 0 1 -14.4099,14.38817 14.40934,14.387591 0 0 1 -14.4099,-14.38817 14.40934,14.387591 0 0 1 14.4099,-14.38815 z m -160.95566,454.25574 73.1426,0 0,18.03018 -73.1426,0 0,-18.03018 z m 248.76871,0 73.14261,0 0,18.03018 -73.14261,0 0,-18.03018 z M 49.85216,988.19694 a 14.40934,14.387591 0 0 1 14.409905,14.38616 14.40934,14.387591 0 0 1 -14.409905,14.3881 14.40934,14.387591 0 0 1 -14.409905,-14.3881 14.40934,14.387591 0 0 1 14.409905,-14.38616 z m 431.79174,0 a 14.40934,14.387591 0 0 1 14.40991,14.38616 14.40934,14.387591 0 0 1 -14.40991,14.3881 14.40934,14.387591 0 0 1 -14.4099,-14.3881 14.40934,14.387591 0 0 1 14.4099,-14.38616 z"
       id="rect4136"
       inkscape:connector-curvature="0" />
    <path
       style="fill:none;fill-opacity:1;stroke:#ff0000;stroke-width:0.35617772;stroke-miterlimit:4;stroke-dasharray:none;stroke-opacity:1"
       d="m 571.59897,432.46155 a 265.64364,266.68586 0 0 0 -22.20828,104.01471 l 0,3.59893 a 265.64364,266.68586 0 0 0 0.0979,1.96375 l 0,102.66486 530.94371,0 0,-101.23827 a 265.64364,266.68586 0 0 0 0.098,-2.77447 l 0,-3.59892 a 265.64364,266.68586 0 0 0 -21.9888,-104.63059 l -486.94247,0 z m 39.01776,35.09594 a 8.516902,8.5550861 0 0 1 8.51739,8.55556 8.516902,8.5550861 0 0 1 -8.51739,8.5536 8.516902,8.5550861 0 0 1 -8.51739,-8.5536 8.516902,8.5550861 0 0 1 8.51739,-8.55556 z m 408.68947,0 a 8.516902,8.5550861 0 0 1 8.5154,8.55556 8.516902,8.5550861 0 0 1 -8.5154,8.5536 8.516902,8.5550861 0 0 1 -8.5174,-8.5536 8.516902,8.5550861 0 0 1 8.5174,-8.55556 z m -204.34476,39.70823 a 31.176896,31.316669 0 0 1 31.17621,31.31794 31.176896,31.316669 0 0 1 -31.17621,31.31597 31.176896,31.316669 0 0 1 -31.17816,-31.31597 31.176896,31.316669 0 0 1 31.17816,-31.31794 z M 610.61673,592.4987 a 8.516902,8.5550861 0 0 1 8.51739,8.55557 8.516902,8.5550861 0 0 1 -8.51739,8.55359 8.516902,8.5550861 0 0 1 -8.51739,-8.55359 8.516902,8.5550861 0 0 1 8.51739,-8.55557 z m 408.68947,0 a 8.516902,8.5550861 0 0 1 8.5154,8.55557 8.516902,8.5550861 0 0 1 -8.5154,8.55359 8.516902,8.5550861 0 0 1 -8.5174,-8.55359 8.516902,8.5550861 0 0 1 8.5174,-8.55557 z"
       id="rect4136-1"
       inkscape:connector-curvature="0" />
    <path
       style="fill:none;fill-opacity:1;stroke:#ff0000;stroke-width:0.35510617;stroke-miterlimit:4;stroke-dasharray:none;stroke-opacity:1"
       d="M 656.01758 744.27148 L 656.01758 761.86523 L 549.39062 761.86523 L 549.39062 1116.0859 L 656.01758 1116.0859 L 656.01758 1133.6797 L 725.50391 1133.6797 L 725.50391 1116.0859 L 904.41406 1116.0859 L 904.41406 1133.6797 L 973.90234 1133.6797 L 973.90234 1116.0859 L 1080.5312 1116.0859 L 1080.5312 761.86523 L 973.90234 761.86523 L 973.90234 744.27148 L 904.41406 744.27148 L 904.41406 761.86523 L 725.50391 761.86523 L 725.50391 744.27148 L 656.01758 744.27148 z M 814.96094 886.02148 A 52.955101 52.955101 0 0 1 867.91602 938.97656 A 52.955101 52.955101 0 0 1 814.96094 991.93164 A 52.955101 52.955101 0 0 1 762.00586 938.97656 A 52.955101 52.955101 0 0 1 814.96094 886.02148 z "
       transform="translate(0,-81.496063)"
       id="rect4390" />
    <g
       id="g4551"
       transform="matrix(0.21224196,0,0,0.21224196,212.59843,738.15273)">
      <path
         style="fill:#ff6699"
         d="m 375,103.751 -124.999,125 -125,-125 -125.001,125 125.001,125.001 125,124.999 L 375,353.752 500,228.751 Z"
         id="polygon4534" />
      <path
         style="fill:#ff3366"
         d="m 125.001,21.25 0,82.501 -125.001,125 0,-82.5 z"
         id="polygon4536" />
      <path
         style="fill:#ff3366"
         d="m 375,21.25 0,82.501 -124.999,125 0,-82.5 z"
         id="polygon4538" />
      <path
         style="fill:#9f004c"
         d="m 250.001,228.751 0,-82.5 -125,-125.001 0,82.501 z"
         id="polygon4540" />
      <path
         style="fill:#9f004c"
         d="m 500,228.751 0,-82.5 -125,-125.001 0,82.501 z"
         id="polygon4542" />
    </g>
  </g>
  <style
     id="style4532"
     type="text/css">
		.p1 {fill:#f69;}
		.p2 {fill:#f36;}
		.p3 {fill:#9f004c;}
	</style>
</svg>
