<?xml version="1.0" encoding="UTF-8" standalone="no"?>
<!-- Created with Inkscape (http://www.inkscape.org/) -->

<svg
   xmlns:dc="http://purl.org/dc/elements/1.1/"
   xmlns:cc="http://creativecommons.org/ns#"
   xmlns:rdf="http://www.w3.org/1999/02/22-rdf-syntax-ns#"
   xmlns:svg="http://www.w3.org/2000/svg"
   xmlns="http://www.w3.org/2000/svg"
   xmlns:sodipodi="http://sodipodi.sourceforge.net/DTD/sodipodi-0.dtd"
   xmlns:inkscape="http://www.inkscape.org/namespaces/inkscape"
   width="520mm"
   height="310mm"
   viewBox="0 0 1842.5197 1098.4252"
   id="svg2"
   version="1.1"
   inkscape:version="0.91 r"
   sodipodi:docname="stator_mount_1.svg">
  <defs
     id="defs4" />
  <sodipodi:namedview
     id="base"
     pagecolor="#ffffff"
     bordercolor="#666666"
     borderopacity="1.0"
     inkscape:pageopacity="0.0"
     inkscape:pageshadow="2"
     inkscape:zoom="0.7"
     inkscape:cx="545.84311"
     inkscape:cy="470.33271"
     inkscape:document-units="mm"
     inkscape:current-layer="layer2"
     showgrid="false"
     inkscape:window-width="1920"
     inkscape:window-height="1028"
     inkscape:window-x="0"
     inkscape:window-y="0"
     inkscape:window-maximized="1"
     showborder="true"
     objecttolerance="20"
     showguides="true">
    <inkscape:grid
       type="xygrid"
       id="grid4260"
       units="mm"
       spacingx="0.35433072"
       spacingy="0.35433072"
       empspacing="5" />
  </sodipodi:namedview>
  <metadata
     id="metadata7">
    <rdf:RDF>
      <cc:Work
         rdf:about="">
        <dc:format>image/svg+xml</dc:format>
        <dc:type
           rdf:resource="http://purl.org/dc/dcmitype/StillImage" />
        <dc:title></dc:title>
      </cc:Work>
    </rdf:RDF>
  </metadata>
  <g
     inkscape:label="decoupe_2"
     inkscape:groupmode="layer"
     id="layer1"
     transform="translate(0,46.062992)"
     style="display:inline">
    <path
       style="fill:none;fill-opacity:1;stroke:#ff0000;stroke-width:0.7090134;stroke-miterlimit:4;stroke-dasharray:none;stroke-opacity:1"
       d="M 265.74803,-28.168975 A 265.57088,265.29949 0 0 0 0.17755797,237.12975 a 265.57088,265.29949 0 0 0 0.17238609,3.43861 l 0,811.61624 105.97039594,0 0,-16.3813 318.85538,0 0,16.3813 105.9704,0 0,-810.19816 a 265.57088,265.29949 0 0 0 0.17238,-4.85669 265.57088,265.29949 0 0 0 -265.57047,-265.298725 z"
       id="path4599"
       inkscape:connector-curvature="0"
       transform="matrix(0.9993346,0,0,0.99967261,0.17683101,0.16768502)" />
    <rect
       style="fill:none;fill-opacity:1;stroke:#ff0000;stroke-width:0.70928073;stroke-miterlimit:4;stroke-dasharray:none;stroke-opacity:1"
       id="rect4766"
       width="389.37888"
       height="353.94583"
       x="1240.3499"
       y="698.22394"
       transform="matrix(0.99916845,0,0,0.9990853,-140.5389,0.80054158)" />
    <rect
       style="fill:none;fill-opacity:1;stroke:#ff0000;stroke-width:0.70899725;stroke-miterlimit:4;stroke-dasharray:none;stroke-opacity:1"
       id="rect4768"
       width="282.96335"
       height="966.82159"
       x="1346.7074"
       y="85.28997"
       transform="matrix(0.99926754,0,0,0.99978527,-140.64234,0.12213487)" />
    <rect
       style="display:inline;fill:none;fill-opacity:1;stroke:#ff0000;stroke-width:0.71128064;stroke-miterlimit:4;stroke-dasharray:none;stroke-opacity:1"
       id="rect4874-2"
       width="230.04884"
       height="81.229935"
       x="549.34564"
       y="333.20392"
       transform="matrix(0.99807088,0,0,0.99456742,1.2816629,2.0308151)" />
    <rect
       style="display:inline;fill:none;fill-opacity:1;stroke:#ff0000;stroke-width:0.7066626;stroke-miterlimit:4;stroke-dasharray:none;stroke-opacity:1"
       id="rect4993"
       width="353.97638"
       height="212.24406"
       x="666.29456"
       y="17.762594"
       transform="matrix(1.0989073,0,0,0.91515015,-94.012408,26.587595)" />
    <path
       style="display:inline;fill:none;fill-opacity:1;stroke:#ff0000;stroke-width:0.70866138;stroke-miterlimit:4;stroke-dasharray:none;stroke-opacity:1"
       d="M 663.73633 778.60742 L 663.73633 796.89453 L 549.5625 796.89453 L 549.5625 1079.6406 L 663.73633 1079.6406 L 663.73633 1097.9277 L 734.09766 1097.9277 L 734.09766 1079.6406 L 897.5957 1079.6406 L 897.5957 1097.9277 L 967.95703 1097.9277 L 967.95703 1079.6406 L 1080.3594 1079.6406 L 1080.3594 796.89453 L 967.95703 796.89453 L 967.95703 778.60742 L 897.5957 778.60742 L 897.5957 796.89453 L 734.09766 796.89453 L 734.09766 778.60742 L 663.73633 778.60742 z "
       transform="translate(0,-46.062992)"
       id="path4579-4-5" />
    <path
       transform="matrix(1,0,0,1.0000496,549.21341,290.53783)"
       inkscape:connector-curvature="0"
       style="display:inline;fill:none;fill-opacity:1;stroke:#ff0000;stroke-width:0.70864385;stroke-miterlimit:4;stroke-dasharray:none;stroke-opacity:1"
       d="M 31.048828,159.80859 A 265.39417,265.21263 0 0 0 0.35351562,283.2832 a 265.39417,265.21263 0 0 0 0.17382813,3.4375 l 0,120.39844 530.44140625,0 0,-118.98047 a 265.39417,265.21263 0 0 0 0.17383,-4.85547 265.39417,265.21263 0 0 0 -30.71289,-123.47461 l -469.380862,0 z"
       id="path4599-6" />
  </g>
  <g
     inkscape:groupmode="layer"
     id="layer2"
     inkscape:label="decoupe_1"
     style="display:inline"
     transform="translate(0,-35.433071)">
    <path
       transform="matrix(1.2048985,0,0,1.2066829,-54.451369,74.016995)"
       style="display:inline;fill:none;fill-opacity:1;stroke:#ff0000;stroke-width:0.58771527;stroke-miterlimit:4;stroke-dasharray:none;stroke-opacity:1"
       d="m 265.74803,12.364704 a 14.40934,14.387591 0 0 1 14.4099,14.388154 14.40934,14.387591 0 0 1 -14.4099,14.388158 14.40934,14.387591 0 0 1 -14.4099,-14.388158 14.40934,14.387591 0 0 1 14.4099,-14.388154 z"
       id="path4597"
       inkscape:connector-curvature="0" />
    <path
       transform="matrix(0.99844747,0,0,1.0000071,0.70117848,79.152496)"
       style="display:inline;fill:none;fill-opacity:1;stroke:#ff0000;stroke-width:0.70920968;stroke-miterlimit:4;stroke-dasharray:none;stroke-opacity:1"
       d="m 61.402024,166.39778 a 8.5169569,8.5041018 0 0 1 8.517437,8.50457 8.5169569,8.5041018 0 0 1 -8.517437,8.50263 8.5169569,8.5041018 0 0 1 -8.517437,-8.50263 8.5169569,8.5041018 0 0 1 8.517437,-8.50457 z"
       id="path4595"
       inkscape:connector-curvature="0" />
    <path
       transform="matrix(0.98140268,0,0,0.98284773,4.9422027,85.963031)"
       style="display:inline;fill:none;fill-opacity:1;stroke:#ff0000;stroke-width:0.72155935;stroke-miterlimit:4;stroke-dasharray:none;stroke-opacity:1"
       d="m 265.74803,198.42492 a 38.6329,38.574589 0 0 1 38.6321,38.57574 38.6329,38.574589 0 0 1 -38.6321,38.5738 38.6329,38.574589 0 0 1 -38.6321,-38.5738 38.6329,38.574589 0 0 1 38.6321,-38.57574 z"
       id="path4591"
       inkscape:connector-curvature="0" />
    <path
       transform="matrix(0.99844747,0,0,1.0000071,0.70117853,84.640044)"
       style="display:inline;fill:none;fill-opacity:1;stroke:#ff0000;stroke-width:0.70920968;stroke-miterlimit:4;stroke-dasharray:none;stroke-opacity:1"
       d="m 61.402024,290.59439 a 8.5169569,8.5041018 0 0 1 8.517437,8.50458 8.5169569,8.5041018 0 0 1 -8.517437,8.50262 8.5169569,8.5041018 0 0 1 -8.517437,-8.50262 8.5169569,8.5041018 0 0 1 8.517437,-8.50458 z"
       id="path4589"
       inkscape:connector-curvature="0" />
    <path
       transform="matrix(1.2048985,0,0,1.2066826,-54.451371,-18.753674)"
       style="display:inline;fill:none;fill-opacity:1;stroke:#ff0000;stroke-width:0.58771539;stroke-miterlimit:4;stroke-dasharray:none;stroke-opacity:1"
       d="m 265.74803,509.15117 a 14.40934,14.387591 0 0 1 14.4099,14.38815 14.40934,14.387591 0 0 1 -14.4099,14.38817 14.40934,14.387591 0 0 1 -14.4099,-14.38817 14.40934,14.387591 0 0 1 14.4099,-14.38815 z"
       id="path4581"
       inkscape:connector-curvature="0" />
    <path
       style="display:inline;fill:none;fill-opacity:1;stroke:#ff0000;stroke-width:0.78684515;stroke-miterlimit:4;stroke-dasharray:none;stroke-opacity:1"
       d="m 106.12031,1045.0967 71.22395,0 0,18.0743 -71.22395,0 0,-18.0743 z"
       id="path4579"
       inkscape:connector-curvature="0"
       transform="matrix(0.95950181,0,0,0.84538249,11.940687,153.24347)" />
    <path
       style="display:inline;fill:none;fill-opacity:1;stroke:#ff0000;stroke-width:0.78684515;stroke-miterlimit:4;stroke-dasharray:none;stroke-opacity:1"
       d="m 354.15181,1045.0967 71.22395,0 0,18.0743 -71.22395,0 0,-18.0743 z"
       id="path4577"
       inkscape:connector-curvature="0"
       transform="matrix(0.95950181,0,0,0.84538249,9.583935,153.24346)" />
    <path
       transform="matrix(1.204899,0,0,1.2067681,0.16940533,-136.26447)"
       style="display:inline;fill:none;fill-opacity:1;stroke:#ff0000;stroke-width:0.58769441;stroke-miterlimit:4;stroke-dasharray:none;stroke-opacity:1"
       d="M 49.85216,988.19694 A 14.40934,14.387591 0 0 1 64.262065,1002.5831 14.40934,14.387591 0 0 1 49.85216,1016.9712 14.40934,14.387591 0 0 1 35.442255,1002.5831 14.40934,14.387591 0 0 1 49.85216,988.19694 Z"
       id="path4575"
       inkscape:connector-curvature="0" />
    <path
       transform="matrix(1.2048989,0,0,1.2067681,-95.736024,-136.26443)"
       style="display:inline;fill:none;fill-opacity:1;stroke:#ff0000;stroke-width:0.58769447;stroke-miterlimit:4;stroke-dasharray:none;stroke-opacity:1"
       d="m 481.6439,988.19694 a 14.40934,14.387591 0 0 1 14.40991,14.38616 14.40934,14.387591 0 0 1 -14.40991,14.3881 14.40934,14.387591 0 0 1 -14.4099,-14.3881 14.40934,14.387591 0 0 1 14.4099,-14.38616 z"
       id="rect4136"
       inkscape:connector-curvature="0" />
    <path
       transform="matrix(0.66242445,0,0,0.66242446,275.11058,405.68473)"
       style="display:inline;fill:none;fill-opacity:1;stroke:#ff0000;stroke-width:1.06979954;stroke-miterlimit:4;stroke-dasharray:none;stroke-opacity:1"
       d="m 814.96094,804.52542 a 52.955101,52.955101 0 0 1 52.95508,52.95508 52.955101,52.955101 0 0 1 -52.95508,52.95508 52.955101,52.955101 0 0 1 -52.95508,-52.95508 52.955101,52.955101 0 0 1 52.95508,-52.95508 z"
       id="rect4390"
       inkscape:connector-curvature="0" />
    <path
       sodipodi:type="star"
       style="fill:none;fill-opacity:1;stroke:#ff0000;stroke-width:2.35736739;stroke-miterlimit:4;stroke-dasharray:none;stroke-opacity:1"
       id="path4653"
       sodipodi:sides="6"
       sodipodi:cx="-177.14285"
       sodipodi:cy="274.13947"
       sodipodi:r1="85.714287"
       sodipodi:r2="74.571426"
       sodipodi:arg1="1.5707963"
       sodipodi:arg2="2.0943951"
       inkscape:flatsided="false"
       inkscape:rounded="0"
       inkscape:randomized="-2.77556e-17"
       d="m -177.14285,359.85375 -37.28572,-21.13353 -36.94503,-21.72361 -0.34068,-42.85714 0.34068,-42.85715 36.94503,-21.7236 37.28571,-21.13354 37.28572,21.13354 36.94504,21.7236 0.34067,42.85715 -0.34067,42.85714 -36.94504,21.7236 z"
       transform="matrix(0.26802096,0.14856644,-0.14296995,0.25792462,1410.8493,695.04936)" />
    <path
       style="display:inline;fill:none;fill-opacity:1;stroke:#ff0000;stroke-width:0.70866142;stroke-miterlimit:4;stroke-dasharray:none;stroke-opacity:1"
       d="m 1364.1742,671.63776 a 8.6777327,8.6777352 0 0 1 8.6762,8.67822 8.6777327,8.6777352 0 0 1 -8.6762,8.67622 8.6777327,8.6777352 0 0 1 -8.6782,-8.67622 8.6777327,8.6777352 0 0 1 8.6782,-8.67822 z"
       id="path4611-2"
       inkscape:connector-curvature="0"
       transform="translate(-141.73228,0)" />
    <path
       style="display:inline;fill:none;fill-opacity:1;stroke:#ff0000;stroke-width:0.70866142;stroke-miterlimit:4;stroke-dasharray:none;stroke-opacity:1"
       d="m 1505.9065,175.57477 a 8.6777327,8.6777352 0 0 1 8.6762,8.67822 8.6777327,8.6777352 0 0 1 -8.6762,8.67622 8.6777327,8.6777352 0 0 1 -8.6782,-8.67622 8.6777327,8.6777352 0 0 1 8.6782,-8.67822 z"
       id="path4611-2-6"
       inkscape:connector-curvature="0"
       transform="translate(-141.73228,0)" />
    <rect
       style="fill:none;fill-opacity:1;stroke:#ff0000;stroke-width:0.70866142;stroke-miterlimit:4;stroke-dasharray:none;stroke-opacity:1"
       id="rect4689"
       width="17.515545"
       height="176.96437"
       x="1576.8722"
       y="485.53357"
       transform="translate(-141.73228,0)" />
    <rect
       style="display:inline;fill:none;fill-opacity:1;stroke:#ff0000;stroke-width:0.70866142;stroke-miterlimit:4;stroke-dasharray:none;stroke-opacity:1"
       id="rect4689-1"
       width="17.496471"
       height="212.37836"
       x="1576.8817"
       y="237.51161"
       transform="translate(-141.73228,0)" />
    <rect
       style="display:inline;fill:none;fill-opacity:1;stroke:#ff0000;stroke-width:0.70866142;stroke-miterlimit:4;stroke-dasharray:none;stroke-opacity:1"
       id="rect4689-8"
       width="17.478951"
       height="247.79391"
       x="1576.8905"
       y="815.07941"
       transform="translate(-141.73228,0)" />
    <path
       style="display:inline;fill:none;fill-opacity:1;stroke:#ff0000;stroke-width:0.70866142;stroke-miterlimit:4;stroke-dasharray:none;stroke-opacity:1"
       d="m 1275.5915,806.28341 a 8.6777327,8.6777352 0 0 1 8.6762,8.67822 8.6777327,8.6777352 0 0 1 -8.6762,8.67622 8.6777327,8.6777352 0 0 1 -8.6782,-8.67622 8.6777327,8.6777352 0 0 1 8.6782,-8.67822 z"
       id="path4611-2-7"
       inkscape:connector-curvature="0"
       transform="translate(-141.73228,0)" />
    <path
       style="display:inline;fill:none;fill-opacity:1;stroke:#ff0000;stroke-width:0.70866142;stroke-miterlimit:4;stroke-dasharray:none;stroke-opacity:1"
       d="m 1488.19,806.28341 a 8.6777327,8.6777352 0 0 1 8.6762,8.67822 8.6777327,8.6777352 0 0 1 -8.6762,8.67622 8.6777327,8.6777352 0 0 1 -8.6782,-8.67622 8.6777327,8.6777352 0 0 1 8.6782,-8.67822 z"
       id="path4611-2-9"
       inkscape:connector-curvature="0"
       transform="translate(-141.73228,0)" />
    <path
       style="display:inline;fill:none;fill-opacity:1;stroke:#ff0000;stroke-width:0.70866142;stroke-miterlimit:4;stroke-dasharray:none;stroke-opacity:1"
       d="m 1488.19,877.14955 a 8.6777327,8.6777352 0 0 1 8.6762,8.67822 8.6777327,8.6777352 0 0 1 -8.6762,8.67622 8.6777327,8.6777352 0 0 1 -8.6782,-8.67622 8.6777327,8.6777352 0 0 1 8.6782,-8.67822 z"
       id="path4611-2-2"
       inkscape:connector-curvature="0"
       transform="translate(-141.73228,0)" />
    <path
       style="display:inline;fill:none;fill-opacity:1;stroke:#ff0000;stroke-width:0.70866142;stroke-miterlimit:4;stroke-dasharray:none;stroke-opacity:1"
       d="m 1275.5915,877.14955 a 8.6777327,8.6777352 0 0 1 8.6762,8.67822 8.6777327,8.6777352 0 0 1 -8.6762,8.67622 8.6777327,8.6777352 0 0 1 -8.6782,-8.67622 8.6777327,8.6777352 0 0 1 8.6782,-8.67822 z"
       id="path4611-2-0"
       inkscape:connector-curvature="0"
       transform="translate(-141.73228,0)" />
    <path
       style="display:inline;fill:none;fill-opacity:1;stroke:#ff0000;stroke-width:0.70866142;stroke-miterlimit:4;stroke-dasharray:none;stroke-opacity:1"
       d="m 1392.5209,728.36686 a 10.413304,10.413286 0 0 1 10.4115,10.41386 10.413304,10.413286 0 0 1 -10.4115,10.41147 10.413304,10.413286 0 0 1 -10.4139,-10.41147 10.413304,10.413286 0 0 1 10.4139,-10.41386 z"
       id="path4611-2-9-2"
       inkscape:connector-curvature="0"
       transform="translate(-141.73228,0)" />
    <path
       style="display:inline;fill:none;fill-opacity:1;stroke:#ff0000;stroke-width:0.70866142;stroke-miterlimit:4;stroke-dasharray:none;stroke-opacity:1"
       d="m 1539.2138,728.36687 a 10.413304,10.413286 0 0 1 10.4115,10.41386 10.413304,10.413286 0 0 1 -10.4115,10.41147 10.413304,10.413286 0 0 1 -10.4139,-10.41147 10.413304,10.413286 0 0 1 10.4139,-10.41386 z"
       id="path4611-2-9-5"
       inkscape:connector-curvature="0"
       transform="translate(-141.73228,0)" />
    <path
       style="display:inline;fill:none;fill-opacity:1;stroke:#ff0000;stroke-width:0.86772293;stroke-miterlimit:4;stroke-dasharray:none;stroke-opacity:1"
       d="m 595.27699,444.90211 a 10.413304,10.413286 0 0 1 10.4115,10.4139 10.413304,10.413286 0 0 1 -10.4115,10.4114 10.413304,10.413286 0 0 1 -10.4139,-10.4114 10.413304,10.413286 0 0 1 10.4139,-10.4139 z"
       id="path4611-2-9-2-9"
       inkscape:connector-curvature="0"
       transform="matrix(0.81668902,0,0,0.81669279,107.34874,83.462679)" />
    <path
       style="display:inline;fill:none;fill-opacity:1;stroke:#ff0000;stroke-width:0.86772501;stroke-miterlimit:4;stroke-dasharray:none;stroke-opacity:1"
       d="m 741.96986,444.90211 a 10.413304,10.413286 0 0 1 10.4115,10.4139 10.413304,10.413286 0 0 1 -10.4115,10.4115 10.413304,10.413286 0 0 1 -10.4139,-10.4115 10.413304,10.413286 0 0 1 10.4139,-10.4139 z"
       id="path4611-2-9-5-2"
       inkscape:connector-curvature="0"
       transform="matrix(0.81668895,0,0,0.81668895,129.27861,83.464387)" />
    <ellipse
       style="display:inline;fill:none;fill-opacity:1;stroke:#ff0000;stroke-width:0.71999484;stroke-miterlimit:4;stroke-dasharray:none;stroke-opacity:1"
       id="path4876-8"
       cx="668.62213"
       cy="455.31476"
       rx="14.0399"
       ry="14.039899"
       transform="matrix(0.98425899,0,0,0.98425906,6.272735,7.1672847)" />
    <path
       style="display:inline;fill:none;fill-opacity:1;stroke:#ff0000;stroke-width:0.71750796;stroke-miterlimit:4;stroke-dasharray:none;stroke-opacity:1"
       d="m 927.74868,153.73463 71.22393,0 0,18.07432 -71.22393,0 0,-18.07432 z"
       id="path4583-9"
       inkscape:connector-curvature="0"
       transform="matrix(0.9949037,0,0,0.98048987,9.226095,8.3566648)" />
    <path
       style="display:inline;fill:none;fill-opacity:1;stroke:#ff0000;stroke-width:0.58405584;stroke-miterlimit:4;stroke-dasharray:none;stroke-opacity:1"
       d="m 849.13317,212.50559 a 31.176896,31.316669 0 0 1 31.17621,31.31794 31.176896,31.316669 0 0 1 -31.17621,31.31597 31.176896,31.316669 0 0 1 -31.17816,-31.31597 31.176896,31.316669 0 0 1 31.17816,-31.31794 z"
       id="path4609-7"
       inkscape:connector-curvature="0"
       transform="matrix(1.2160367,0,0,1.2106595,-126.19788,-32.272728)" />
    <path
       sodipodi:type="star"
       style="display:inline;fill:none;fill-opacity:1;stroke:#ff0000;stroke-width:2.32463026;stroke-miterlimit:4;stroke-dasharray:none;stroke-opacity:1"
       id="path4653-3"
       sodipodi:sides="6"
       sodipodi:cx="-177.14285"
       sodipodi:cy="274.13947"
       sodipodi:r1="85.714287"
       sodipodi:r2="74.571426"
       sodipodi:arg1="1.5707963"
       sodipodi:arg2="2.0943951"
       inkscape:flatsided="false"
       inkscape:rounded="0"
       inkscape:randomized="-2.77556e-17"
       d="m -177.14285,359.85375 -37.28572,-21.13353 -36.94503,-21.72361 -0.34068,-42.85714 0.34068,-42.85715 36.94503,-21.7236 37.28571,-21.13354 37.28572,21.13354 36.94504,21.7236 0.34067,42.85715 -0.34067,42.85714 -36.94504,21.7236 z"
       transform="matrix(0.26771002,0.15295781,-0.14280409,0.26554843,963.36249,125.9713)" />
    <path
       style="display:inline;fill:none;fill-opacity:1;stroke:#ff0000;stroke-width:0.71811604;stroke-miterlimit:4;stroke-dasharray:none;stroke-opacity:1"
       d="m 731.9557,147.54692 a 10.413304,10.413286 0 0 1 10.4115,10.41386 10.413304,10.413286 0 0 1 -10.4115,10.41147 10.413304,10.413286 0 0 1 -10.4139,-10.41147 10.413304,10.413286 0 0 1 10.4139,-10.41386 z"
       id="path4611-2-9-2-9-6"
       inkscape:connector-curvature="0"
       transform="matrix(0.98683253,0,0,0.98683574,-38.458246,28.371805)" />
    <ellipse
       style="display:inline;fill:none;fill-opacity:1;stroke:#ff0000;stroke-width:0.93599325;stroke-miterlimit:4;stroke-dasharray:none;stroke-opacity:1"
       id="path4876-8-1"
       cx="795.07129"
       cy="155.97989"
       rx="14.0399"
       ry="14.039899"
       transform="matrix(0.7571223,0,0,0.75712235,135.396,65.801787)" />
    <path
       style="display:inline;fill:none;fill-opacity:1;stroke:#ff0000;stroke-width:0.70831972;stroke-miterlimit:4;stroke-dasharray:none;stroke-opacity:1"
       d="m 734.98495,207.26809 a 38.6329,38.574589 0 0 1 38.6321,38.57574 38.6329,38.574589 0 0 1 -38.6321,38.5738 38.6329,38.574589 0 0 1 -38.6321,-38.5738 38.6329,38.574589 0 0 1 38.6321,-38.57574 z"
       id="path4591-2"
       inkscape:connector-curvature="0"
       transform="matrix(0.99974653,0,0,1.0012188,-40.310463,16.062208)" />
    <path
       style="display:inline;fill:none;fill-opacity:1;stroke:#ff0000;stroke-width:0.58771521;stroke-miterlimit:4;stroke-dasharray:none;stroke-opacity:1"
       d="m 944.49263,231.54603 a 14.40934,14.387591 0 0 1 14.4099,14.38815 14.40934,14.387591 0 0 1 -14.4099,14.38816 14.40934,14.387591 0 0 1 -14.4099,-14.38816 14.40934,14.387591 0 0 1 14.4099,-14.38815 z"
       id="path4597-9"
       inkscape:connector-curvature="0"
       transform="matrix(1.2048985,0,0,1.206683,-145.89177,-13.300033)" />
    <path
       style="display:inline;fill:none;fill-opacity:1;stroke:#ff0000;stroke-width:0.71487826;stroke-miterlimit:4;stroke-dasharray:none;stroke-opacity:1"
       d="m 734.98495,207.26809 a 38.6329,38.574589 0 0 1 38.6321,38.57574 38.6329,38.574589 0 0 1 -38.6321,38.5738 38.6329,38.574589 0 0 1 -38.6321,-38.5738 38.6329,38.574589 0 0 1 38.6321,-38.57574 z"
       id="path4591-2-3"
       inkscape:connector-curvature="0"
       transform="matrix(0.99057461,0,0,0.99203328,72.375646,18.674756)" />
    <path
       style="display:inline;fill:none;fill-opacity:1;stroke:#ff0000;stroke-width:0.57596099;stroke-miterlimit:4;stroke-dasharray:none;stroke-opacity:1"
       d="m 944.49263,231.54603 a 14.40934,14.387591 0 0 1 14.4099,14.38815 14.40934,14.387591 0 0 1 -14.4099,14.38816 14.40934,14.387591 0 0 1 -14.4099,-14.38816 14.40934,14.387591 0 0 1 14.4099,-14.38815 z"
       id="path4597-9-1"
       inkscape:connector-curvature="0"
       transform="matrix(1.2294879,0,0,1.2313096,-175.84856,-79.947107)" />
    <path
       sodipodi:type="star"
       style="display:inline;fill:none;fill-opacity:1;stroke:#ff0000;stroke-width:2.34168816;stroke-miterlimit:4;stroke-dasharray:none;stroke-opacity:1"
       id="path4653-3-9"
       sodipodi:sides="6"
       sodipodi:cx="-177.14285"
       sodipodi:cy="274.13947"
       sodipodi:r1="85.714287"
       sodipodi:r2="74.571426"
       sodipodi:arg1="1.5707963"
       sodipodi:arg2="2.0943951"
       inkscape:flatsided="false"
       inkscape:rounded="0"
       inkscape:randomized="-2.77556e-17"
       d="m -177.14285,359.85375 -37.28572,-21.13353 -36.94503,-21.72361 -0.34068,-42.85714 0.34068,-42.85715 36.94503,-21.7236 37.28571,-21.13354 37.28572,21.13354 36.94504,21.7236 0.34067,42.85715 -0.34067,42.85714 -36.94504,21.7236 z"
       transform="matrix(0.26588336,0.1517731,-0.14182969,0.26349167,891.72848,126.50245)" />
    <path
       style="display:inline;fill:none;fill-opacity:1;stroke:#ff0000;stroke-width:0.78684515;stroke-miterlimit:4;stroke-dasharray:none;stroke-opacity:1"
       d="m 106.12031,1045.0967 71.22395,0 0,18.0743 -71.22395,0 0,-18.0743 z"
       id="path4579-4"
       inkscape:connector-curvature="0"
       transform="matrix(0.95950181,0,0,0.84538249,11.940687,-307.38646)" />
    <path
       style="display:inline;fill:none;fill-opacity:1;stroke:#ff0000;stroke-width:0.78684515;stroke-miterlimit:4;stroke-dasharray:none;stroke-opacity:1"
       d="m 354.15181,1045.0967 71.22395,0 0,18.0743 -71.22395,0 0,-18.0743 z"
       id="path4577-7"
       inkscape:connector-curvature="0"
       transform="matrix(0.95950181,0,0,0.84538249,9.5839369,-307.38647)" />
    <path
       transform="matrix(0.99844747,0,0,1.0000071,408.18149,79.152504)"
       style="display:inline;fill:none;fill-opacity:1;stroke:#ff0000;stroke-width:0.70920968;stroke-miterlimit:4;stroke-dasharray:none;stroke-opacity:1"
       d="m 61.402024,166.39778 a 8.5169569,8.5041018 0 0 1 8.517437,8.50457 8.5169569,8.5041018 0 0 1 -8.517437,8.50263 8.5169569,8.5041018 0 0 1 -8.517437,-8.50263 8.5169569,8.5041018 0 0 1 8.517437,-8.50457 z"
       id="path4595-8"
       inkscape:connector-curvature="0" />
    <path
       transform="matrix(0.99844747,0,0,1.0000071,408.18149,84.640044)"
       style="display:inline;fill:none;fill-opacity:1;stroke:#ff0000;stroke-width:0.70920968;stroke-miterlimit:4;stroke-dasharray:none;stroke-opacity:1"
       d="m 61.402024,290.59439 a 8.5169569,8.5041018 0 0 1 8.517437,8.50458 8.5169569,8.5041018 0 0 1 -8.517437,8.50262 8.5169569,8.5041018 0 0 1 -8.517437,-8.50262 8.5169569,8.5041018 0 0 1 8.517437,-8.50458 z"
       id="path4589-4"
       inkscape:connector-curvature="0" />
    <rect
       style="fill:none;fill-opacity:1;stroke:#ff0000;stroke-width:0.70866144;stroke-miterlimit:4;stroke-dasharray:none;stroke-opacity:1"
       id="rect5676"
       height="244.28572"
       x="-74.285713"
       y="176.9966"
       transform="translate(0,35.433071)" />
    <path
       transform="matrix(0.99844747,0,0,1.0000071,549.9146,415.77352)"
       style="display:inline;fill:none;fill-opacity:1;stroke:#ff0000;stroke-width:0.70920968;stroke-miterlimit:4;stroke-dasharray:none;stroke-opacity:1"
       d="m 61.402024,166.39778 a 8.5169569,8.5041018 0 0 1 8.517437,8.50457 8.5169569,8.5041018 0 0 1 -8.517437,8.50263 8.5169569,8.5041018 0 0 1 -8.517437,-8.50263 8.5169569,8.5041018 0 0 1 8.517437,-8.50457 z"
       id="path4595-3"
       inkscape:connector-curvature="0" />
    <path
       transform="matrix(0.99844747,0,0,1.0000071,549.9146,421.26106)"
       style="display:inline;fill:none;fill-opacity:1;stroke:#ff0000;stroke-width:0.70920968;stroke-miterlimit:4;stroke-dasharray:none;stroke-opacity:1"
       d="m 61.402024,290.59439 a 8.5169569,8.5041018 0 0 1 8.517437,8.50458 8.5169569,8.5041018 0 0 1 -8.517437,8.50262 8.5169569,8.5041018 0 0 1 -8.517437,-8.50262 8.5169569,8.5041018 0 0 1 8.517437,-8.50458 z"
       id="path4589-6"
       inkscape:connector-curvature="0" />
    <path
       transform="matrix(0.99844747,0,0,1.0000071,957.39492,415.77352)"
       style="display:inline;fill:none;fill-opacity:1;stroke:#ff0000;stroke-width:0.70920968;stroke-miterlimit:4;stroke-dasharray:none;stroke-opacity:1"
       d="m 61.402024,166.39778 a 8.5169569,8.5041018 0 0 1 8.517437,8.50457 8.5169569,8.5041018 0 0 1 -8.517437,8.50263 8.5169569,8.5041018 0 0 1 -8.517437,-8.50263 8.5169569,8.5041018 0 0 1 8.517437,-8.50457 z"
       id="path4595-8-1"
       inkscape:connector-curvature="0" />
    <path
       transform="matrix(0.99844747,0,0,1.0000071,957.39492,421.26106)"
       style="display:inline;fill:none;fill-opacity:1;stroke:#ff0000;stroke-width:0.70920968;stroke-miterlimit:4;stroke-dasharray:none;stroke-opacity:1"
       d="m 61.402024,290.59439 a 8.5169569,8.5041018 0 0 1 8.517437,8.50458 8.5169569,8.5041018 0 0 1 -8.517437,8.50262 8.5169569,8.5041018 0 0 1 -8.517437,-8.50262 8.5169569,8.5041018 0 0 1 8.517437,-8.50458 z"
       id="path4589-4-5"
       inkscape:connector-curvature="0" />
    <path
       transform="matrix(1.0114655,0,0,1.0070013,-9.3437658,113.15836)"
       style="display:inline;fill:none;fill-opacity:1;stroke:#ff0000;stroke-width:0.70217961;stroke-miterlimit:4;stroke-dasharray:none;stroke-opacity:1"
       d="m 814.96144,507.26572 a 31.176896,31.316669 0 0 1 31.17621,31.31794 31.176896,31.316669 0 0 1 -31.17621,31.31597 31.176896,31.316669 0 0 1 -31.17816,-31.31597 31.176896,31.316669 0 0 1 31.17816,-31.31794 z"
       id="path4609"
       inkscape:connector-curvature="0" />
  </g>
  <g
     inkscape:groupmode="layer"
     id="layer3"
     inkscape:label="gravure"
     style="display:inline"
     transform="translate(0,-35.433071)">
    <g
       style="display:inline;stroke-width:3.3389318;stroke-miterlimit:4;stroke-dasharray:none"
       id="g4551"
       transform="matrix(0.21224196,0,0,0.21224196,212.59843,784.21572)">
      <path
         style="fill:#ff6699;stroke-width:3.3389318;stroke-miterlimit:4;stroke-dasharray:none"
         d="m 375,103.751 -124.999,125 -125,-125 -125.001,125 125.001,125.001 125,124.999 L 375,353.752 500,228.751 Z"
         id="polygon4534"
         inkscape:connector-curvature="0" />
      <path
         style="fill:#ff3366;stroke-width:3.3389318;stroke-miterlimit:4;stroke-dasharray:none"
         d="m 125.001,21.25 0,82.501 -125.001,125 0,-82.5 z"
         id="polygon4536"
         inkscape:connector-curvature="0" />
      <path
         style="fill:#ff3366;stroke-width:3.3389318;stroke-miterlimit:4;stroke-dasharray:none"
         d="m 375,21.25 0,82.501 -124.999,125 0,-82.5 z"
         id="polygon4538"
         inkscape:connector-curvature="0" />
      <path
         style="fill:#9f004c;stroke-width:3.3389318;stroke-miterlimit:4;stroke-dasharray:none"
         d="m 250.001,228.751 0,-82.5 -125,-125.001 0,82.501 z"
         id="polygon4540"
         inkscape:connector-curvature="0" />
      <path
         style="fill:#9f004c;stroke-width:3.3389318;stroke-miterlimit:4;stroke-dasharray:none"
         d="m 500,228.751 0,-82.5 -125,-125.001 0,82.501 z"
         id="polygon4542"
         inkscape:connector-curvature="0" />
    </g>
    <rect
       style="display:inline;fill:none;fill-opacity:1;stroke:#ff0000;stroke-width:0.71132833;stroke-miterlimit:4;stroke-dasharray:none;stroke-opacity:1"
       id="rect4691"
       width="283.46457"
       height="141.73228"
       x="1240.3541"
       y="779.33093"
       transform="matrix(0.99749687,0,0,0.99500624,-138.46938,4.4423059)" />
    <rect
       style="fill:none;fill-opacity:1;stroke:#ff0000;stroke-width:0.70950609;stroke-miterlimit:4;stroke-dasharray:none;stroke-opacity:1"
       id="rect4694"
       width="176.77263"
       height="531.10333"
       x="1346.653"
       y="166.7318"
       transform="matrix(0.99821514,0,0,0.99940435,-139.17084,0.25749344)" />
    <rect
       style="display:inline;fill:none;fill-opacity:1;stroke:#ff0000;stroke-width:0.7109018;stroke-miterlimit:4;stroke-dasharray:none;stroke-opacity:1"
       id="rect4696"
       width="265.74802"
       height="194.8819"
       x="1240.3541"
       y="938.77972"
       transform="matrix(0.9973321,0,0,0.99636536,-138.26528,3.9629405)" />
  </g>
  <style
     id="style4532"
     type="text/css">
		.p1 {fill:#f69;}
		.p2 {fill:#f36;}
		.p3 {fill:#9f004c;}
	</style>
</svg>
