  0
SECTION
  2
BLOCKS
  0
ENDSEC
  0
SECTION
  2
ENTITIES
  0
LINE
  8
0
 10
265.83
 20
43.0052
 11
266.159
 21
43.0207
  0
LINE
  8
0
 10
266.159
 20
43.0207
 11
266.488
 21
43.0466
  0
LINE
  8
0
 10
266.488
 20
43.0466
 11
266.816
 21
43.0828
  0
LINE
  8
0
 10
266.816
 20
43.0828
 11
267.143
 21
43.1293
  0
LINE
  8
0
 10
267.143
 20
43.1293
 11
267.467
 21
43.186
  0
LINE
  8
0
 10
267.467
 20
43.186
 11
267.79
 21
43.2529
  0
LINE
  8
0
 10
267.79
 20
43.2529
 11
268.111
 21
43.3299
  0
LINE
  8
0
 10
268.111
 20
43.3299
 11
268.429
 21
43.4169
  0
LINE
  8
0
 10
268.429
 20
43.4169
 11
268.745
 21
43.5139
  0
LINE
  8
0
 10
268.745
 20
43.5139
 11
269.057
 21
43.6207
  0
LINE
  8
0
 10
269.057
 20
43.6207
 11
269.365
 21
43.7373
  0
LINE
  8
0
 10
269.365
 20
43.7373
 11
269.67
 21
43.8636
  0
LINE
  8
0
 10
269.67
 20
43.8636
 11
269.971
 21
43.9993
  0
LINE
  8
0
 10
269.971
 20
43.9993
 11
270.267
 21
44.1444
  0
LINE
  8
0
 10
270.267
 20
44.1444
 11
270.558
 21
44.2988
  0
LINE
  8
0
 10
270.558
 20
44.2988
 11
270.845
 21
44.4622
  0
LINE
  8
0
 10
270.845
 20
44.4622
 11
271.126
 21
44.6346
  0
LINE
  8
0
 10
271.126
 20
44.6346
 11
271.402
 21
44.8156
  0
LINE
  8
0
 10
271.402
 20
44.8156
 11
271.672
 21
45.0053
  0
LINE
  8
0
 10
271.672
 20
45.0053
 11
271.936
 21
45.2034
  0
LINE
  8
0
 10
271.936
 20
45.2034
 11
272.193
 21
45.4096
  0
LINE
  8
0
 10
272.193
 20
45.4096
 11
272.444
 21
45.6238
  0
LINE
  8
0
 10
272.444
 20
45.6238
 11
272.688
 21
45.8458
  0
LINE
  8
0
 10
272.688
 20
45.8458
 11
272.925
 21
46.0754
  0
LINE
  8
0
 10
272.925
 20
46.0754
 11
273.154
 21
46.3122
  0
LINE
  8
0
 10
273.154
 20
46.3122
 11
273.376
 21
46.5562
  0
LINE
  8
0
 10
273.376
 20
46.5562
 11
273.59
 21
46.807
  0
LINE
  8
0
 10
273.59
 20
46.807
 11
273.797
 21
47.0645
  0
LINE
  8
0
 10
273.797
 20
47.0645
 11
273.995
 21
47.3282
  0
LINE
  8
0
 10
273.995
 20
47.3282
 11
274.184
 21
47.5981
  0
LINE
  8
0
 10
274.184
 20
47.5981
 11
274.365
 21
47.8738
  0
LINE
  8
0
 10
274.365
 20
47.8738
 11
274.538
 21
48.1551
  0
LINE
  8
0
 10
274.538
 20
48.1551
 11
274.701
 21
48.4416
  0
LINE
  8
0
 10
274.701
 20
48.4416
 11
274.856
 21
48.7331
  0
LINE
  8
0
 10
274.856
 20
48.7331
 11
275.001
 21
49.0293
  0
LINE
  8
0
 10
275.001
 20
49.0293
 11
275.136
 21
49.3299
  0
LINE
  8
0
 10
275.136
 20
49.3299
 11
275.263
 21
49.6347
  0
LINE
  8
0
 10
275.263
 20
49.6347
 11
275.379
 21
49.9432
  0
LINE
  8
0
 10
275.379
 20
49.9432
 11
275.486
 21
50.2553
  0
LINE
  8
0
 10
275.486
 20
50.2553
 11
275.583
 21
50.5706
  0
LINE
  8
0
 10
275.583
 20
50.5706
 11
275.67
 21
50.8887
  0
LINE
  8
0
 10
275.67
 20
50.8887
 11
275.747
 21
51.2095
  0
LINE
  8
0
 10
275.747
 20
51.2095
 11
275.814
 21
51.5325
  0
LINE
  8
0
 10
275.814
 20
51.5325
 11
275.871
 21
51.8574
  0
LINE
  8
0
 10
275.871
 20
51.8574
 11
275.917
 21
52.184
  0
LINE
  8
0
 10
275.917
 20
52.184
 11
275.953
 21
52.5119
  0
LINE
  8
0
 10
275.953
 20
52.5119
 11
275.979
 21
52.8407
  0
LINE
  8
0
 10
275.979
 20
52.8407
 11
275.995
 21
53.1702
  0
LINE
  8
0
 10
275.995
 20
53.1702
 11
276
 21
53.5
  0
LINE
  8
0
 10
276
 20
53.5
 11
275.995
 21
53.8298
  0
LINE
  8
0
 10
275.995
 20
53.8298
 11
275.979
 21
54.1593
  0
LINE
  8
0
 10
275.979
 20
54.1593
 11
275.953
 21
54.4881
  0
LINE
  8
0
 10
275.953
 20
54.4881
 11
275.917
 21
54.816
  0
LINE
  8
0
 10
275.917
 20
54.816
 11
275.871
 21
55.1425
  0
LINE
  8
0
 10
275.871
 20
55.1425
 11
275.814
 21
55.4675
  0
LINE
  8
0
 10
275.814
 20
55.4675
 11
275.747
 21
55.7905
  0
LINE
  8
0
 10
275.747
 20
55.7905
 11
275.67
 21
56.1112
  0
LINE
  8
0
 10
275.67
 20
56.1112
 11
275.583
 21
56.4294
  0
LINE
  8
0
 10
275.583
 20
56.4294
 11
275.486
 21
56.7447
  0
LINE
  8
0
 10
275.486
 20
56.7447
 11
275.379
 21
57.0567
  0
LINE
  8
0
 10
275.379
 20
57.0567
 11
275.263
 21
57.3653
  0
LINE
  8
0
 10
275.263
 20
57.3653
 11
275.136
 21
57.67
  0
LINE
  8
0
 10
275.136
 20
57.67
 11
275.001
 21
57.9707
  0
LINE
  8
0
 10
275.001
 20
57.9707
 11
274.856
 21
58.2669
  0
LINE
  8
0
 10
274.856
 20
58.2669
 11
274.701
 21
58.5584
  0
LINE
  8
0
 10
274.701
 20
58.5584
 11
274.538
 21
58.8449
  0
LINE
  8
0
 10
274.538
 20
58.8449
 11
274.365
 21
59.1262
  0
LINE
  8
0
 10
274.365
 20
59.1262
 11
274.184
 21
59.4019
  0
LINE
  8
0
 10
274.184
 20
59.4019
 11
273.995
 21
59.6717
  0
LINE
  8
0
 10
273.995
 20
59.6717
 11
273.797
 21
59.9355
  0
LINE
  8
0
 10
273.797
 20
59.9355
 11
273.59
 21
60.1929
  0
LINE
  8
0
 10
273.59
 20
60.1929
 11
273.376
 21
60.4438
  0
LINE
  8
0
 10
273.376
 20
60.4438
 11
273.154
 21
60.6877
  0
LINE
  8
0
 10
273.154
 20
60.6877
 11
272.925
 21
60.9246
  0
LINE
  8
0
 10
272.925
 20
60.9246
 11
272.688
 21
61.1542
  0
LINE
  8
0
 10
272.688
 20
61.1542
 11
272.444
 21
61.3762
  0
LINE
  8
0
 10
272.444
 20
61.3762
 11
272.193
 21
61.5904
  0
LINE
  8
0
 10
272.193
 20
61.5904
 11
271.936
 21
61.7966
  0
LINE
  8
0
 10
271.936
 20
61.7966
 11
271.672
 21
61.9947
  0
LINE
  8
0
 10
271.672
 20
61.9947
 11
271.402
 21
62.1843
  0
LINE
  8
0
 10
271.402
 20
62.1843
 11
271.126
 21
62.3654
  0
LINE
  8
0
 10
271.126
 20
62.3654
 11
270.845
 21
62.5378
  0
LINE
  8
0
 10
270.845
 20
62.5378
 11
270.558
 21
62.7012
  0
LINE
  8
0
 10
270.558
 20
62.7012
 11
270.267
 21
62.8556
  0
LINE
  8
0
 10
270.267
 20
62.8556
 11
269.971
 21
63.0007
  0
LINE
  8
0
 10
269.971
 20
63.0007
 11
269.67
 21
63.1364
  0
LINE
  8
0
 10
269.67
 20
63.1364
 11
269.365
 21
63.2626
  0
LINE
  8
0
 10
269.365
 20
63.2626
 11
269.057
 21
63.3792
  0
LINE
  8
0
 10
269.057
 20
63.3792
 11
268.745
 21
63.4861
  0
LINE
  8
0
 10
268.745
 20
63.4861
 11
268.429
 21
63.5831
  0
LINE
  8
0
 10
268.429
 20
63.5831
 11
268.111
 21
63.6701
  0
LINE
  8
0
 10
268.111
 20
63.6701
 11
267.79
 21
63.7471
  0
LINE
  8
0
 10
267.79
 20
63.7471
 11
267.467
 21
63.814
  0
LINE
  8
0
 10
267.467
 20
63.814
 11
267.143
 21
63.8707
  0
LINE
  8
0
 10
267.143
 20
63.8707
 11
266.816
 21
63.9172
  0
LINE
  8
0
 10
266.816
 20
63.9172
 11
266.488
 21
63.9534
  0
LINE
  8
0
 10
266.488
 20
63.9534
 11
266.159
 21
63.9793
  0
LINE
  8
0
 10
266.159
 20
63.9793
 11
265.83
 21
63.9948
  0
LINE
  8
0
 10
265.83
 20
63.9948
 11
265.5
 21
64
  0
LINE
  8
0
 10
265.5
 20
64
 11
10.5
 21
64
  0
LINE
  8
0
 10
10.5
 20
64
 11
10.1702
 21
63.9948
  0
LINE
  8
0
 10
10.1702
 20
63.9948
 11
9.8407
 21
63.9793
  0
LINE
  8
0
 10
9.8407
 20
63.9793
 11
9.51186
 21
63.9534
  0
LINE
  8
0
 10
9.51186
 20
63.9534
 11
9.18399
 21
63.9172
  0
LINE
  8
0
 10
9.18399
 20
63.9172
 11
8.85744
 21
63.8707
  0
LINE
  8
0
 10
8.85744
 20
63.8707
 11
8.53249
 21
63.814
  0
LINE
  8
0
 10
8.53249
 20
63.814
 11
8.20949
 21
63.7471
  0
LINE
  8
0
 10
8.20949
 20
63.7471
 11
7.88875
 21
63.6701
  0
LINE
  8
0
 10
7.88875
 20
63.6701
 11
7.57059
 21
63.5831
  0
LINE
  8
0
 10
7.57059
 20
63.5831
 11
7.25531
 21
63.4861
  0
LINE
  8
0
 10
7.25531
 20
63.4861
 11
6.94324
 21
63.3792
  0
LINE
  8
0
 10
6.94324
 20
63.3792
 11
6.63469
 21
63.2626
  0
LINE
  8
0
 10
6.63469
 20
63.2626
 11
6.32994
 21
63.1364
  0
LINE
  8
0
 10
6.32994
 20
63.1364
 11
6.02931
 21
63.0007
  0
LINE
  8
0
 10
6.02931
 20
63.0007
 11
5.73309
 21
62.8556
  0
LINE
  8
0
 10
5.73309
 20
62.8556
 11
5.44157
 21
62.7012
  0
LINE
  8
0
 10
5.44157
 20
62.7012
 11
5.15506
 21
62.5378
  0
LINE
  8
0
 10
5.15506
 20
62.5378
 11
4.87381
 21
62.3654
  0
LINE
  8
0
 10
4.87381
 20
62.3654
 11
4.59811
 21
62.1843
  0
LINE
  8
0
 10
4.59811
 20
62.1843
 11
4.32825
 21
61.9947
  0
LINE
  8
0
 10
4.32825
 20
61.9947
 11
4.06447
 21
61.7966
  0
LINE
  8
0
 10
4.06447
 20
61.7966
 11
3.80704
 21
61.5904
  0
LINE
  8
0
 10
3.80704
 20
61.5904
 11
3.55621
 21
61.3762
  0
LINE
  8
0
 10
3.55621
 20
61.3762
 11
3.31224
 21
61.1542
  0
LINE
  8
0
 10
3.31224
 20
61.1542
 11
3.07538
 21
60.9246
  0
LINE
  8
0
 10
3.07538
 20
60.9246
 11
2.84583
 21
60.6877
  0
LINE
  8
0
 10
2.84583
 20
60.6877
 11
2.62383
 21
60.4438
  0
LINE
  8
0
 10
2.62383
 20
60.4438
 11
2.40961
 21
60.1929
  0
LINE
  8
0
 10
2.40961
 20
60.1929
 11
2.20337
 21
59.9355
  0
LINE
  8
0
 10
2.20337
 20
59.9355
 11
2.00531
 21
59.6717
  0
LINE
  8
0
 10
2.00531
 20
59.6717
 11
1.81564
 21
59.4019
  0
LINE
  8
0
 10
1.81564
 20
59.4019
 11
1.63455
 21
59.1262
  0
LINE
  8
0
 10
1.63455
 20
59.1262
 11
1.4622
 21
58.8449
  0
LINE
  8
0
 10
1.4622
 20
58.8449
 11
1.29877
 21
58.5584
  0
LINE
  8
0
 10
1.29877
 20
58.5584
 11
1.14442
 21
58.2669
  0
LINE
  8
0
 10
1.14442
 20
58.2669
 11
0.999313
 21
57.9707
  0
LINE
  8
0
 10
0.999313
 20
57.9707
 11
0.863571
 21
57.67
  0
LINE
  8
0
 10
0.863571
 20
57.67
 11
0.737335
 21
57.3653
  0
LINE
  8
0
 10
0.737335
 20
57.3653
 11
0.620743
 21
57.0567
  0
LINE
  8
0
 10
0.620743
 20
57.0567
 11
0.513901
 21
56.7447
  0
LINE
  8
0
 10
0.513901
 20
56.7447
 11
0.416916
 21
56.4294
  0
LINE
  8
0
 10
0.416916
 20
56.4294
 11
0.329865
 21
56.1112
  0
LINE
  8
0
 10
0.329865
 20
56.1112
 11
0.252869
 21
55.7905
  0
LINE
  8
0
 10
0.252869
 20
55.7905
 11
0.185974
 21
55.4675
  0
LINE
  8
0
 10
0.185974
 20
55.4675
 11
0.129257
 21
55.1425
  0
LINE
  8
0
 10
0.129257
 20
55.1425
 11
0.0827942
 21
54.816
  0
LINE
  8
0
 10
0.0827942
 20
54.816
 11
0.0465851
 21
54.4881
  0
LINE
  8
0
 10
0.0465851
 20
54.4881
 11
0.0207062
 21
54.1593
  0
LINE
  8
0
 10
0.0207062
 20
54.1593
 11
0.00517273
 21
53.8298
  0
LINE
  8
0
 10
0.00517273
 20
53.8298
 11
0
 21
53.5
  0
LINE
  8
0
 10
0
 20
53.5
 11
0.00517273
 21
53.1702
  0
LINE
  8
0
 10
0.00517273
 20
53.1702
 11
0.0207062
 21
52.8407
  0
LINE
  8
0
 10
0.0207062
 20
52.8407
 11
0.0465851
 21
52.5119
  0
LINE
  8
0
 10
0.0465851
 20
52.5119
 11
0.0827942
 21
52.184
  0
LINE
  8
0
 10
0.0827942
 20
52.184
 11
0.129257
 21
51.8574
  0
LINE
  8
0
 10
0.129257
 20
51.8574
 11
0.185974
 21
51.5325
  0
LINE
  8
0
 10
0.185974
 20
51.5325
 11
0.252869
 21
51.2095
  0
LINE
  8
0
 10
0.252869
 20
51.2095
 11
0.329865
 21
50.8887
  0
LINE
  8
0
 10
0.329865
 20
50.8887
 11
0.416916
 21
50.5706
  0
LINE
  8
0
 10
0.416916
 20
50.5706
 11
0.513901
 21
50.2553
  0
LINE
  8
0
 10
0.513901
 20
50.2553
 11
0.620743
 21
49.9432
  0
LINE
  8
0
 10
0.620743
 20
49.9432
 11
0.737335
 21
49.6347
  0
LINE
  8
0
 10
0.737335
 20
49.6347
 11
0.863571
 21
49.3299
  0
LINE
  8
0
 10
0.863571
 20
49.3299
 11
0.999313
 21
49.0293
  0
LINE
  8
0
 10
0.999313
 20
49.0293
 11
1.14442
 21
48.7331
  0
LINE
  8
0
 10
1.14442
 20
48.7331
 11
1.29877
 21
48.4416
  0
LINE
  8
0
 10
1.29877
 20
48.4416
 11
1.4622
 21
48.1551
  0
LINE
  8
0
 10
1.4622
 20
48.1551
 11
1.63455
 21
47.8738
  0
LINE
  8
0
 10
1.63455
 20
47.8738
 11
1.81564
 21
47.5981
  0
LINE
  8
0
 10
1.81564
 20
47.5981
 11
2.00531
 21
47.3282
  0
LINE
  8
0
 10
2.00531
 20
47.3282
 11
2.20337
 21
47.0645
  0
LINE
  8
0
 10
2.20337
 20
47.0645
 11
2.40961
 21
46.807
  0
LINE
  8
0
 10
2.40961
 20
46.807
 11
2.62383
 21
46.5562
  0
LINE
  8
0
 10
2.62383
 20
46.5562
 11
2.84583
 21
46.3122
  0
LINE
  8
0
 10
2.84583
 20
46.3122
 11
3.07538
 21
46.0754
  0
LINE
  8
0
 10
3.07538
 20
46.0754
 11
3.31224
 21
45.8458
  0
LINE
  8
0
 10
3.31224
 20
45.8458
 11
3.55621
 21
45.6238
  0
LINE
  8
0
 10
3.55621
 20
45.6238
 11
3.80704
 21
45.4096
  0
LINE
  8
0
 10
3.80704
 20
45.4096
 11
4.06447
 21
45.2034
  0
LINE
  8
0
 10
4.06447
 20
45.2034
 11
4.32825
 21
45.0053
  0
LINE
  8
0
 10
4.32825
 20
45.0053
 11
4.59811
 21
44.8156
  0
LINE
  8
0
 10
4.59811
 20
44.8156
 11
4.87381
 21
44.6346
  0
LINE
  8
0
 10
4.87381
 20
44.6346
 11
5.15506
 21
44.4622
  0
LINE
  8
0
 10
5.15506
 20
44.4622
 11
5.44157
 21
44.2988
  0
LINE
  8
0
 10
5.44157
 20
44.2988
 11
5.73309
 21
44.1444
  0
LINE
  8
0
 10
5.73309
 20
44.1444
 11
6.02931
 21
43.9993
  0
LINE
  8
0
 10
6.02931
 20
43.9993
 11
6.32994
 21
43.8636
  0
LINE
  8
0
 10
6.32994
 20
43.8636
 11
6.63469
 21
43.7373
  0
LINE
  8
0
 10
6.63469
 20
43.7373
 11
6.94324
 21
43.6207
  0
LINE
  8
0
 10
6.94324
 20
43.6207
 11
7.25531
 21
43.5139
  0
LINE
  8
0
 10
7.25531
 20
43.5139
 11
7.57059
 21
43.4169
  0
LINE
  8
0
 10
7.57059
 20
43.4169
 11
7.88875
 21
43.3299
  0
LINE
  8
0
 10
7.88875
 20
43.3299
 11
8.20949
 21
43.2529
  0
LINE
  8
0
 10
8.20949
 20
43.2529
 11
8.53249
 21
43.186
  0
LINE
  8
0
 10
8.53249
 20
43.186
 11
8.85744
 21
43.1293
  0
LINE
  8
0
 10
8.85744
 20
43.1293
 11
9.18399
 21
43.0828
  0
LINE
  8
0
 10
9.18399
 20
43.0828
 11
9.51186
 21
43.0466
  0
LINE
  8
0
 10
9.51186
 20
43.0466
 11
9.8407
 21
43.0207
  0
LINE
  8
0
 10
9.8407
 20
43.0207
 11
10.1702
 21
43.0052
  0
LINE
  8
0
 10
10.1702
 20
43.0052
 11
10.5
 21
43
  0
LINE
  8
0
 10
10.5
 20
43
 11
265.5
 21
43
  0
LINE
  8
0
 10
265.5
 20
43
 11
265.83
 21
43.0052
  0
LINE
  8
0
 10
137.921
 20
51.0012
 11
137.843
 21
51.0049
  0
LINE
  8
0
 10
137.843
 20
51.0049
 11
137.765
 21
51.0111
  0
LINE
  8
0
 10
137.765
 20
51.0111
 11
137.687
 21
51.0197
  0
LINE
  8
0
 10
137.687
 20
51.0197
 11
137.609
 21
51.0308
  0
LINE
  8
0
 10
137.609
 20
51.0308
 11
137.532
 21
51.0443
  0
LINE
  8
0
 10
137.532
 20
51.0443
 11
137.455
 21
51.0602
  0
LINE
  8
0
 10
137.455
 20
51.0602
 11
137.378
 21
51.0786
  0
LINE
  8
0
 10
137.378
 20
51.0786
 11
137.303
 21
51.0993
  0
LINE
  8
0
 10
137.303
 20
51.0993
 11
137.227
 21
51.1224
  0
LINE
  8
0
 10
137.227
 20
51.1224
 11
137.153
 21
51.1478
  0
LINE
  8
0
 10
137.153
 20
51.1478
 11
137.08
 21
51.1756
  0
LINE
  8
0
 10
137.08
 20
51.1756
 11
137.007
 21
51.2056
  0
LINE
  8
0
 10
137.007
 20
51.2056
 11
136.936
 21
51.2379
  0
LINE
  8
0
 10
136.936
 20
51.2379
 11
136.865
 21
51.2725
  0
LINE
  8
0
 10
136.865
 20
51.2725
 11
136.796
 21
51.3092
  0
LINE
  8
0
 10
136.796
 20
51.3092
 11
136.727
 21
51.3482
  0
LINE
  8
0
 10
136.727
 20
51.3482
 11
136.66
 21
51.3892
  0
LINE
  8
0
 10
136.66
 20
51.3892
 11
136.595
 21
51.4323
  0
LINE
  8
0
 10
136.595
 20
51.4323
 11
136.531
 21
51.4775
  0
LINE
  8
0
 10
136.531
 20
51.4775
 11
136.468
 21
51.5246
  0
LINE
  8
0
 10
136.468
 20
51.5246
 11
136.406
 21
51.5737
  0
LINE
  8
0
 10
136.406
 20
51.5737
 11
136.347
 21
51.6247
  0
LINE
  8
0
 10
136.347
 20
51.6247
 11
136.289
 21
51.6776
  0
LINE
  8
0
 10
136.289
 20
51.6776
 11
136.232
 21
51.7322
  0
LINE
  8
0
 10
136.232
 20
51.7322
 11
136.178
 21
51.7886
  0
LINE
  8
0
 10
136.178
 20
51.7886
 11
136.125
 21
51.8467
  0
LINE
  8
0
 10
136.125
 20
51.8467
 11
136.074
 21
51.9064
  0
LINE
  8
0
 10
136.074
 20
51.9064
 11
136.025
 21
51.9677
  0
LINE
  8
0
 10
136.025
 20
51.9677
 11
135.977
 21
52.0305
  0
LINE
  8
0
 10
135.977
 20
52.0305
 11
135.932
 21
52.0948
  0
LINE
  8
0
 10
135.932
 20
52.0948
 11
135.889
 21
52.1604
  0
LINE
  8
0
 10
135.889
 20
52.1604
 11
135.848
 21
52.2274
  0
LINE
  8
0
 10
135.848
 20
52.2274
 11
135.809
 21
52.2956
  0
LINE
  8
0
 10
135.809
 20
52.2956
 11
135.772
 21
52.365
  0
LINE
  8
0
 10
135.772
 20
52.365
 11
135.738
 21
52.4356
  0
LINE
  8
0
 10
135.738
 20
52.4356
 11
135.706
 21
52.5071
  0
LINE
  8
0
 10
135.706
 20
52.5071
 11
135.676
 21
52.5797
  0
LINE
  8
0
 10
135.676
 20
52.5797
 11
135.648
 21
52.6532
  0
LINE
  8
0
 10
135.648
 20
52.6532
 11
135.622
 21
52.7275
  0
LINE
  8
0
 10
135.622
 20
52.7275
 11
135.599
 21
52.8025
  0
LINE
  8
0
 10
135.599
 20
52.8025
 11
135.579
 21
52.8783
  0
LINE
  8
0
 10
135.579
 20
52.8783
 11
135.56
 21
52.9547
  0
LINE
  8
0
 10
135.56
 20
52.9547
 11
135.544
 21
53.0316
  0
LINE
  8
0
 10
135.544
 20
53.0316
 11
135.531
 21
53.1089
  0
LINE
  8
0
 10
135.531
 20
53.1089
 11
135.52
 21
53.1867
  0
LINE
  8
0
 10
135.52
 20
53.1867
 11
135.511
 21
53.2647
  0
LINE
  8
0
 10
135.511
 20
53.2647
 11
135.505
 21
53.343
  0
LINE
  8
0
 10
135.505
 20
53.343
 11
135.501
 21
53.4215
  0
LINE
  8
0
 10
135.501
 20
53.4215
 11
135.5
 21
53.5
  0
LINE
  8
0
 10
135.5
 20
53.5
 11
135.501
 21
53.5785
  0
LINE
  8
0
 10
135.501
 20
53.5785
 11
135.505
 21
53.657
  0
LINE
  8
0
 10
135.505
 20
53.657
 11
135.511
 21
53.7353
  0
LINE
  8
0
 10
135.511
 20
53.7353
 11
135.52
 21
53.8133
  0
LINE
  8
0
 10
135.52
 20
53.8133
 11
135.531
 21
53.8911
  0
LINE
  8
0
 10
135.531
 20
53.8911
 11
135.544
 21
53.9684
  0
LINE
  8
0
 10
135.544
 20
53.9684
 11
135.56
 21
54.0453
  0
LINE
  8
0
 10
135.56
 20
54.0453
 11
135.579
 21
54.1217
  0
LINE
  8
0
 10
135.579
 20
54.1217
 11
135.599
 21
54.1975
  0
LINE
  8
0
 10
135.599
 20
54.1975
 11
135.622
 21
54.2725
  0
LINE
  8
0
 10
135.622
 20
54.2725
 11
135.648
 21
54.3468
  0
LINE
  8
0
 10
135.648
 20
54.3468
 11
135.676
 21
54.4203
  0
LINE
  8
0
 10
135.676
 20
54.4203
 11
135.706
 21
54.4929
  0
LINE
  8
0
 10
135.706
 20
54.4929
 11
135.738
 21
54.5644
  0
LINE
  8
0
 10
135.738
 20
54.5644
 11
135.772
 21
54.635
  0
LINE
  8
0
 10
135.772
 20
54.635
 11
135.809
 21
54.7044
  0
LINE
  8
0
 10
135.809
 20
54.7044
 11
135.848
 21
54.7726
  0
LINE
  8
0
 10
135.848
 20
54.7726
 11
135.889
 21
54.8396
  0
LINE
  8
0
 10
135.889
 20
54.8396
 11
135.932
 21
54.9052
  0
LINE
  8
0
 10
135.932
 20
54.9052
 11
135.977
 21
54.9695
  0
LINE
  8
0
 10
135.977
 20
54.9695
 11
136.025
 21
55.0323
  0
LINE
  8
0
 10
136.025
 20
55.0323
 11
136.074
 21
55.0936
  0
LINE
  8
0
 10
136.074
 20
55.0936
 11
136.125
 21
55.1533
  0
LINE
  8
0
 10
136.125
 20
55.1533
 11
136.178
 21
55.2114
  0
LINE
  8
0
 10
136.178
 20
55.2114
 11
136.232
 21
55.2678
  0
LINE
  8
0
 10
136.232
 20
55.2678
 11
136.289
 21
55.3224
  0
LINE
  8
0
 10
136.289
 20
55.3224
 11
136.347
 21
55.3753
  0
LINE
  8
0
 10
136.347
 20
55.3753
 11
136.406
 21
55.4263
  0
LINE
  8
0
 10
136.406
 20
55.4263
 11
136.468
 21
55.4754
  0
LINE
  8
0
 10
136.468
 20
55.4754
 11
136.531
 21
55.5225
  0
LINE
  8
0
 10
136.531
 20
55.5225
 11
136.595
 21
55.5677
  0
LINE
  8
0
 10
136.595
 20
55.5677
 11
136.66
 21
55.6108
  0
LINE
  8
0
 10
136.66
 20
55.6108
 11
136.727
 21
55.6518
  0
LINE
  8
0
 10
136.727
 20
55.6518
 11
136.796
 21
55.6908
  0
LINE
  8
0
 10
136.796
 20
55.6908
 11
136.865
 21
55.7275
  0
LINE
  8
0
 10
136.865
 20
55.7275
 11
136.936
 21
55.7621
  0
LINE
  8
0
 10
136.936
 20
55.7621
 11
137.007
 21
55.7944
  0
LINE
  8
0
 10
137.007
 20
55.7944
 11
137.08
 21
55.8244
  0
LINE
  8
0
 10
137.08
 20
55.8244
 11
137.153
 21
55.8522
  0
LINE
  8
0
 10
137.153
 20
55.8522
 11
137.227
 21
55.8776
  0
LINE
  8
0
 10
137.227
 20
55.8776
 11
137.303
 21
55.9007
  0
LINE
  8
0
 10
137.303
 20
55.9007
 11
137.378
 21
55.9214
  0
LINE
  8
0
 10
137.378
 20
55.9214
 11
137.455
 21
55.9398
  0
LINE
  8
0
 10
137.455
 20
55.9398
 11
137.532
 21
55.9557
  0
LINE
  8
0
 10
137.532
 20
55.9557
 11
137.609
 21
55.9692
  0
LINE
  8
0
 10
137.609
 20
55.9692
 11
137.687
 21
55.9803
  0
LINE
  8
0
 10
137.687
 20
55.9803
 11
137.765
 21
55.9889
  0
LINE
  8
0
 10
137.765
 20
55.9889
 11
137.843
 21
55.9951
  0
LINE
  8
0
 10
137.843
 20
55.9951
 11
137.921
 21
55.9988
  0
LINE
  8
0
 10
137.921
 20
55.9988
 11
138
 21
56
  0
LINE
  8
0
 10
138
 20
56
 11
138.079
 21
55.9988
  0
LINE
  8
0
 10
138.079
 20
55.9988
 11
138.157
 21
55.9951
  0
LINE
  8
0
 10
138.157
 20
55.9951
 11
138.235
 21
55.9889
  0
LINE
  8
0
 10
138.235
 20
55.9889
 11
138.313
 21
55.9803
  0
LINE
  8
0
 10
138.313
 20
55.9803
 11
138.391
 21
55.9692
  0
LINE
  8
0
 10
138.391
 20
55.9692
 11
138.468
 21
55.9557
  0
LINE
  8
0
 10
138.468
 20
55.9557
 11
138.545
 21
55.9398
  0
LINE
  8
0
 10
138.545
 20
55.9398
 11
138.622
 21
55.9214
  0
LINE
  8
0
 10
138.622
 20
55.9214
 11
138.697
 21
55.9007
  0
LINE
  8
0
 10
138.697
 20
55.9007
 11
138.773
 21
55.8776
  0
LINE
  8
0
 10
138.773
 20
55.8776
 11
138.847
 21
55.8522
  0
LINE
  8
0
 10
138.847
 20
55.8522
 11
138.92
 21
55.8244
  0
LINE
  8
0
 10
138.92
 20
55.8244
 11
138.993
 21
55.7944
  0
LINE
  8
0
 10
138.993
 20
55.7944
 11
139.064
 21
55.7621
  0
LINE
  8
0
 10
139.064
 20
55.7621
 11
139.135
 21
55.7275
  0
LINE
  8
0
 10
139.135
 20
55.7275
 11
139.204
 21
55.6908
  0
LINE
  8
0
 10
139.204
 20
55.6908
 11
139.273
 21
55.6518
  0
LINE
  8
0
 10
139.273
 20
55.6518
 11
139.34
 21
55.6108
  0
LINE
  8
0
 10
139.34
 20
55.6108
 11
139.405
 21
55.5677
  0
LINE
  8
0
 10
139.405
 20
55.5677
 11
139.469
 21
55.5225
  0
LINE
  8
0
 10
139.469
 20
55.5225
 11
139.532
 21
55.4754
  0
LINE
  8
0
 10
139.532
 20
55.4754
 11
139.594
 21
55.4263
  0
LINE
  8
0
 10
139.594
 20
55.4263
 11
139.653
 21
55.3753
  0
LINE
  8
0
 10
139.653
 20
55.3753
 11
139.711
 21
55.3224
  0
LINE
  8
0
 10
139.711
 20
55.3224
 11
139.768
 21
55.2678
  0
LINE
  8
0
 10
139.768
 20
55.2678
 11
139.822
 21
55.2114
  0
LINE
  8
0
 10
139.822
 20
55.2114
 11
139.875
 21
55.1533
  0
LINE
  8
0
 10
139.875
 20
55.1533
 11
139.926
 21
55.0936
  0
LINE
  8
0
 10
139.926
 20
55.0936
 11
139.975
 21
55.0323
  0
LINE
  8
0
 10
139.975
 20
55.0323
 11
140.023
 21
54.9695
  0
LINE
  8
0
 10
140.023
 20
54.9695
 11
140.068
 21
54.9052
  0
LINE
  8
0
 10
140.068
 20
54.9052
 11
140.111
 21
54.8396
  0
LINE
  8
0
 10
140.111
 20
54.8396
 11
140.152
 21
54.7726
  0
LINE
  8
0
 10
140.152
 20
54.7726
 11
140.191
 21
54.7044
  0
LINE
  8
0
 10
140.191
 20
54.7044
 11
140.228
 21
54.635
  0
LINE
  8
0
 10
140.228
 20
54.635
 11
140.262
 21
54.5644
  0
LINE
  8
0
 10
140.262
 20
54.5644
 11
140.294
 21
54.4929
  0
LINE
  8
0
 10
140.294
 20
54.4929
 11
140.324
 21
54.4203
  0
LINE
  8
0
 10
140.324
 20
54.4203
 11
140.352
 21
54.3468
  0
LINE
  8
0
 10
140.352
 20
54.3468
 11
140.378
 21
54.2725
  0
LINE
  8
0
 10
140.378
 20
54.2725
 11
140.401
 21
54.1975
  0
LINE
  8
0
 10
140.401
 20
54.1975
 11
140.421
 21
54.1217
  0
LINE
  8
0
 10
140.421
 20
54.1217
 11
140.44
 21
54.0453
  0
LINE
  8
0
 10
140.44
 20
54.0453
 11
140.456
 21
53.9684
  0
LINE
  8
0
 10
140.456
 20
53.9684
 11
140.469
 21
53.8911
  0
LINE
  8
0
 10
140.469
 20
53.8911
 11
140.48
 21
53.8133
  0
LINE
  8
0
 10
140.48
 20
53.8133
 11
140.489
 21
53.7353
  0
LINE
  8
0
 10
140.489
 20
53.7353
 11
140.495
 21
53.657
  0
LINE
  8
0
 10
140.495
 20
53.657
 11
140.499
 21
53.5785
  0
LINE
  8
0
 10
140.499
 20
53.5785
 11
140.5
 21
53.5
  0
LINE
  8
0
 10
140.5
 20
53.5
 11
140.499
 21
53.4215
  0
LINE
  8
0
 10
140.499
 20
53.4215
 11
140.495
 21
53.343
  0
LINE
  8
0
 10
140.495
 20
53.343
 11
140.489
 21
53.2647
  0
LINE
  8
0
 10
140.489
 20
53.2647
 11
140.48
 21
53.1867
  0
LINE
  8
0
 10
140.48
 20
53.1867
 11
140.469
 21
53.1089
  0
LINE
  8
0
 10
140.469
 20
53.1089
 11
140.456
 21
53.0316
  0
LINE
  8
0
 10
140.456
 20
53.0316
 11
140.44
 21
52.9547
  0
LINE
  8
0
 10
140.44
 20
52.9547
 11
140.421
 21
52.8783
  0
LINE
  8
0
 10
140.421
 20
52.8783
 11
140.401
 21
52.8025
  0
LINE
  8
0
 10
140.401
 20
52.8025
 11
140.378
 21
52.7275
  0
LINE
  8
0
 10
140.378
 20
52.7275
 11
140.352
 21
52.6532
  0
LINE
  8
0
 10
140.352
 20
52.6532
 11
140.324
 21
52.5797
  0
LINE
  8
0
 10
140.324
 20
52.5797
 11
140.294
 21
52.5071
  0
LINE
  8
0
 10
140.294
 20
52.5071
 11
140.262
 21
52.4356
  0
LINE
  8
0
 10
140.262
 20
52.4356
 11
140.228
 21
52.365
  0
LINE
  8
0
 10
140.228
 20
52.365
 11
140.191
 21
52.2956
  0
LINE
  8
0
 10
140.191
 20
52.2956
 11
140.152
 21
52.2274
  0
LINE
  8
0
 10
140.152
 20
52.2274
 11
140.111
 21
52.1604
  0
LINE
  8
0
 10
140.111
 20
52.1604
 11
140.068
 21
52.0948
  0
LINE
  8
0
 10
140.068
 20
52.0948
 11
140.023
 21
52.0305
  0
LINE
  8
0
 10
140.023
 20
52.0305
 11
139.975
 21
51.9677
  0
LINE
  8
0
 10
139.975
 20
51.9677
 11
139.926
 21
51.9064
  0
LINE
  8
0
 10
139.926
 20
51.9064
 11
139.875
 21
51.8467
  0
LINE
  8
0
 10
139.875
 20
51.8467
 11
139.822
 21
51.7886
  0
LINE
  8
0
 10
139.822
 20
51.7886
 11
139.768
 21
51.7322
  0
LINE
  8
0
 10
139.768
 20
51.7322
 11
139.711
 21
51.6776
  0
LINE
  8
0
 10
139.711
 20
51.6776
 11
139.653
 21
51.6247
  0
LINE
  8
0
 10
139.653
 20
51.6247
 11
139.594
 21
51.5737
  0
LINE
  8
0
 10
139.594
 20
51.5737
 11
139.532
 21
51.5246
  0
LINE
  8
0
 10
139.532
 20
51.5246
 11
139.469
 21
51.4775
  0
LINE
  8
0
 10
139.469
 20
51.4775
 11
139.405
 21
51.4323
  0
LINE
  8
0
 10
139.405
 20
51.4323
 11
139.34
 21
51.3892
  0
LINE
  8
0
 10
139.34
 20
51.3892
 11
139.273
 21
51.3482
  0
LINE
  8
0
 10
139.273
 20
51.3482
 11
139.204
 21
51.3092
  0
LINE
  8
0
 10
139.204
 20
51.3092
 11
139.135
 21
51.2725
  0
LINE
  8
0
 10
139.135
 20
51.2725
 11
139.064
 21
51.2379
  0
LINE
  8
0
 10
139.064
 20
51.2379
 11
138.993
 21
51.2056
  0
LINE
  8
0
 10
138.993
 20
51.2056
 11
138.92
 21
51.1756
  0
LINE
  8
0
 10
138.92
 20
51.1756
 11
138.847
 21
51.1478
  0
LINE
  8
0
 10
138.847
 20
51.1478
 11
138.773
 21
51.1224
  0
LINE
  8
0
 10
138.773
 20
51.1224
 11
138.697
 21
51.0993
  0
LINE
  8
0
 10
138.697
 20
51.0993
 11
138.622
 21
51.0786
  0
LINE
  8
0
 10
138.622
 20
51.0786
 11
138.545
 21
51.0602
  0
LINE
  8
0
 10
138.545
 20
51.0602
 11
138.468
 21
51.0443
  0
LINE
  8
0
 10
138.468
 20
51.0443
 11
138.391
 21
51.0308
  0
LINE
  8
0
 10
138.391
 20
51.0308
 11
138.313
 21
51.0197
  0
LINE
  8
0
 10
138.313
 20
51.0197
 11
138.235
 21
51.0111
  0
LINE
  8
0
 10
138.235
 20
51.0111
 11
138.157
 21
51.0049
  0
LINE
  8
0
 10
138.157
 20
51.0049
 11
138.079
 21
51.0012
  0
LINE
  8
0
 10
138.079
 20
51.0012
 11
138
 21
51
  0
LINE
  8
0
 10
138
 20
51
 11
137.921
 21
51.0012
  0
LINE
  8
0
 10
144.9
 20
51.9032
 11
144.799
 21
51.9126
  0
LINE
  8
0
 10
144.799
 20
51.9126
 11
144.7
 21
51.9283
  0
LINE
  8
0
 10
144.7
 20
51.9283
 11
144.602
 21
51.9503
  0
LINE
  8
0
 10
144.602
 20
51.9503
 11
144.506
 21
51.9783
  0
LINE
  8
0
 10
144.506
 20
51.9783
 11
144.411
 21
52.0124
  0
LINE
  8
0
 10
144.411
 20
52.0124
 11
144.319
 21
52.0523
  0
LINE
  8
0
 10
144.319
 20
52.0523
 11
144.229
 21
52.0979
  0
LINE
  8
0
 10
144.229
 20
52.0979
 11
144.143
 21
52.1491
  0
LINE
  8
0
 10
144.143
 20
52.1491
 11
144.06
 21
52.2056
  0
LINE
  8
0
 10
144.06
 20
52.2056
 11
143.98
 21
52.2672
  0
LINE
  8
0
 10
143.98
 20
52.2672
 11
143.905
 21
52.3337
  0
LINE
  8
0
 10
143.905
 20
52.3337
 11
143.834
 21
52.4047
  0
LINE
  8
0
 10
143.834
 20
52.4047
 11
143.767
 21
52.4801
  0
LINE
  8
0
 10
143.767
 20
52.4801
 11
143.706
 21
52.5596
  0
LINE
  8
0
 10
143.706
 20
52.5596
 11
143.649
 21
52.6427
  0
LINE
  8
0
 10
143.649
 20
52.6427
 11
143.598
 21
52.7292
  0
LINE
  8
0
 10
143.598
 20
52.7292
 11
143.552
 21
52.8188
  0
LINE
  8
0
 10
143.552
 20
52.8188
 11
143.512
 21
52.911
  0
LINE
  8
0
 10
143.512
 20
52.911
 11
143.478
 21
53.0056
  0
LINE
  8
0
 10
143.478
 20
53.0056
 11
143.45
 21
53.1021
  0
LINE
  8
0
 10
143.45
 20
53.1021
 11
143.428
 21
53.2002
  0
LINE
  8
0
 10
143.428
 20
53.2002
 11
143.413
 21
53.2995
  0
LINE
  8
0
 10
143.413
 20
53.2995
 11
143.403
 21
53.3995
  0
LINE
  8
0
 10
143.403
 20
53.3995
 11
143.4
 21
53.5
  0
LINE
  8
0
 10
143.4
 20
53.5
 11
143.403
 21
53.6005
  0
LINE
  8
0
 10
143.403
 20
53.6005
 11
143.413
 21
53.7005
  0
LINE
  8
0
 10
143.413
 20
53.7005
 11
143.428
 21
53.7998
  0
LINE
  8
0
 10
143.428
 20
53.7998
 11
143.45
 21
53.8979
  0
LINE
  8
0
 10
143.45
 20
53.8979
 11
143.478
 21
53.9944
  0
LINE
  8
0
 10
143.478
 20
53.9944
 11
143.512
 21
54.089
  0
LINE
  8
0
 10
143.512
 20
54.089
 11
143.552
 21
54.1812
  0
LINE
  8
0
 10
143.552
 20
54.1812
 11
143.598
 21
54.2708
  0
LINE
  8
0
 10
143.598
 20
54.2708
 11
143.649
 21
54.3573
  0
LINE
  8
0
 10
143.649
 20
54.3573
 11
143.706
 21
54.4404
  0
LINE
  8
0
 10
143.706
 20
54.4404
 11
143.767
 21
54.5199
  0
LINE
  8
0
 10
143.767
 20
54.5199
 11
143.834
 21
54.5953
  0
LINE
  8
0
 10
143.834
 20
54.5953
 11
143.905
 21
54.6663
  0
LINE
  8
0
 10
143.905
 20
54.6663
 11
143.98
 21
54.7328
  0
LINE
  8
0
 10
143.98
 20
54.7328
 11
144.06
 21
54.7944
  0
LINE
  8
0
 10
144.06
 20
54.7944
 11
144.143
 21
54.8509
  0
LINE
  8
0
 10
144.143
 20
54.8509
 11
144.229
 21
54.9021
  0
LINE
  8
0
 10
144.229
 20
54.9021
 11
144.319
 21
54.9477
  0
LINE
  8
0
 10
144.319
 20
54.9477
 11
144.411
 21
54.9876
  0
LINE
  8
0
 10
144.411
 20
54.9876
 11
144.506
 21
55.0217
  0
LINE
  8
0
 10
144.506
 20
55.0217
 11
144.602
 21
55.0497
  0
LINE
  8
0
 10
144.602
 20
55.0497
 11
144.7
 21
55.0717
  0
LINE
  8
0
 10
144.7
 20
55.0717
 11
144.799
 21
55.0874
  0
LINE
  8
0
 10
144.799
 20
55.0874
 11
144.9
 21
55.0968
  0
LINE
  8
0
 10
144.9
 20
55.0968
 11
145
 21
55.1
  0
LINE
  8
0
 10
145
 20
55.1
 11
145.1
 21
55.0968
  0
LINE
  8
0
 10
145.1
 20
55.0968
 11
145.201
 21
55.0874
  0
LINE
  8
0
 10
145.201
 20
55.0874
 11
145.3
 21
55.0717
  0
LINE
  8
0
 10
145.3
 20
55.0717
 11
145.398
 21
55.0497
  0
LINE
  8
0
 10
145.398
 20
55.0497
 11
145.494
 21
55.0217
  0
LINE
  8
0
 10
145.494
 20
55.0217
 11
145.589
 21
54.9876
  0
LINE
  8
0
 10
145.589
 20
54.9876
 11
145.681
 21
54.9477
  0
LINE
  8
0
 10
145.681
 20
54.9477
 11
145.771
 21
54.9021
  0
LINE
  8
0
 10
145.771
 20
54.9021
 11
145.857
 21
54.8509
  0
LINE
  8
0
 10
145.857
 20
54.8509
 11
145.94
 21
54.7944
  0
LINE
  8
0
 10
145.94
 20
54.7944
 11
146.02
 21
54.7328
  0
LINE
  8
0
 10
146.02
 20
54.7328
 11
146.095
 21
54.6663
  0
LINE
  8
0
 10
146.095
 20
54.6663
 11
146.166
 21
54.5953
  0
LINE
  8
0
 10
146.166
 20
54.5953
 11
146.233
 21
54.5199
  0
LINE
  8
0
 10
146.233
 20
54.5199
 11
146.294
 21
54.4404
  0
LINE
  8
0
 10
146.294
 20
54.4404
 11
146.351
 21
54.3573
  0
LINE
  8
0
 10
146.351
 20
54.3573
 11
146.402
 21
54.2708
  0
LINE
  8
0
 10
146.402
 20
54.2708
 11
146.448
 21
54.1812
  0
LINE
  8
0
 10
146.448
 20
54.1812
 11
146.488
 21
54.089
  0
LINE
  8
0
 10
146.488
 20
54.089
 11
146.522
 21
53.9944
  0
LINE
  8
0
 10
146.522
 20
53.9944
 11
146.55
 21
53.8979
  0
LINE
  8
0
 10
146.55
 20
53.8979
 11
146.572
 21
53.7998
  0
LINE
  8
0
 10
146.572
 20
53.7998
 11
146.587
 21
53.7005
  0
LINE
  8
0
 10
146.587
 20
53.7005
 11
146.597
 21
53.6005
  0
LINE
  8
0
 10
146.597
 20
53.6005
 11
146.6
 21
53.5
  0
LINE
  8
0
 10
146.6
 20
53.5
 11
146.597
 21
53.3995
  0
LINE
  8
0
 10
146.597
 20
53.3995
 11
146.587
 21
53.2995
  0
LINE
  8
0
 10
146.587
 20
53.2995
 11
146.572
 21
53.2002
  0
LINE
  8
0
 10
146.572
 20
53.2002
 11
146.55
 21
53.1021
  0
LINE
  8
0
 10
146.55
 20
53.1021
 11
146.522
 21
53.0056
  0
LINE
  8
0
 10
146.522
 20
53.0056
 11
146.488
 21
52.911
  0
LINE
  8
0
 10
146.488
 20
52.911
 11
146.448
 21
52.8188
  0
LINE
  8
0
 10
146.448
 20
52.8188
 11
146.402
 21
52.7292
  0
LINE
  8
0
 10
146.402
 20
52.7292
 11
146.351
 21
52.6427
  0
LINE
  8
0
 10
146.351
 20
52.6427
 11
146.294
 21
52.5596
  0
LINE
  8
0
 10
146.294
 20
52.5596
 11
146.233
 21
52.4801
  0
LINE
  8
0
 10
146.233
 20
52.4801
 11
146.166
 21
52.4047
  0
LINE
  8
0
 10
146.166
 20
52.4047
 11
146.095
 21
52.3337
  0
LINE
  8
0
 10
146.095
 20
52.3337
 11
146.02
 21
52.2672
  0
LINE
  8
0
 10
146.02
 20
52.2672
 11
145.94
 21
52.2056
  0
LINE
  8
0
 10
145.94
 20
52.2056
 11
145.857
 21
52.1491
  0
LINE
  8
0
 10
145.857
 20
52.1491
 11
145.771
 21
52.0979
  0
LINE
  8
0
 10
145.771
 20
52.0979
 11
145.681
 21
52.0523
  0
LINE
  8
0
 10
145.681
 20
52.0523
 11
145.589
 21
52.0124
  0
LINE
  8
0
 10
145.589
 20
52.0124
 11
145.494
 21
51.9783
  0
LINE
  8
0
 10
145.494
 20
51.9783
 11
145.398
 21
51.9503
  0
LINE
  8
0
 10
145.398
 20
51.9503
 11
145.3
 21
51.9283
  0
LINE
  8
0
 10
145.3
 20
51.9283
 11
145.201
 21
51.9126
  0
LINE
  8
0
 10
145.201
 20
51.9126
 11
145.1
 21
51.9032
  0
LINE
  8
0
 10
145.1
 20
51.9032
 11
145
 21
51.9
  0
LINE
  8
0
 10
145
 20
51.9
 11
144.9
 21
51.9032
  0
LINE
  8
0
 10
130.9
 20
51.9032
 11
130.799
 21
51.9126
  0
LINE
  8
0
 10
130.799
 20
51.9126
 11
130.7
 21
51.9283
  0
LINE
  8
0
 10
130.7
 20
51.9283
 11
130.602
 21
51.9503
  0
LINE
  8
0
 10
130.602
 20
51.9503
 11
130.506
 21
51.9783
  0
LINE
  8
0
 10
130.506
 20
51.9783
 11
130.411
 21
52.0124
  0
LINE
  8
0
 10
130.411
 20
52.0124
 11
130.319
 21
52.0523
  0
LINE
  8
0
 10
130.319
 20
52.0523
 11
130.229
 21
52.0979
  0
LINE
  8
0
 10
130.229
 20
52.0979
 11
130.143
 21
52.1491
  0
LINE
  8
0
 10
130.143
 20
52.1491
 11
130.06
 21
52.2056
  0
LINE
  8
0
 10
130.06
 20
52.2056
 11
129.98
 21
52.2672
  0
LINE
  8
0
 10
129.98
 20
52.2672
 11
129.905
 21
52.3337
  0
LINE
  8
0
 10
129.905
 20
52.3337
 11
129.834
 21
52.4047
  0
LINE
  8
0
 10
129.834
 20
52.4047
 11
129.767
 21
52.4801
  0
LINE
  8
0
 10
129.767
 20
52.4801
 11
129.706
 21
52.5596
  0
LINE
  8
0
 10
129.706
 20
52.5596
 11
129.649
 21
52.6427
  0
LINE
  8
0
 10
129.649
 20
52.6427
 11
129.598
 21
52.7292
  0
LINE
  8
0
 10
129.598
 20
52.7292
 11
129.552
 21
52.8188
  0
LINE
  8
0
 10
129.552
 20
52.8188
 11
129.512
 21
52.911
  0
LINE
  8
0
 10
129.512
 20
52.911
 11
129.478
 21
53.0056
  0
LINE
  8
0
 10
129.478
 20
53.0056
 11
129.45
 21
53.1021
  0
LINE
  8
0
 10
129.45
 20
53.1021
 11
129.428
 21
53.2002
  0
LINE
  8
0
 10
129.428
 20
53.2002
 11
129.413
 21
53.2995
  0
LINE
  8
0
 10
129.413
 20
53.2995
 11
129.403
 21
53.3995
  0
LINE
  8
0
 10
129.403
 20
53.3995
 11
129.4
 21
53.5
  0
LINE
  8
0
 10
129.4
 20
53.5
 11
129.403
 21
53.6005
  0
LINE
  8
0
 10
129.403
 20
53.6005
 11
129.413
 21
53.7005
  0
LINE
  8
0
 10
129.413
 20
53.7005
 11
129.428
 21
53.7998
  0
LINE
  8
0
 10
129.428
 20
53.7998
 11
129.45
 21
53.8979
  0
LINE
  8
0
 10
129.45
 20
53.8979
 11
129.478
 21
53.9944
  0
LINE
  8
0
 10
129.478
 20
53.9944
 11
129.512
 21
54.089
  0
LINE
  8
0
 10
129.512
 20
54.089
 11
129.552
 21
54.1812
  0
LINE
  8
0
 10
129.552
 20
54.1812
 11
129.598
 21
54.2708
  0
LINE
  8
0
 10
129.598
 20
54.2708
 11
129.649
 21
54.3573
  0
LINE
  8
0
 10
129.649
 20
54.3573
 11
129.706
 21
54.4404
  0
LINE
  8
0
 10
129.706
 20
54.4404
 11
129.767
 21
54.5199
  0
LINE
  8
0
 10
129.767
 20
54.5199
 11
129.834
 21
54.5953
  0
LINE
  8
0
 10
129.834
 20
54.5953
 11
129.905
 21
54.6663
  0
LINE
  8
0
 10
129.905
 20
54.6663
 11
129.98
 21
54.7328
  0
LINE
  8
0
 10
129.98
 20
54.7328
 11
130.06
 21
54.7944
  0
LINE
  8
0
 10
130.06
 20
54.7944
 11
130.143
 21
54.8509
  0
LINE
  8
0
 10
130.143
 20
54.8509
 11
130.229
 21
54.9021
  0
LINE
  8
0
 10
130.229
 20
54.9021
 11
130.319
 21
54.9477
  0
LINE
  8
0
 10
130.319
 20
54.9477
 11
130.411
 21
54.9876
  0
LINE
  8
0
 10
130.411
 20
54.9876
 11
130.506
 21
55.0217
  0
LINE
  8
0
 10
130.506
 20
55.0217
 11
130.602
 21
55.0497
  0
LINE
  8
0
 10
130.602
 20
55.0497
 11
130.7
 21
55.0717
  0
LINE
  8
0
 10
130.7
 20
55.0717
 11
130.799
 21
55.0874
  0
LINE
  8
0
 10
130.799
 20
55.0874
 11
130.9
 21
55.0968
  0
LINE
  8
0
 10
130.9
 20
55.0968
 11
131
 21
55.1
  0
LINE
  8
0
 10
131
 20
55.1
 11
131.1
 21
55.0968
  0
LINE
  8
0
 10
131.1
 20
55.0968
 11
131.201
 21
55.0874
  0
LINE
  8
0
 10
131.201
 20
55.0874
 11
131.3
 21
55.0717
  0
LINE
  8
0
 10
131.3
 20
55.0717
 11
131.398
 21
55.0497
  0
LINE
  8
0
 10
131.398
 20
55.0497
 11
131.494
 21
55.0217
  0
LINE
  8
0
 10
131.494
 20
55.0217
 11
131.589
 21
54.9876
  0
LINE
  8
0
 10
131.589
 20
54.9876
 11
131.681
 21
54.9477
  0
LINE
  8
0
 10
131.681
 20
54.9477
 11
131.771
 21
54.9021
  0
LINE
  8
0
 10
131.771
 20
54.9021
 11
131.857
 21
54.8509
  0
LINE
  8
0
 10
131.857
 20
54.8509
 11
131.94
 21
54.7944
  0
LINE
  8
0
 10
131.94
 20
54.7944
 11
132.02
 21
54.7328
  0
LINE
  8
0
 10
132.02
 20
54.7328
 11
132.095
 21
54.6663
  0
LINE
  8
0
 10
132.095
 20
54.6663
 11
132.166
 21
54.5953
  0
LINE
  8
0
 10
132.166
 20
54.5953
 11
132.233
 21
54.5199
  0
LINE
  8
0
 10
132.233
 20
54.5199
 11
132.294
 21
54.4404
  0
LINE
  8
0
 10
132.294
 20
54.4404
 11
132.351
 21
54.3573
  0
LINE
  8
0
 10
132.351
 20
54.3573
 11
132.402
 21
54.2708
  0
LINE
  8
0
 10
132.402
 20
54.2708
 11
132.448
 21
54.1812
  0
LINE
  8
0
 10
132.448
 20
54.1812
 11
132.488
 21
54.089
  0
LINE
  8
0
 10
132.488
 20
54.089
 11
132.522
 21
53.9944
  0
LINE
  8
0
 10
132.522
 20
53.9944
 11
132.55
 21
53.8979
  0
LINE
  8
0
 10
132.55
 20
53.8979
 11
132.572
 21
53.7998
  0
LINE
  8
0
 10
132.572
 20
53.7998
 11
132.587
 21
53.7005
  0
LINE
  8
0
 10
132.587
 20
53.7005
 11
132.597
 21
53.6005
  0
LINE
  8
0
 10
132.597
 20
53.6005
 11
132.6
 21
53.5
  0
LINE
  8
0
 10
132.6
 20
53.5
 11
132.597
 21
53.3995
  0
LINE
  8
0
 10
132.597
 20
53.3995
 11
132.587
 21
53.2995
  0
LINE
  8
0
 10
132.587
 20
53.2995
 11
132.572
 21
53.2002
  0
LINE
  8
0
 10
132.572
 20
53.2002
 11
132.55
 21
53.1021
  0
LINE
  8
0
 10
132.55
 20
53.1021
 11
132.522
 21
53.0056
  0
LINE
  8
0
 10
132.522
 20
53.0056
 11
132.488
 21
52.911
  0
LINE
  8
0
 10
132.488
 20
52.911
 11
132.448
 21
52.8188
  0
LINE
  8
0
 10
132.448
 20
52.8188
 11
132.402
 21
52.7292
  0
LINE
  8
0
 10
132.402
 20
52.7292
 11
132.351
 21
52.6427
  0
LINE
  8
0
 10
132.351
 20
52.6427
 11
132.294
 21
52.5596
  0
LINE
  8
0
 10
132.294
 20
52.5596
 11
132.233
 21
52.4801
  0
LINE
  8
0
 10
132.233
 20
52.4801
 11
132.166
 21
52.4047
  0
LINE
  8
0
 10
132.166
 20
52.4047
 11
132.095
 21
52.3337
  0
LINE
  8
0
 10
132.095
 20
52.3337
 11
132.02
 21
52.2672
  0
LINE
  8
0
 10
132.02
 20
52.2672
 11
131.94
 21
52.2056
  0
LINE
  8
0
 10
131.94
 20
52.2056
 11
131.857
 21
52.1491
  0
LINE
  8
0
 10
131.857
 20
52.1491
 11
131.771
 21
52.0979
  0
LINE
  8
0
 10
131.771
 20
52.0979
 11
131.681
 21
52.0523
  0
LINE
  8
0
 10
131.681
 20
52.0523
 11
131.589
 21
52.0124
  0
LINE
  8
0
 10
131.589
 20
52.0124
 11
131.494
 21
51.9783
  0
LINE
  8
0
 10
131.494
 20
51.9783
 11
131.398
 21
51.9503
  0
LINE
  8
0
 10
131.398
 20
51.9503
 11
131.3
 21
51.9283
  0
LINE
  8
0
 10
131.3
 20
51.9283
 11
131.201
 21
51.9126
  0
LINE
  8
0
 10
131.201
 20
51.9126
 11
131.1
 21
51.9032
  0
LINE
  8
0
 10
131.1
 20
51.9032
 11
131
 21
51.9
  0
LINE
  8
0
 10
131
 20
51.9
 11
130.9
 21
51.9032
  0
LINE
  8
0
 10
10.3909
 20
53.012
 11
10.3159
 21
53.0351
  0
LINE
  8
0
 10
10.3159
 20
53.0351
 11
10.2455
 21
53.0696
  0
LINE
  8
0
 10
10.2455
 20
53.0696
 11
10.1813
 21
53.1147
  0
LINE
  8
0
 10
10.1813
 20
53.1147
 11
10.1249
 21
53.1693
  0
LINE
  8
0
 10
10.1249
 20
53.1693
 11
10.0778
 21
53.2321
  0
LINE
  8
0
 10
10.0778
 20
53.2321
 11
10.0411
 21
53.3014
  0
LINE
  8
0
 10
10.0411
 20
53.3014
 11
10.0157
 21
53.3756
  0
LINE
  8
0
 10
10.0157
 20
53.3756
 11
10.0022
 21
53.4529
  0
LINE
  8
0
 10
10.0022
 20
53.4529
 11
10.001
 21
53.5314
  0
LINE
  8
0
 10
10.001
 20
53.5314
 11
10.012
 21
53.6091
  0
LINE
  8
0
 10
10.012
 20
53.6091
 11
10.0351
 21
53.6841
  0
LINE
  8
0
 10
10.0351
 20
53.6841
 11
10.0696
 21
53.7545
  0
LINE
  8
0
 10
10.0696
 20
53.7545
 11
10.1147
 21
53.8187
  0
LINE
  8
0
 10
10.1147
 20
53.8187
 11
10.1693
 21
53.875
  0
LINE
  8
0
 10
10.1693
 20
53.875
 11
10.2321
 21
53.9221
  0
LINE
  8
0
 10
10.2321
 20
53.9221
 11
10.3014
 21
53.9589
  0
LINE
  8
0
 10
10.3014
 20
53.9589
 11
10.3756
 21
53.9843
  0
LINE
  8
0
 10
10.3756
 20
53.9843
 11
10.4529
 21
53.9978
  0
LINE
  8
0
 10
10.4529
 20
53.9978
 11
10.5314
 21
53.999
  0
LINE
  8
0
 10
10.5314
 20
53.999
 11
10.6091
 21
53.9879
  0
LINE
  8
0
 10
10.6091
 20
53.9879
 11
10.6841
 21
53.9649
  0
LINE
  8
0
 10
10.6841
 20
53.9649
 11
10.7545
 21
53.9304
  0
LINE
  8
0
 10
10.7545
 20
53.9304
 11
10.8187
 21
53.8853
  0
LINE
  8
0
 10
10.8187
 20
53.8853
 11
10.875
 21
53.8306
  0
LINE
  8
0
 10
10.875
 20
53.8306
 11
10.9221
 21
53.7679
  0
LINE
  8
0
 10
10.9221
 20
53.7679
 11
10.9589
 21
53.6986
  0
LINE
  8
0
 10
10.9589
 20
53.6986
 11
10.9843
 21
53.6243
  0
LINE
  8
0
 10
10.9843
 20
53.6243
 11
10.9978
 21
53.547
  0
LINE
  8
0
 10
10.9978
 20
53.547
 11
10.999
 21
53.4686
  0
LINE
  8
0
 10
10.999
 20
53.4686
 11
10.9879
 21
53.3909
  0
LINE
  8
0
 10
10.9879
 20
53.3909
 11
10.9649
 21
53.3159
  0
LINE
  8
0
 10
10.9649
 20
53.3159
 11
10.9304
 21
53.2455
  0
LINE
  8
0
 10
10.9304
 20
53.2455
 11
10.8853
 21
53.1813
  0
LINE
  8
0
 10
10.8853
 20
53.1813
 11
10.8306
 21
53.1249
  0
LINE
  8
0
 10
10.8306
 20
53.1249
 11
10.7679
 21
53.0778
  0
LINE
  8
0
 10
10.7679
 20
53.0778
 11
10.6986
 21
53.0411
  0
LINE
  8
0
 10
10.6986
 20
53.0411
 11
10.6243
 21
53.0157
  0
LINE
  8
0
 10
10.6243
 20
53.0157
 11
10.547
 21
53.0022
  0
LINE
  8
0
 10
10.547
 20
53.0022
 11
10.4686
 21
53.001
  0
LINE
  8
0
 10
10.4686
 20
53.001
 11
10.3909
 21
53.012
  0
LINE
  8
0
 10
265.391
 20
53.012
 11
265.316
 21
53.0351
  0
LINE
  8
0
 10
265.316
 20
53.0351
 11
265.245
 21
53.0696
  0
LINE
  8
0
 10
265.245
 20
53.0696
 11
265.181
 21
53.1147
  0
LINE
  8
0
 10
265.181
 20
53.1147
 11
265.125
 21
53.1693
  0
LINE
  8
0
 10
265.125
 20
53.1693
 11
265.078
 21
53.2321
  0
LINE
  8
0
 10
265.078
 20
53.2321
 11
265.041
 21
53.3014
  0
LINE
  8
0
 10
265.041
 20
53.3014
 11
265.016
 21
53.3756
  0
LINE
  8
0
 10
265.016
 20
53.3756
 11
265.002
 21
53.4529
  0
LINE
  8
0
 10
265.002
 20
53.4529
 11
265.001
 21
53.5314
  0
LINE
  8
0
 10
265.001
 20
53.5314
 11
265.012
 21
53.6091
  0
LINE
  8
0
 10
265.012
 20
53.6091
 11
265.035
 21
53.6841
  0
LINE
  8
0
 10
265.035
 20
53.6841
 11
265.07
 21
53.7545
  0
LINE
  8
0
 10
265.07
 20
53.7545
 11
265.115
 21
53.8187
  0
LINE
  8
0
 10
265.115
 20
53.8187
 11
265.169
 21
53.875
  0
LINE
  8
0
 10
265.169
 20
53.875
 11
265.232
 21
53.9221
  0
LINE
  8
0
 10
265.232
 20
53.9221
 11
265.301
 21
53.9589
  0
LINE
  8
0
 10
265.301
 20
53.9589
 11
265.376
 21
53.9843
  0
LINE
  8
0
 10
265.376
 20
53.9843
 11
265.453
 21
53.9978
  0
LINE
  8
0
 10
265.453
 20
53.9978
 11
265.531
 21
53.999
  0
LINE
  8
0
 10
265.531
 20
53.999
 11
265.609
 21
53.9879
  0
LINE
  8
0
 10
265.609
 20
53.9879
 11
265.684
 21
53.9649
  0
LINE
  8
0
 10
265.684
 20
53.9649
 11
265.755
 21
53.9304
  0
LINE
  8
0
 10
265.755
 20
53.9304
 11
265.819
 21
53.8853
  0
LINE
  8
0
 10
265.819
 20
53.8853
 11
265.875
 21
53.8306
  0
LINE
  8
0
 10
265.875
 20
53.8306
 11
265.922
 21
53.7679
  0
LINE
  8
0
 10
265.922
 20
53.7679
 11
265.959
 21
53.6986
  0
LINE
  8
0
 10
265.959
 20
53.6986
 11
265.984
 21
53.6243
  0
LINE
  8
0
 10
265.984
 20
53.6243
 11
265.998
 21
53.547
  0
LINE
  8
0
 10
265.998
 20
53.547
 11
265.999
 21
53.4686
  0
LINE
  8
0
 10
265.999
 20
53.4686
 11
265.988
 21
53.3909
  0
LINE
  8
0
 10
265.988
 20
53.3909
 11
265.965
 21
53.3159
  0
LINE
  8
0
 10
265.965
 20
53.3159
 11
265.93
 21
53.2455
  0
LINE
  8
0
 10
265.93
 20
53.2455
 11
265.885
 21
53.1813
  0
LINE
  8
0
 10
265.885
 20
53.1813
 11
265.831
 21
53.1249
  0
LINE
  8
0
 10
265.831
 20
53.1249
 11
265.768
 21
53.0778
  0
LINE
  8
0
 10
265.768
 20
53.0778
 11
265.699
 21
53.0411
  0
LINE
  8
0
 10
265.699
 20
53.0411
 11
265.624
 21
53.0157
  0
LINE
  8
0
 10
265.624
 20
53.0157
 11
265.547
 21
53.0022
  0
LINE
  8
0
 10
265.547
 20
53.0022
 11
265.469
 21
53.001
  0
LINE
  8
0
 10
265.469
 20
53.001
 11
265.391
 21
53.012
  0
LINE
  8
0
 10
242
 20
41
 11
131
 21
41
  0
LINE
  8
0
 10
131
 20
41
 11
130.717
 21
40.9955
  0
LINE
  8
0
 10
130.717
 20
40.9955
 11
130.435
 21
40.9822
  0
LINE
  8
0
 10
130.435
 20
40.9822
 11
130.153
 21
40.9601
  0
LINE
  8
0
 10
130.153
 20
40.9601
 11
129.872
 21
40.929
  0
LINE
  8
0
 10
129.872
 20
40.929
 11
129.592
 21
40.8892
  0
LINE
  8
0
 10
129.592
 20
40.8892
 11
129.314
 21
40.8406
  0
LINE
  8
0
 10
129.314
 20
40.8406
 11
129.037
 21
40.7832
  0
LINE
  8
0
 10
129.037
 20
40.7832
 11
128.762
 21
40.7172
  0
LINE
  8
0
 10
128.762
 20
40.7172
 11
128.489
 21
40.6426
  0
LINE
  8
0
 10
128.489
 20
40.6426
 11
128.219
 21
40.5595
  0
LINE
  8
0
 10
128.219
 20
40.5595
 11
127.951
 21
40.4679
  0
LINE
  8
0
 10
127.951
 20
40.4679
 11
127.687
 21
40.368
  0
LINE
  8
0
 10
127.687
 20
40.368
 11
127.426
 21
40.2598
  0
LINE
  8
0
 10
127.426
 20
40.2598
 11
127.168
 21
40.1434
  0
LINE
  8
0
 10
127.168
 20
40.1434
 11
126.914
 21
40.0191
  0
LINE
  8
0
 10
126.914
 20
40.0191
 11
126.664
 21
39.8867
  0
LINE
  8
0
 10
126.664
 20
39.8867
 11
126.419
 21
39.7467
  0
LINE
  8
0
 10
126.419
 20
39.7467
 11
126.178
 21
39.5989
  0
LINE
  8
0
 10
126.178
 20
39.5989
 11
125.941
 21
39.4437
  0
LINE
  8
0
 10
125.941
 20
39.4437
 11
125.71
 21
39.2811
  0
LINE
  8
0
 10
125.71
 20
39.2811
 11
125.484
 21
39.1114
  0
LINE
  8
0
 10
125.484
 20
39.1114
 11
125.263
 21
38.9346
  0
LINE
  8
0
 10
125.263
 20
38.9346
 11
125.048
 21
38.751
  0
LINE
  8
0
 10
125.048
 20
38.751
 11
124.839
 21
38.5607
  0
LINE
  8
0
 10
124.839
 20
38.5607
 11
124.636
 21
38.364
  0
LINE
  8
0
 10
124.636
 20
38.364
 11
124.439
 21
38.1609
  0
LINE
  8
0
 10
124.439
 20
38.1609
 11
124.249
 21
37.9518
  0
LINE
  8
0
 10
124.249
 20
37.9518
 11
124.065
 21
37.7368
  0
LINE
  8
0
 10
124.065
 20
37.7368
 11
123.889
 21
37.5162
  0
LINE
  8
0
 10
123.889
 20
37.5162
 11
123.719
 21
37.2901
  0
LINE
  8
0
 10
123.719
 20
37.2901
 11
123.556
 21
37.0587
  0
LINE
  8
0
 10
123.556
 20
37.0587
 11
123.401
 21
36.8224
  0
LINE
  8
0
 10
123.401
 20
36.8224
 11
123.253
 21
36.5814
  0
LINE
  8
0
 10
123.253
 20
36.5814
 11
123.113
 21
36.3358
  0
LINE
  8
0
 10
123.113
 20
36.3358
 11
122.981
 21
36.0859
  0
LINE
  8
0
 10
122.981
 20
36.0859
 11
122.857
 21
35.832
  0
LINE
  8
0
 10
122.857
 20
35.832
 11
122.74
 21
35.5743
  0
LINE
  8
0
 10
122.74
 20
35.5743
 11
122.632
 21
35.3131
  0
LINE
  8
0
 10
122.632
 20
35.3131
 11
122.532
 21
35.0486
  0
LINE
  8
0
 10
122.532
 20
35.0486
 11
122.44
 21
34.7811
  0
LINE
  8
0
 10
122.44
 20
34.7811
 11
122.357
 21
34.5109
  0
LINE
  8
0
 10
122.357
 20
34.5109
 11
122.283
 21
34.2382
  0
LINE
  8
0
 10
122.283
 20
34.2382
 11
122.217
 21
33.9633
  0
LINE
  8
0
 10
122.217
 20
33.9633
 11
122.159
 21
33.6864
  0
LINE
  8
0
 10
122.159
 20
33.6864
 11
122.111
 21
33.4079
  0
LINE
  8
0
 10
122.111
 20
33.4079
 11
122.071
 21
33.128
  0
LINE
  8
0
 10
122.071
 20
33.128
 11
122.04
 21
32.847
  0
LINE
  8
0
 10
122.04
 20
32.847
 11
122.018
 21
32.5651
  0
LINE
  8
0
 10
122.018
 20
32.5651
 11
122.004
 21
32.2827
  0
LINE
  8
0
 10
122.004
 20
32.2827
 11
122
 21
32
  0
LINE
  8
0
 10
122
 20
32
 11
122.004
 21
31.7173
  0
LINE
  8
0
 10
122.004
 20
31.7173
 11
122.018
 21
31.4349
  0
LINE
  8
0
 10
122.018
 20
31.4349
 11
122.04
 21
31.153
  0
LINE
  8
0
 10
122.04
 20
31.153
 11
122.071
 21
30.872
  0
LINE
  8
0
 10
122.071
 20
30.872
 11
122.111
 21
30.5921
  0
LINE
  8
0
 10
122.111
 20
30.5921
 11
122.159
 21
30.3136
  0
LINE
  8
0
 10
122.159
 20
30.3136
 11
122.217
 21
30.0367
  0
LINE
  8
0
 10
122.217
 20
30.0367
 11
122.283
 21
29.7618
  0
LINE
  8
0
 10
122.283
 20
29.7618
 11
122.357
 21
29.4891
  0
LINE
  8
0
 10
122.357
 20
29.4891
 11
122.44
 21
29.2188
  0
LINE
  8
0
 10
122.44
 20
29.2188
 11
122.532
 21
28.9514
  0
LINE
  8
0
 10
122.532
 20
28.9514
 11
122.632
 21
28.6869
  0
LINE
  8
0
 10
122.632
 20
28.6869
 11
122.74
 21
28.4257
  0
LINE
  8
0
 10
122.74
 20
28.4257
 11
122.857
 21
28.168
  0
LINE
  8
0
 10
122.857
 20
28.168
 11
122.981
 21
27.9141
  0
LINE
  8
0
 10
122.981
 20
27.9141
 11
123.113
 21
27.6642
  0
LINE
  8
0
 10
123.113
 20
27.6642
 11
123.253
 21
27.4186
  0
LINE
  8
0
 10
123.253
 20
27.4186
 11
123.401
 21
27.1776
  0
LINE
  8
0
 10
123.401
 20
27.1776
 11
123.556
 21
26.9412
  0
LINE
  8
0
 10
123.556
 20
26.9412
 11
123.719
 21
26.7099
  0
LINE
  8
0
 10
123.719
 20
26.7099
 11
123.889
 21
26.4838
  0
LINE
  8
0
 10
123.889
 20
26.4838
 11
124.065
 21
26.2632
  0
LINE
  8
0
 10
124.065
 20
26.2632
 11
124.249
 21
26.0482
  0
LINE
  8
0
 10
124.249
 20
26.0482
 11
124.439
 21
25.8391
  0
LINE
  8
0
 10
124.439
 20
25.8391
 11
124.636
 21
25.636
  0
LINE
  8
0
 10
124.636
 20
25.636
 11
124.839
 21
25.4393
  0
LINE
  8
0
 10
124.839
 20
25.4393
 11
125.048
 21
25.249
  0
LINE
  8
0
 10
125.048
 20
25.249
 11
125.263
 21
25.0654
  0
LINE
  8
0
 10
125.263
 20
25.0654
 11
125.484
 21
24.8886
  0
LINE
  8
0
 10
125.484
 20
24.8886
 11
125.71
 21
24.7188
  0
LINE
  8
0
 10
125.71
 20
24.7188
 11
125.941
 21
24.5563
  0
LINE
  8
0
 10
125.941
 20
24.5563
 11
126.178
 21
24.401
  0
LINE
  8
0
 10
126.178
 20
24.401
 11
126.419
 21
24.2533
  0
LINE
  8
0
 10
126.419
 20
24.2533
 11
126.664
 21
24.1132
  0
LINE
  8
0
 10
126.664
 20
24.1132
 11
126.914
 21
23.9809
  0
LINE
  8
0
 10
126.914
 20
23.9809
 11
127.168
 21
23.8566
  0
LINE
  8
0
 10
127.168
 20
23.8566
 11
127.426
 21
23.7402
  0
LINE
  8
0
 10
127.426
 20
23.7402
 11
127.687
 21
23.632
  0
LINE
  8
0
 10
127.687
 20
23.632
 11
127.951
 21
23.5321
  0
LINE
  8
0
 10
127.951
 20
23.5321
 11
128.219
 21
23.4405
  0
LINE
  8
0
 10
128.219
 20
23.4405
 11
128.489
 21
23.3573
  0
LINE
  8
0
 10
128.489
 20
23.3573
 11
128.762
 21
23.2827
  0
LINE
  8
0
 10
128.762
 20
23.2827
 11
129.037
 21
23.2167
  0
LINE
  8
0
 10
129.037
 20
23.2167
 11
129.314
 21
23.1594
  0
LINE
  8
0
 10
129.314
 20
23.1594
 11
129.592
 21
23.1108
  0
LINE
  8
0
 10
129.592
 20
23.1108
 11
129.872
 21
23.071
  0
LINE
  8
0
 10
129.872
 20
23.071
 11
130.153
 21
23.0399
  0
LINE
  8
0
 10
130.153
 20
23.0399
 11
130.435
 21
23.0177
  0
LINE
  8
0
 10
130.435
 20
23.0177
 11
130.717
 21
23.0044
  0
LINE
  8
0
 10
130.717
 20
23.0044
 11
131
 21
23
  0
LINE
  8
0
 10
131
 20
23
 11
242
 21
23
  0
LINE
  8
0
 10
242
 20
23
 11
242
 21
41
  0
LINE
  8
0
 10
123.9
 20
30.4032
 11
123.799
 21
30.4126
  0
LINE
  8
0
 10
123.799
 20
30.4126
 11
123.7
 21
30.4283
  0
LINE
  8
0
 10
123.7
 20
30.4283
 11
123.602
 21
30.4503
  0
LINE
  8
0
 10
123.602
 20
30.4503
 11
123.506
 21
30.4783
  0
LINE
  8
0
 10
123.506
 20
30.4783
 11
123.411
 21
30.5124
  0
LINE
  8
0
 10
123.411
 20
30.5124
 11
123.319
 21
30.5523
  0
LINE
  8
0
 10
123.319
 20
30.5523
 11
123.229
 21
30.5979
  0
LINE
  8
0
 10
123.229
 20
30.5979
 11
123.143
 21
30.6491
  0
LINE
  8
0
 10
123.143
 20
30.6491
 11
123.06
 21
30.7056
  0
LINE
  8
0
 10
123.06
 20
30.7056
 11
122.98
 21
30.7672
  0
LINE
  8
0
 10
122.98
 20
30.7672
 11
122.905
 21
30.8337
  0
LINE
  8
0
 10
122.905
 20
30.8337
 11
122.834
 21
30.9047
  0
LINE
  8
0
 10
122.834
 20
30.9047
 11
122.767
 21
30.9801
  0
LINE
  8
0
 10
122.767
 20
30.9801
 11
122.706
 21
31.0596
  0
LINE
  8
0
 10
122.706
 20
31.0596
 11
122.649
 21
31.1427
  0
LINE
  8
0
 10
122.649
 20
31.1427
 11
122.598
 21
31.2292
  0
LINE
  8
0
 10
122.598
 20
31.2292
 11
122.552
 21
31.3188
  0
LINE
  8
0
 10
122.552
 20
31.3188
 11
122.512
 21
31.411
  0
LINE
  8
0
 10
122.512
 20
31.411
 11
122.478
 21
31.5056
  0
LINE
  8
0
 10
122.478
 20
31.5056
 11
122.45
 21
31.6021
  0
LINE
  8
0
 10
122.45
 20
31.6021
 11
122.428
 21
31.7002
  0
LINE
  8
0
 10
122.428
 20
31.7002
 11
122.413
 21
31.7995
  0
LINE
  8
0
 10
122.413
 20
31.7995
 11
122.403
 21
31.8995
  0
LINE
  8
0
 10
122.403
 20
31.8995
 11
122.4
 21
32
  0
LINE
  8
0
 10
122.4
 20
32
 11
122.403
 21
32.1005
  0
LINE
  8
0
 10
122.403
 20
32.1005
 11
122.413
 21
32.2005
  0
LINE
  8
0
 10
122.413
 20
32.2005
 11
122.428
 21
32.2998
  0
LINE
  8
0
 10
122.428
 20
32.2998
 11
122.45
 21
32.3979
  0
LINE
  8
0
 10
122.45
 20
32.3979
 11
122.478
 21
32.4944
  0
LINE
  8
0
 10
122.478
 20
32.4944
 11
122.512
 21
32.589
  0
LINE
  8
0
 10
122.512
 20
32.589
 11
122.552
 21
32.6812
  0
LINE
  8
0
 10
122.552
 20
32.6812
 11
122.598
 21
32.7708
  0
LINE
  8
0
 10
122.598
 20
32.7708
 11
122.649
 21
32.8573
  0
LINE
  8
0
 10
122.649
 20
32.8573
 11
122.706
 21
32.9404
  0
LINE
  8
0
 10
122.706
 20
32.9404
 11
122.767
 21
33.0199
  0
LINE
  8
0
 10
122.767
 20
33.0199
 11
122.834
 21
33.0953
  0
LINE
  8
0
 10
122.834
 20
33.0953
 11
122.905
 21
33.1663
  0
LINE
  8
0
 10
122.905
 20
33.1663
 11
122.98
 21
33.2328
  0
LINE
  8
0
 10
122.98
 20
33.2328
 11
123.06
 21
33.2944
  0
LINE
  8
0
 10
123.06
 20
33.2944
 11
123.143
 21
33.3509
  0
LINE
  8
0
 10
123.143
 20
33.3509
 11
123.229
 21
33.4021
  0
LINE
  8
0
 10
123.229
 20
33.4021
 11
123.319
 21
33.4477
  0
LINE
  8
0
 10
123.319
 20
33.4477
 11
123.411
 21
33.4876
  0
LINE
  8
0
 10
123.411
 20
33.4876
 11
123.506
 21
33.5217
  0
LINE
  8
0
 10
123.506
 20
33.5217
 11
123.602
 21
33.5497
  0
LINE
  8
0
 10
123.602
 20
33.5497
 11
123.7
 21
33.5717
  0
LINE
  8
0
 10
123.7
 20
33.5717
 11
123.799
 21
33.5874
  0
LINE
  8
0
 10
123.799
 20
33.5874
 11
123.9
 21
33.5968
  0
LINE
  8
0
 10
123.9
 20
33.5968
 11
124
 21
33.6
  0
LINE
  8
0
 10
124
 20
33.6
 11
124.1
 21
33.5968
  0
LINE
  8
0
 10
124.1
 20
33.5968
 11
124.201
 21
33.5874
  0
LINE
  8
0
 10
124.201
 20
33.5874
 11
124.3
 21
33.5717
  0
LINE
  8
0
 10
124.3
 20
33.5717
 11
124.398
 21
33.5497
  0
LINE
  8
0
 10
124.398
 20
33.5497
 11
124.494
 21
33.5217
  0
LINE
  8
0
 10
124.494
 20
33.5217
 11
124.589
 21
33.4876
  0
LINE
  8
0
 10
124.589
 20
33.4876
 11
124.681
 21
33.4477
  0
LINE
  8
0
 10
124.681
 20
33.4477
 11
124.771
 21
33.4021
  0
LINE
  8
0
 10
124.771
 20
33.4021
 11
124.857
 21
33.3509
  0
LINE
  8
0
 10
124.857
 20
33.3509
 11
124.94
 21
33.2944
  0
LINE
  8
0
 10
124.94
 20
33.2944
 11
125.02
 21
33.2328
  0
LINE
  8
0
 10
125.02
 20
33.2328
 11
125.095
 21
33.1663
  0
LINE
  8
0
 10
125.095
 20
33.1663
 11
125.166
 21
33.0953
  0
LINE
  8
0
 10
125.166
 20
33.0953
 11
125.233
 21
33.0199
  0
LINE
  8
0
 10
125.233
 20
33.0199
 11
125.294
 21
32.9404
  0
LINE
  8
0
 10
125.294
 20
32.9404
 11
125.351
 21
32.8573
  0
LINE
  8
0
 10
125.351
 20
32.8573
 11
125.402
 21
32.7708
  0
LINE
  8
0
 10
125.402
 20
32.7708
 11
125.448
 21
32.6812
  0
LINE
  8
0
 10
125.448
 20
32.6812
 11
125.488
 21
32.589
  0
LINE
  8
0
 10
125.488
 20
32.589
 11
125.522
 21
32.4944
  0
LINE
  8
0
 10
125.522
 20
32.4944
 11
125.55
 21
32.3979
  0
LINE
  8
0
 10
125.55
 20
32.3979
 11
125.572
 21
32.2998
  0
LINE
  8
0
 10
125.572
 20
32.2998
 11
125.587
 21
32.2005
  0
LINE
  8
0
 10
125.587
 20
32.2005
 11
125.597
 21
32.1005
  0
LINE
  8
0
 10
125.597
 20
32.1005
 11
125.6
 21
32
  0
LINE
  8
0
 10
125.6
 20
32
 11
125.597
 21
31.8995
  0
LINE
  8
0
 10
125.597
 20
31.8995
 11
125.587
 21
31.7995
  0
LINE
  8
0
 10
125.587
 20
31.7995
 11
125.572
 21
31.7002
  0
LINE
  8
0
 10
125.572
 20
31.7002
 11
125.55
 21
31.6021
  0
LINE
  8
0
 10
125.55
 20
31.6021
 11
125.522
 21
31.5056
  0
LINE
  8
0
 10
125.522
 20
31.5056
 11
125.488
 21
31.411
  0
LINE
  8
0
 10
125.488
 20
31.411
 11
125.448
 21
31.3188
  0
LINE
  8
0
 10
125.448
 20
31.3188
 11
125.402
 21
31.2292
  0
LINE
  8
0
 10
125.402
 20
31.2292
 11
125.351
 21
31.1427
  0
LINE
  8
0
 10
125.351
 20
31.1427
 11
125.294
 21
31.0596
  0
LINE
  8
0
 10
125.294
 20
31.0596
 11
125.233
 21
30.9801
  0
LINE
  8
0
 10
125.233
 20
30.9801
 11
125.166
 21
30.9047
  0
LINE
  8
0
 10
125.166
 20
30.9047
 11
125.095
 21
30.8337
  0
LINE
  8
0
 10
125.095
 20
30.8337
 11
125.02
 21
30.7672
  0
LINE
  8
0
 10
125.02
 20
30.7672
 11
124.94
 21
30.7056
  0
LINE
  8
0
 10
124.94
 20
30.7056
 11
124.857
 21
30.6491
  0
LINE
  8
0
 10
124.857
 20
30.6491
 11
124.771
 21
30.5979
  0
LINE
  8
0
 10
124.771
 20
30.5979
 11
124.681
 21
30.5523
  0
LINE
  8
0
 10
124.681
 20
30.5523
 11
124.589
 21
30.5124
  0
LINE
  8
0
 10
124.589
 20
30.5124
 11
124.494
 21
30.4783
  0
LINE
  8
0
 10
124.494
 20
30.4783
 11
124.398
 21
30.4503
  0
LINE
  8
0
 10
124.398
 20
30.4503
 11
124.3
 21
30.4283
  0
LINE
  8
0
 10
124.3
 20
30.4283
 11
124.201
 21
30.4126
  0
LINE
  8
0
 10
124.201
 20
30.4126
 11
124.1
 21
30.4032
  0
LINE
  8
0
 10
124.1
 20
30.4032
 11
124
 21
30.4
  0
LINE
  8
0
 10
124
 20
30.4
 11
123.9
 21
30.4032
  0
LINE
  8
0
 10
137.9
 20
30.4032
 11
137.799
 21
30.4126
  0
LINE
  8
0
 10
137.799
 20
30.4126
 11
137.7
 21
30.4283
  0
LINE
  8
0
 10
137.7
 20
30.4283
 11
137.602
 21
30.4503
  0
LINE
  8
0
 10
137.602
 20
30.4503
 11
137.506
 21
30.4783
  0
LINE
  8
0
 10
137.506
 20
30.4783
 11
137.411
 21
30.5124
  0
LINE
  8
0
 10
137.411
 20
30.5124
 11
137.319
 21
30.5523
  0
LINE
  8
0
 10
137.319
 20
30.5523
 11
137.229
 21
30.5979
  0
LINE
  8
0
 10
137.229
 20
30.5979
 11
137.143
 21
30.6491
  0
LINE
  8
0
 10
137.143
 20
30.6491
 11
137.06
 21
30.7056
  0
LINE
  8
0
 10
137.06
 20
30.7056
 11
136.98
 21
30.7672
  0
LINE
  8
0
 10
136.98
 20
30.7672
 11
136.905
 21
30.8337
  0
LINE
  8
0
 10
136.905
 20
30.8337
 11
136.834
 21
30.9047
  0
LINE
  8
0
 10
136.834
 20
30.9047
 11
136.767
 21
30.9801
  0
LINE
  8
0
 10
136.767
 20
30.9801
 11
136.706
 21
31.0596
  0
LINE
  8
0
 10
136.706
 20
31.0596
 11
136.649
 21
31.1427
  0
LINE
  8
0
 10
136.649
 20
31.1427
 11
136.598
 21
31.2292
  0
LINE
  8
0
 10
136.598
 20
31.2292
 11
136.552
 21
31.3188
  0
LINE
  8
0
 10
136.552
 20
31.3188
 11
136.512
 21
31.411
  0
LINE
  8
0
 10
136.512
 20
31.411
 11
136.478
 21
31.5056
  0
LINE
  8
0
 10
136.478
 20
31.5056
 11
136.45
 21
31.6021
  0
LINE
  8
0
 10
136.45
 20
31.6021
 11
136.428
 21
31.7002
  0
LINE
  8
0
 10
136.428
 20
31.7002
 11
136.413
 21
31.7995
  0
LINE
  8
0
 10
136.413
 20
31.7995
 11
136.403
 21
31.8995
  0
LINE
  8
0
 10
136.403
 20
31.8995
 11
136.4
 21
32
  0
LINE
  8
0
 10
136.4
 20
32
 11
136.403
 21
32.1005
  0
LINE
  8
0
 10
136.403
 20
32.1005
 11
136.413
 21
32.2005
  0
LINE
  8
0
 10
136.413
 20
32.2005
 11
136.428
 21
32.2998
  0
LINE
  8
0
 10
136.428
 20
32.2998
 11
136.45
 21
32.3979
  0
LINE
  8
0
 10
136.45
 20
32.3979
 11
136.478
 21
32.4944
  0
LINE
  8
0
 10
136.478
 20
32.4944
 11
136.512
 21
32.589
  0
LINE
  8
0
 10
136.512
 20
32.589
 11
136.552
 21
32.6812
  0
LINE
  8
0
 10
136.552
 20
32.6812
 11
136.598
 21
32.7708
  0
LINE
  8
0
 10
136.598
 20
32.7708
 11
136.649
 21
32.8573
  0
LINE
  8
0
 10
136.649
 20
32.8573
 11
136.706
 21
32.9404
  0
LINE
  8
0
 10
136.706
 20
32.9404
 11
136.767
 21
33.0199
  0
LINE
  8
0
 10
136.767
 20
33.0199
 11
136.834
 21
33.0953
  0
LINE
  8
0
 10
136.834
 20
33.0953
 11
136.905
 21
33.1663
  0
LINE
  8
0
 10
136.905
 20
33.1663
 11
136.98
 21
33.2328
  0
LINE
  8
0
 10
136.98
 20
33.2328
 11
137.06
 21
33.2944
  0
LINE
  8
0
 10
137.06
 20
33.2944
 11
137.143
 21
33.3509
  0
LINE
  8
0
 10
137.143
 20
33.3509
 11
137.229
 21
33.4021
  0
LINE
  8
0
 10
137.229
 20
33.4021
 11
137.319
 21
33.4477
  0
LINE
  8
0
 10
137.319
 20
33.4477
 11
137.411
 21
33.4876
  0
LINE
  8
0
 10
137.411
 20
33.4876
 11
137.506
 21
33.5217
  0
LINE
  8
0
 10
137.506
 20
33.5217
 11
137.602
 21
33.5497
  0
LINE
  8
0
 10
137.602
 20
33.5497
 11
137.7
 21
33.5717
  0
LINE
  8
0
 10
137.7
 20
33.5717
 11
137.799
 21
33.5874
  0
LINE
  8
0
 10
137.799
 20
33.5874
 11
137.9
 21
33.5968
  0
LINE
  8
0
 10
137.9
 20
33.5968
 11
138
 21
33.6
  0
LINE
  8
0
 10
138
 20
33.6
 11
138.1
 21
33.5968
  0
LINE
  8
0
 10
138.1
 20
33.5968
 11
138.201
 21
33.5874
  0
LINE
  8
0
 10
138.201
 20
33.5874
 11
138.3
 21
33.5717
  0
LINE
  8
0
 10
138.3
 20
33.5717
 11
138.398
 21
33.5497
  0
LINE
  8
0
 10
138.398
 20
33.5497
 11
138.494
 21
33.5217
  0
LINE
  8
0
 10
138.494
 20
33.5217
 11
138.589
 21
33.4876
  0
LINE
  8
0
 10
138.589
 20
33.4876
 11
138.681
 21
33.4477
  0
LINE
  8
0
 10
138.681
 20
33.4477
 11
138.771
 21
33.4021
  0
LINE
  8
0
 10
138.771
 20
33.4021
 11
138.857
 21
33.3509
  0
LINE
  8
0
 10
138.857
 20
33.3509
 11
138.94
 21
33.2944
  0
LINE
  8
0
 10
138.94
 20
33.2944
 11
139.02
 21
33.2328
  0
LINE
  8
0
 10
139.02
 20
33.2328
 11
139.095
 21
33.1663
  0
LINE
  8
0
 10
139.095
 20
33.1663
 11
139.166
 21
33.0953
  0
LINE
  8
0
 10
139.166
 20
33.0953
 11
139.233
 21
33.0199
  0
LINE
  8
0
 10
139.233
 20
33.0199
 11
139.294
 21
32.9404
  0
LINE
  8
0
 10
139.294
 20
32.9404
 11
139.351
 21
32.8573
  0
LINE
  8
0
 10
139.351
 20
32.8573
 11
139.402
 21
32.7708
  0
LINE
  8
0
 10
139.402
 20
32.7708
 11
139.448
 21
32.6812
  0
LINE
  8
0
 10
139.448
 20
32.6812
 11
139.488
 21
32.589
  0
LINE
  8
0
 10
139.488
 20
32.589
 11
139.522
 21
32.4944
  0
LINE
  8
0
 10
139.522
 20
32.4944
 11
139.55
 21
32.3979
  0
LINE
  8
0
 10
139.55
 20
32.3979
 11
139.572
 21
32.2998
  0
LINE
  8
0
 10
139.572
 20
32.2998
 11
139.587
 21
32.2005
  0
LINE
  8
0
 10
139.587
 20
32.2005
 11
139.597
 21
32.1005
  0
LINE
  8
0
 10
139.597
 20
32.1005
 11
139.6
 21
32
  0
LINE
  8
0
 10
139.6
 20
32
 11
139.597
 21
31.8995
  0
LINE
  8
0
 10
139.597
 20
31.8995
 11
139.587
 21
31.7995
  0
LINE
  8
0
 10
139.587
 20
31.7995
 11
139.572
 21
31.7002
  0
LINE
  8
0
 10
139.572
 20
31.7002
 11
139.55
 21
31.6021
  0
LINE
  8
0
 10
139.55
 20
31.6021
 11
139.522
 21
31.5056
  0
LINE
  8
0
 10
139.522
 20
31.5056
 11
139.488
 21
31.411
  0
LINE
  8
0
 10
139.488
 20
31.411
 11
139.448
 21
31.3188
  0
LINE
  8
0
 10
139.448
 20
31.3188
 11
139.402
 21
31.2292
  0
LINE
  8
0
 10
139.402
 20
31.2292
 11
139.351
 21
31.1427
  0
LINE
  8
0
 10
139.351
 20
31.1427
 11
139.294
 21
31.0596
  0
LINE
  8
0
 10
139.294
 20
31.0596
 11
139.233
 21
30.9801
  0
LINE
  8
0
 10
139.233
 20
30.9801
 11
139.166
 21
30.9047
  0
LINE
  8
0
 10
139.166
 20
30.9047
 11
139.095
 21
30.8337
  0
LINE
  8
0
 10
139.095
 20
30.8337
 11
139.02
 21
30.7672
  0
LINE
  8
0
 10
139.02
 20
30.7672
 11
138.94
 21
30.7056
  0
LINE
  8
0
 10
138.94
 20
30.7056
 11
138.857
 21
30.6491
  0
LINE
  8
0
 10
138.857
 20
30.6491
 11
138.771
 21
30.5979
  0
LINE
  8
0
 10
138.771
 20
30.5979
 11
138.681
 21
30.5523
  0
LINE
  8
0
 10
138.681
 20
30.5523
 11
138.589
 21
30.5124
  0
LINE
  8
0
 10
138.589
 20
30.5124
 11
138.494
 21
30.4783
  0
LINE
  8
0
 10
138.494
 20
30.4783
 11
138.398
 21
30.4503
  0
LINE
  8
0
 10
138.398
 20
30.4503
 11
138.3
 21
30.4283
  0
LINE
  8
0
 10
138.3
 20
30.4283
 11
138.201
 21
30.4126
  0
LINE
  8
0
 10
138.201
 20
30.4126
 11
138.1
 21
30.4032
  0
LINE
  8
0
 10
138.1
 20
30.4032
 11
138
 21
30.4
  0
LINE
  8
0
 10
138
 20
30.4
 11
137.9
 21
30.4032
  0
LINE
  8
0
 10
130.953
 20
31.5022
 11
130.876
 21
31.5157
  0
LINE
  8
0
 10
130.876
 20
31.5157
 11
130.801
 21
31.5411
  0
LINE
  8
0
 10
130.801
 20
31.5411
 11
130.732
 21
31.5779
  0
LINE
  8
0
 10
130.732
 20
31.5779
 11
130.669
 21
31.625
  0
LINE
  8
0
 10
130.669
 20
31.625
 11
130.615
 21
31.6813
  0
LINE
  8
0
 10
130.615
 20
31.6813
 11
130.57
 21
31.7455
  0
LINE
  8
0
 10
130.57
 20
31.7455
 11
130.535
 21
31.8159
  0
LINE
  8
0
 10
130.535
 20
31.8159
 11
130.512
 21
31.8909
  0
LINE
  8
0
 10
130.512
 20
31.8909
 11
130.501
 21
31.9686
  0
LINE
  8
0
 10
130.501
 20
31.9686
 11
130.502
 21
32.047
  0
LINE
  8
0
 10
130.502
 20
32.047
 11
130.516
 21
32.1243
  0
LINE
  8
0
 10
130.516
 20
32.1243
 11
130.541
 21
32.1986
  0
LINE
  8
0
 10
130.541
 20
32.1986
 11
130.578
 21
32.2679
  0
LINE
  8
0
 10
130.578
 20
32.2679
 11
130.625
 21
32.3306
  0
LINE
  8
0
 10
130.625
 20
32.3306
 11
130.681
 21
32.3853
  0
LINE
  8
0
 10
130.681
 20
32.3853
 11
130.745
 21
32.4304
  0
LINE
  8
0
 10
130.745
 20
32.4304
 11
130.816
 21
32.4649
  0
LINE
  8
0
 10
130.816
 20
32.4649
 11
130.891
 21
32.4879
  0
LINE
  8
0
 10
130.891
 20
32.4879
 11
130.969
 21
32.499
  0
LINE
  8
0
 10
130.969
 20
32.499
 11
131.047
 21
32.4978
  0
LINE
  8
0
 10
131.047
 20
32.4978
 11
131.124
 21
32.4843
  0
LINE
  8
0
 10
131.124
 20
32.4843
 11
131.199
 21
32.4589
  0
LINE
  8
0
 10
131.199
 20
32.4589
 11
131.268
 21
32.4221
  0
LINE
  8
0
 10
131.268
 20
32.4221
 11
131.331
 21
32.375
  0
LINE
  8
0
 10
131.331
 20
32.375
 11
131.385
 21
32.3187
  0
LINE
  8
0
 10
131.385
 20
32.3187
 11
131.43
 21
32.2545
  0
LINE
  8
0
 10
131.43
 20
32.2545
 11
131.465
 21
32.1841
  0
LINE
  8
0
 10
131.465
 20
32.1841
 11
131.488
 21
32.1091
  0
LINE
  8
0
 10
131.488
 20
32.1091
 11
131.499
 21
32.0314
  0
LINE
  8
0
 10
131.499
 20
32.0314
 11
131.498
 21
31.953
  0
LINE
  8
0
 10
131.498
 20
31.953
 11
131.484
 21
31.8757
  0
LINE
  8
0
 10
131.484
 20
31.8757
 11
131.459
 21
31.8014
  0
LINE
  8
0
 10
131.459
 20
31.8014
 11
131.422
 21
31.7321
  0
LINE
  8
0
 10
131.422
 20
31.7321
 11
131.375
 21
31.6694
  0
LINE
  8
0
 10
131.375
 20
31.6694
 11
131.319
 21
31.6147
  0
LINE
  8
0
 10
131.319
 20
31.6147
 11
131.255
 21
31.5696
  0
LINE
  8
0
 10
131.255
 20
31.5696
 11
131.184
 21
31.5351
  0
LINE
  8
0
 10
131.184
 20
31.5351
 11
131.109
 21
31.5121
  0
LINE
  8
0
 10
131.109
 20
31.5121
 11
131.031
 21
31.501
  0
LINE
  8
0
 10
131.031
 20
31.501
 11
130.953
 21
31.5022
  0
LINE
  8
0
 10
120
 20
41
 11
9
 21
41
  0
LINE
  8
0
 10
9
 20
41
 11
8.7173
 21
40.9955
  0
LINE
  8
0
 10
8.7173
 20
40.9955
 11
8.43488
 21
40.9822
  0
LINE
  8
0
 10
8.43488
 20
40.9822
 11
8.15302
 21
40.9601
  0
LINE
  8
0
 10
8.15302
 20
40.9601
 11
7.87199
 21
40.929
  0
LINE
  8
0
 10
7.87199
 20
40.929
 11
7.59209
 21
40.8892
  0
LINE
  8
0
 10
7.59209
 20
40.8892
 11
7.31357
 21
40.8406
  0
LINE
  8
0
 10
7.31357
 20
40.8406
 11
7.0367
 21
40.7832
  0
LINE
  8
0
 10
7.0367
 20
40.7832
 11
6.76178
 21
40.7172
  0
LINE
  8
0
 10
6.76178
 20
40.7172
 11
6.48907
 21
40.6426
  0
LINE
  8
0
 10
6.48907
 20
40.6426
 11
6.21884
 21
40.5595
  0
LINE
  8
0
 10
6.21884
 20
40.5595
 11
5.95135
 21
40.4679
  0
LINE
  8
0
 10
5.95135
 20
40.4679
 11
5.68687
 21
40.368
  0
LINE
  8
0
 10
5.68687
 20
40.368
 11
5.42566
 21
40.2598
  0
LINE
  8
0
 10
5.42566
 20
40.2598
 11
5.16798
 21
40.1434
  0
LINE
  8
0
 10
5.16798
 20
40.1434
 11
4.91408
 21
40.0191
  0
LINE
  8
0
 10
4.91408
 20
40.0191
 11
4.66422
 21
39.8867
  0
LINE
  8
0
 10
4.66422
 20
39.8867
 11
4.41862
 21
39.7467
  0
LINE
  8
0
 10
4.41862
 20
39.7467
 11
4.17755
 21
39.5989
  0
LINE
  8
0
 10
4.17755
 20
39.5989
 11
3.94124
 21
39.4437
  0
LINE
  8
0
 10
3.94124
 20
39.4437
 11
3.70993
 21
39.2811
  0
LINE
  8
0
 10
3.70993
 20
39.2811
 11
3.48383
 21
39.1114
  0
LINE
  8
0
 10
3.48383
 20
39.1114
 11
3.26318
 21
38.9346
  0
LINE
  8
0
 10
3.26318
 20
38.9346
 11
3.04819
 21
38.751
  0
LINE
  8
0
 10
3.04819
 20
38.751
 11
2.83907
 21
38.5607
  0
LINE
  8
0
 10
2.83907
 20
38.5607
 11
2.63603
 21
38.364
  0
LINE
  8
0
 10
2.63603
 20
38.364
 11
2.43927
 21
38.1609
  0
LINE
  8
0
 10
2.43927
 20
38.1609
 11
2.24899
 21
37.9518
  0
LINE
  8
0
 10
2.24899
 20
37.9518
 11
2.06537
 21
37.7368
  0
LINE
  8
0
 10
2.06537
 20
37.7368
 11
1.8886
 21
37.5162
  0
LINE
  8
0
 10
1.8886
 20
37.5162
 11
1.71884
 21
37.2901
  0
LINE
  8
0
 10
1.71884
 20
37.2901
 11
1.55627
 21
37.0587
  0
LINE
  8
0
 10
1.55627
 20
37.0587
 11
1.40105
 21
36.8224
  0
LINE
  8
0
 10
1.40105
 20
36.8224
 11
1.25331
 21
36.5814
  0
LINE
  8
0
 10
1.25331
 20
36.5814
 11
1.11324
 21
36.3358
  0
LINE
  8
0
 10
1.11324
 20
36.3358
 11
0.980927
 21
36.0859
  0
LINE
  8
0
 10
0.980927
 20
36.0859
 11
0.856552
 21
35.832
  0
LINE
  8
0
 10
0.856552
 20
35.832
 11
0.740204
 21
35.5743
  0
LINE
  8
0
 10
0.740204
 20
35.5743
 11
0.632004
 21
35.3131
  0
LINE
  8
0
 10
0.632004
 20
35.3131
 11
0.532059
 21
35.0486
  0
LINE
  8
0
 10
0.532059
 20
35.0486
 11
0.440491
 21
34.7811
  0
LINE
  8
0
 10
0.440491
 20
34.7811
 11
0.357346
 21
34.5109
  0
LINE
  8
0
 10
0.357346
 20
34.5109
 11
0.282745
 21
34.2382
  0
LINE
  8
0
 10
0.282745
 20
34.2382
 11
0.216736
 21
33.9633
  0
LINE
  8
0
 10
0.216736
 20
33.9633
 11
0.159409
 21
33.6864
  0
LINE
  8
0
 10
0.159409
 20
33.6864
 11
0.110794
 21
33.4079
  0
LINE
  8
0
 10
0.110794
 20
33.4079
 11
0.0709534
 21
33.128
  0
LINE
  8
0
 10
0.0709534
 20
33.128
 11
0.0399323
 21
32.847
  0
LINE
  8
0
 10
0.0399323
 20
32.847
 11
0.017746
 21
32.5651
  0
LINE
  8
0
 10
0.017746
 20
32.5651
 11
0.00444031
 21
32.2827
  0
LINE
  8
0
 10
0.00444031
 20
32.2827
 11
0
 21
32
  0
LINE
  8
0
 10
0
 20
32
 11
0.00444031
 21
31.7173
  0
LINE
  8
0
 10
0.00444031
 20
31.7173
 11
0.017746
 21
31.4349
  0
LINE
  8
0
 10
0.017746
 20
31.4349
 11
0.0399323
 21
31.153
  0
LINE
  8
0
 10
0.0399323
 20
31.153
 11
0.0709534
 21
30.872
  0
LINE
  8
0
 10
0.0709534
 20
30.872
 11
0.110794
 21
30.5921
  0
LINE
  8
0
 10
0.110794
 20
30.5921
 11
0.159409
 21
30.3136
  0
LINE
  8
0
 10
0.159409
 20
30.3136
 11
0.216736
 21
30.0367
  0
LINE
  8
0
 10
0.216736
 20
30.0367
 11
0.282745
 21
29.7618
  0
LINE
  8
0
 10
0.282745
 20
29.7618
 11
0.357346
 21
29.4891
  0
LINE
  8
0
 10
0.357346
 20
29.4891
 11
0.440491
 21
29.2188
  0
LINE
  8
0
 10
0.440491
 20
29.2188
 11
0.532059
 21
28.9514
  0
LINE
  8
0
 10
0.532059
 20
28.9514
 11
0.632004
 21
28.6869
  0
LINE
  8
0
 10
0.632004
 20
28.6869
 11
0.740204
 21
28.4257
  0
LINE
  8
0
 10
0.740204
 20
28.4257
 11
0.856552
 21
28.168
  0
LINE
  8
0
 10
0.856552
 20
28.168
 11
0.980927
 21
27.9141
  0
LINE
  8
0
 10
0.980927
 20
27.9141
 11
1.11324
 21
27.6642
  0
LINE
  8
0
 10
1.11324
 20
27.6642
 11
1.25331
 21
27.4186
  0
LINE
  8
0
 10
1.25331
 20
27.4186
 11
1.40105
 21
27.1776
  0
LINE
  8
0
 10
1.40105
 20
27.1776
 11
1.55627
 21
26.9412
  0
LINE
  8
0
 10
1.55627
 20
26.9412
 11
1.71884
 21
26.7099
  0
LINE
  8
0
 10
1.71884
 20
26.7099
 11
1.8886
 21
26.4838
  0
LINE
  8
0
 10
1.8886
 20
26.4838
 11
2.06537
 21
26.2632
  0
LINE
  8
0
 10
2.06537
 20
26.2632
 11
2.24899
 21
26.0482
  0
LINE
  8
0
 10
2.24899
 20
26.0482
 11
2.43927
 21
25.8391
  0
LINE
  8
0
 10
2.43927
 20
25.8391
 11
2.63603
 21
25.636
  0
LINE
  8
0
 10
2.63603
 20
25.636
 11
2.83907
 21
25.4393
  0
LINE
  8
0
 10
2.83907
 20
25.4393
 11
3.04819
 21
25.249
  0
LINE
  8
0
 10
3.04819
 20
25.249
 11
3.26318
 21
25.0654
  0
LINE
  8
0
 10
3.26318
 20
25.0654
 11
3.48383
 21
24.8886
  0
LINE
  8
0
 10
3.48383
 20
24.8886
 11
3.70993
 21
24.7188
  0
LINE
  8
0
 10
3.70993
 20
24.7188
 11
3.94124
 21
24.5563
  0
LINE
  8
0
 10
3.94124
 20
24.5563
 11
4.17755
 21
24.401
  0
LINE
  8
0
 10
4.17755
 20
24.401
 11
4.41862
 21
24.2533
  0
LINE
  8
0
 10
4.41862
 20
24.2533
 11
4.66422
 21
24.1132
  0
LINE
  8
0
 10
4.66422
 20
24.1132
 11
4.91408
 21
23.9809
  0
LINE
  8
0
 10
4.91408
 20
23.9809
 11
5.16798
 21
23.8566
  0
LINE
  8
0
 10
5.16798
 20
23.8566
 11
5.42566
 21
23.7402
  0
LINE
  8
0
 10
5.42566
 20
23.7402
 11
5.68687
 21
23.632
  0
LINE
  8
0
 10
5.68687
 20
23.632
 11
5.95135
 21
23.5321
  0
LINE
  8
0
 10
5.95135
 20
23.5321
 11
6.21884
 21
23.4405
  0
LINE
  8
0
 10
6.21884
 20
23.4405
 11
6.48907
 21
23.3573
  0
LINE
  8
0
 10
6.48907
 20
23.3573
 11
6.76178
 21
23.2827
  0
LINE
  8
0
 10
6.76178
 20
23.2827
 11
7.0367
 21
23.2167
  0
LINE
  8
0
 10
7.0367
 20
23.2167
 11
7.31357
 21
23.1594
  0
LINE
  8
0
 10
7.31357
 20
23.1594
 11
7.59209
 21
23.1108
  0
LINE
  8
0
 10
7.59209
 20
23.1108
 11
7.87199
 21
23.071
  0
LINE
  8
0
 10
7.87199
 20
23.071
 11
8.15302
 21
23.0399
  0
LINE
  8
0
 10
8.15302
 20
23.0399
 11
8.43488
 21
23.0177
  0
LINE
  8
0
 10
8.43488
 20
23.0177
 11
8.7173
 21
23.0044
  0
LINE
  8
0
 10
8.7173
 20
23.0044
 11
8.99998
 21
23
  0
LINE
  8
0
 10
8.99998
 20
23
 11
120
 21
23
  0
LINE
  8
0
 10
120
 20
23
 11
120
 21
41
  0
LINE
  8
0
 10
15.8995
 20
30.4032
 11
15.7995
 21
30.4126
  0
LINE
  8
0
 10
15.7995
 20
30.4126
 11
15.7002
 21
30.4283
  0
LINE
  8
0
 10
15.7002
 20
30.4283
 11
15.6021
 21
30.4503
  0
LINE
  8
0
 10
15.6021
 20
30.4503
 11
15.5056
 21
30.4783
  0
LINE
  8
0
 10
15.5056
 20
30.4783
 11
15.411
 21
30.5124
  0
LINE
  8
0
 10
15.411
 20
30.5124
 11
15.3187
 21
30.5523
  0
LINE
  8
0
 10
15.3187
 20
30.5523
 11
15.2292
 21
30.5979
  0
LINE
  8
0
 10
15.2292
 20
30.5979
 11
15.1427
 21
30.6491
  0
LINE
  8
0
 10
15.1427
 20
30.6491
 11
15.0595
 21
30.7056
  0
LINE
  8
0
 10
15.0595
 20
30.7056
 11
14.9801
 21
30.7672
  0
LINE
  8
0
 10
14.9801
 20
30.7672
 11
14.9047
 21
30.8337
  0
LINE
  8
0
 10
14.9047
 20
30.8337
 11
14.8336
 21
30.9047
  0
LINE
  8
0
 10
14.8336
 20
30.9047
 11
14.7672
 21
30.9801
  0
LINE
  8
0
 10
14.7672
 20
30.9801
 11
14.7056
 21
31.0596
  0
LINE
  8
0
 10
14.7056
 20
31.0596
 11
14.6491
 21
31.1427
  0
LINE
  8
0
 10
14.6491
 20
31.1427
 11
14.5979
 21
31.2292
  0
LINE
  8
0
 10
14.5979
 20
31.2292
 11
14.5523
 21
31.3188
  0
LINE
  8
0
 10
14.5523
 20
31.3188
 11
14.5123
 21
31.411
  0
LINE
  8
0
 10
14.5123
 20
31.411
 11
14.4783
 21
31.5056
  0
LINE
  8
0
 10
14.4783
 20
31.5056
 11
14.4503
 21
31.6021
  0
LINE
  8
0
 10
14.4503
 20
31.6021
 11
14.4283
 21
31.7002
  0
LINE
  8
0
 10
14.4283
 20
31.7002
 11
14.4126
 21
31.7995
  0
LINE
  8
0
 10
14.4126
 20
31.7995
 11
14.4032
 21
31.8995
  0
LINE
  8
0
 10
14.4032
 20
31.8995
 11
14.4
 21
32
  0
LINE
  8
0
 10
14.4
 20
32
 11
14.4032
 21
32.1005
  0
LINE
  8
0
 10
14.4032
 20
32.1005
 11
14.4126
 21
32.2005
  0
LINE
  8
0
 10
14.4126
 20
32.2005
 11
14.4283
 21
32.2998
  0
LINE
  8
0
 10
14.4283
 20
32.2998
 11
14.4503
 21
32.3979
  0
LINE
  8
0
 10
14.4503
 20
32.3979
 11
14.4783
 21
32.4944
  0
LINE
  8
0
 10
14.4783
 20
32.4944
 11
14.5123
 21
32.589
  0
LINE
  8
0
 10
14.5123
 20
32.589
 11
14.5523
 21
32.6812
  0
LINE
  8
0
 10
14.5523
 20
32.6812
 11
14.5979
 21
32.7708
  0
LINE
  8
0
 10
14.5979
 20
32.7708
 11
14.6491
 21
32.8573
  0
LINE
  8
0
 10
14.6491
 20
32.8573
 11
14.7056
 21
32.9404
  0
LINE
  8
0
 10
14.7056
 20
32.9404
 11
14.7672
 21
33.0199
  0
LINE
  8
0
 10
14.7672
 20
33.0199
 11
14.8336
 21
33.0953
  0
LINE
  8
0
 10
14.8336
 20
33.0953
 11
14.9047
 21
33.1663
  0
LINE
  8
0
 10
14.9047
 20
33.1663
 11
14.9801
 21
33.2328
  0
LINE
  8
0
 10
14.9801
 20
33.2328
 11
15.0595
 21
33.2944
  0
LINE
  8
0
 10
15.0595
 20
33.2944
 11
15.1427
 21
33.3509
  0
LINE
  8
0
 10
15.1427
 20
33.3509
 11
15.2292
 21
33.4021
  0
LINE
  8
0
 10
15.2292
 20
33.4021
 11
15.3187
 21
33.4477
  0
LINE
  8
0
 10
15.3187
 20
33.4477
 11
15.411
 21
33.4876
  0
LINE
  8
0
 10
15.411
 20
33.4876
 11
15.5056
 21
33.5217
  0
LINE
  8
0
 10
15.5056
 20
33.5217
 11
15.6021
 21
33.5497
  0
LINE
  8
0
 10
15.6021
 20
33.5497
 11
15.7002
 21
33.5717
  0
LINE
  8
0
 10
15.7002
 20
33.5717
 11
15.7995
 21
33.5874
  0
LINE
  8
0
 10
15.7995
 20
33.5874
 11
15.8995
 21
33.5968
  0
LINE
  8
0
 10
15.8995
 20
33.5968
 11
16
 21
33.6
  0
LINE
  8
0
 10
16
 20
33.6
 11
16.1005
 21
33.5968
  0
LINE
  8
0
 10
16.1005
 20
33.5968
 11
16.2005
 21
33.5874
  0
LINE
  8
0
 10
16.2005
 20
33.5874
 11
16.2998
 21
33.5717
  0
LINE
  8
0
 10
16.2998
 20
33.5717
 11
16.3979
 21
33.5497
  0
LINE
  8
0
 10
16.3979
 20
33.5497
 11
16.4944
 21
33.5217
  0
LINE
  8
0
 10
16.4944
 20
33.5217
 11
16.589
 21
33.4876
  0
LINE
  8
0
 10
16.589
 20
33.4876
 11
16.6812
 21
33.4477
  0
LINE
  8
0
 10
16.6812
 20
33.4477
 11
16.7708
 21
33.4021
  0
LINE
  8
0
 10
16.7708
 20
33.4021
 11
16.8573
 21
33.3509
  0
LINE
  8
0
 10
16.8573
 20
33.3509
 11
16.9404
 21
33.2944
  0
LINE
  8
0
 10
16.9404
 20
33.2944
 11
17.0199
 21
33.2328
  0
LINE
  8
0
 10
17.0199
 20
33.2328
 11
17.0953
 21
33.1663
  0
LINE
  8
0
 10
17.0953
 20
33.1663
 11
17.1663
 21
33.0953
  0
LINE
  8
0
 10
17.1663
 20
33.0953
 11
17.2328
 21
33.0199
  0
LINE
  8
0
 10
17.2328
 20
33.0199
 11
17.2944
 21
32.9404
  0
LINE
  8
0
 10
17.2944
 20
32.9404
 11
17.3509
 21
32.8573
  0
LINE
  8
0
 10
17.3509
 20
32.8573
 11
17.4021
 21
32.7708
  0
LINE
  8
0
 10
17.4021
 20
32.7708
 11
17.4477
 21
32.6812
  0
LINE
  8
0
 10
17.4477
 20
32.6812
 11
17.4876
 21
32.589
  0
LINE
  8
0
 10
17.4876
 20
32.589
 11
17.5217
 21
32.4944
  0
LINE
  8
0
 10
17.5217
 20
32.4944
 11
17.5497
 21
32.3979
  0
LINE
  8
0
 10
17.5497
 20
32.3979
 11
17.5717
 21
32.2998
  0
LINE
  8
0
 10
17.5717
 20
32.2998
 11
17.5874
 21
32.2005
  0
LINE
  8
0
 10
17.5874
 20
32.2005
 11
17.5968
 21
32.1005
  0
LINE
  8
0
 10
17.5968
 20
32.1005
 11
17.6
 21
32
  0
LINE
  8
0
 10
17.6
 20
32
 11
17.5968
 21
31.8995
  0
LINE
  8
0
 10
17.5968
 20
31.8995
 11
17.5874
 21
31.7995
  0
LINE
  8
0
 10
17.5874
 20
31.7995
 11
17.5717
 21
31.7002
  0
LINE
  8
0
 10
17.5717
 20
31.7002
 11
17.5497
 21
31.6021
  0
LINE
  8
0
 10
17.5497
 20
31.6021
 11
17.5217
 21
31.5056
  0
LINE
  8
0
 10
17.5217
 20
31.5056
 11
17.4876
 21
31.411
  0
LINE
  8
0
 10
17.4876
 20
31.411
 11
17.4477
 21
31.3188
  0
LINE
  8
0
 10
17.4477
 20
31.3188
 11
17.4021
 21
31.2292
  0
LINE
  8
0
 10
17.4021
 20
31.2292
 11
17.3509
 21
31.1427
  0
LINE
  8
0
 10
17.3509
 20
31.1427
 11
17.2944
 21
31.0596
  0
LINE
  8
0
 10
17.2944
 20
31.0596
 11
17.2328
 21
30.9801
  0
LINE
  8
0
 10
17.2328
 20
30.9801
 11
17.1663
 21
30.9047
  0
LINE
  8
0
 10
17.1663
 20
30.9047
 11
17.0953
 21
30.8337
  0
LINE
  8
0
 10
17.0953
 20
30.8337
 11
17.0199
 21
30.7672
  0
LINE
  8
0
 10
17.0199
 20
30.7672
 11
16.9404
 21
30.7056
  0
LINE
  8
0
 10
16.9404
 20
30.7056
 11
16.8573
 21
30.6491
  0
LINE
  8
0
 10
16.8573
 20
30.6491
 11
16.7708
 21
30.5979
  0
LINE
  8
0
 10
16.7708
 20
30.5979
 11
16.6812
 21
30.5523
  0
LINE
  8
0
 10
16.6812
 20
30.5523
 11
16.589
 21
30.5124
  0
LINE
  8
0
 10
16.589
 20
30.5124
 11
16.4944
 21
30.4783
  0
LINE
  8
0
 10
16.4944
 20
30.4783
 11
16.3979
 21
30.4503
  0
LINE
  8
0
 10
16.3979
 20
30.4503
 11
16.2998
 21
30.4283
  0
LINE
  8
0
 10
16.2998
 20
30.4283
 11
16.2005
 21
30.4126
  0
LINE
  8
0
 10
16.2005
 20
30.4126
 11
16.1005
 21
30.4032
  0
LINE
  8
0
 10
16.1005
 20
30.4032
 11
16
 21
30.4
  0
LINE
  8
0
 10
16
 20
30.4
 11
15.8995
 21
30.4032
  0
LINE
  8
0
 10
1.89954
 20
30.4032
 11
1.79947
 21
30.4126
  0
LINE
  8
0
 10
1.79947
 20
30.4126
 11
1.7002
 21
30.4283
  0
LINE
  8
0
 10
1.7002
 20
30.4283
 11
1.6021
 21
30.4503
  0
LINE
  8
0
 10
1.6021
 20
30.4503
 11
1.50558
 21
30.4783
  0
LINE
  8
0
 10
1.50558
 20
30.4783
 11
1.41101
 21
30.5124
  0
LINE
  8
0
 10
1.41101
 20
30.5124
 11
1.31876
 21
30.5523
  0
LINE
  8
0
 10
1.31876
 20
30.5523
 11
1.2292
 21
30.5979
  0
LINE
  8
0
 10
1.2292
 20
30.5979
 11
1.14268
 21
30.6491
  0
LINE
  8
0
 10
1.14268
 20
30.6491
 11
1.05956
 21
30.7056
  0
LINE
  8
0
 10
1.05956
 20
30.7056
 11
0.980133
 21
30.7672
  0
LINE
  8
0
 10
0.980133
 20
30.7672
 11
0.904739
 21
30.8337
  0
LINE
  8
0
 10
0.904739
 20
30.8337
 11
0.833664
 21
30.9047
  0
LINE
  8
0
 10
0.833664
 20
30.9047
 11
0.767181
 21
30.9801
  0
LINE
  8
0
 10
0.767181
 20
30.9801
 11
0.705582
 21
31.0596
  0
LINE
  8
0
 10
0.705582
 20
31.0596
 11
0.649078
 21
31.1427
  0
LINE
  8
0
 10
0.649078
 20
31.1427
 11
0.597916
 21
31.2292
  0
LINE
  8
0
 10
0.597916
 20
31.2292
 11
0.552292
 21
31.3188
  0
LINE
  8
0
 10
0.552292
 20
31.3188
 11
0.51236
 21
31.411
  0
LINE
  8
0
 10
0.51236
 20
31.411
 11
0.478317
 21
31.5056
  0
LINE
  8
0
 10
0.478317
 20
31.5056
 11
0.450272
 21
31.6021
  0
LINE
  8
0
 10
0.450272
 20
31.6021
 11
0.428345
 21
31.7002
  0
LINE
  8
0
 10
0.428345
 20
31.7002
 11
0.412628
 21
31.7995
  0
LINE
  8
0
 10
0.412628
 20
31.7995
 11
0.403168
 21
31.8995
  0
LINE
  8
0
 10
0.403168
 20
31.8995
 11
0.400009
 21
32
  0
LINE
  8
0
 10
0.400009
 20
32
 11
0.403168
 21
32.1005
  0
LINE
  8
0
 10
0.403168
 20
32.1005
 11
0.412628
 21
32.2005
  0
LINE
  8
0
 10
0.412628
 20
32.2005
 11
0.428345
 21
32.2998
  0
LINE
  8
0
 10
0.428345
 20
32.2998
 11
0.450272
 21
32.3979
  0
LINE
  8
0
 10
0.450272
 20
32.3979
 11
0.478317
 21
32.4944
  0
LINE
  8
0
 10
0.478317
 20
32.4944
 11
0.51236
 21
32.589
  0
LINE
  8
0
 10
0.51236
 20
32.589
 11
0.552292
 21
32.6812
  0
LINE
  8
0
 10
0.552292
 20
32.6812
 11
0.597916
 21
32.7708
  0
LINE
  8
0
 10
0.597916
 20
32.7708
 11
0.649078
 21
32.8573
  0
LINE
  8
0
 10
0.649078
 20
32.8573
 11
0.705582
 21
32.9404
  0
LINE
  8
0
 10
0.705582
 20
32.9404
 11
0.767181
 21
33.0199
  0
LINE
  8
0
 10
0.767181
 20
33.0199
 11
0.833664
 21
33.0953
  0
LINE
  8
0
 10
0.833664
 20
33.0953
 11
0.904739
 21
33.1663
  0
LINE
  8
0
 10
0.904739
 20
33.1663
 11
0.980133
 21
33.2328
  0
LINE
  8
0
 10
0.980133
 20
33.2328
 11
1.05956
 21
33.2944
  0
LINE
  8
0
 10
1.05956
 20
33.2944
 11
1.14268
 21
33.3509
  0
LINE
  8
0
 10
1.14268
 20
33.3509
 11
1.2292
 21
33.4021
  0
LINE
  8
0
 10
1.2292
 20
33.4021
 11
1.31876
 21
33.4477
  0
LINE
  8
0
 10
1.31876
 20
33.4477
 11
1.41101
 21
33.4876
  0
LINE
  8
0
 10
1.41101
 20
33.4876
 11
1.50558
 21
33.5217
  0
LINE
  8
0
 10
1.50558
 20
33.5217
 11
1.6021
 21
33.5497
  0
LINE
  8
0
 10
1.6021
 20
33.5497
 11
1.7002
 21
33.5717
  0
LINE
  8
0
 10
1.7002
 20
33.5717
 11
1.79947
 21
33.5874
  0
LINE
  8
0
 10
1.79947
 20
33.5874
 11
1.89954
 21
33.5968
  0
LINE
  8
0
 10
1.89954
 20
33.5968
 11
2
 21
33.6
  0
LINE
  8
0
 10
2
 20
33.6
 11
2.10048
 21
33.5968
  0
LINE
  8
0
 10
2.10048
 20
33.5968
 11
2.20055
 21
33.5874
  0
LINE
  8
0
 10
2.20055
 20
33.5874
 11
2.29982
 21
33.5717
  0
LINE
  8
0
 10
2.29982
 20
33.5717
 11
2.39792
 21
33.5497
  0
LINE
  8
0
 10
2.39792
 20
33.5497
 11
2.49443
 21
33.5217
  0
LINE
  8
0
 10
2.49443
 20
33.5217
 11
2.589
 21
33.4876
  0
LINE
  8
0
 10
2.589
 20
33.4876
 11
2.68126
 21
33.4477
  0
LINE
  8
0
 10
2.68126
 20
33.4477
 11
2.77081
 21
33.4021
  0
LINE
  8
0
 10
2.77081
 20
33.4021
 11
2.85733
 21
33.3509
  0
LINE
  8
0
 10
2.85733
 20
33.3509
 11
2.94046
 21
33.2944
  0
LINE
  8
0
 10
2.94046
 20
33.2944
 11
3.01988
 21
33.2328
  0
LINE
  8
0
 10
3.01988
 20
33.2328
 11
3.09528
 21
33.1663
  0
LINE
  8
0
 10
3.09528
 20
33.1663
 11
3.16635
 21
33.0953
  0
LINE
  8
0
 10
3.16635
 20
33.0953
 11
3.23283
 21
33.0199
  0
LINE
  8
0
 10
3.23283
 20
33.0199
 11
3.29443
 21
32.9404
  0
LINE
  8
0
 10
3.29443
 20
32.9404
 11
3.35094
 21
32.8573
  0
LINE
  8
0
 10
3.35094
 20
32.8573
 11
3.4021
 21
32.7708
  0
LINE
  8
0
 10
3.4021
 20
32.7708
 11
3.44772
 21
32.6812
  0
LINE
  8
0
 10
3.44772
 20
32.6812
 11
3.48766
 21
32.589
  0
LINE
  8
0
 10
3.48766
 20
32.589
 11
3.5217
 21
32.4944
  0
LINE
  8
0
 10
3.5217
 20
32.4944
 11
3.54974
 21
32.3979
  0
LINE
  8
0
 10
3.54974
 20
32.3979
 11
3.57167
 21
32.2998
  0
LINE
  8
0
 10
3.57167
 20
32.2998
 11
3.58739
 21
32.2005
  0
LINE
  8
0
 10
3.58739
 20
32.2005
 11
3.59685
 21
32.1005
  0
LINE
  8
0
 10
3.59685
 20
32.1005
 11
3.60001
 21
32
  0
LINE
  8
0
 10
3.60001
 20
32
 11
3.59685
 21
31.8995
  0
LINE
  8
0
 10
3.59685
 20
31.8995
 11
3.58739
 21
31.7995
  0
LINE
  8
0
 10
3.58739
 20
31.7995
 11
3.57167
 21
31.7002
  0
LINE
  8
0
 10
3.57167
 20
31.7002
 11
3.54974
 21
31.6021
  0
LINE
  8
0
 10
3.54974
 20
31.6021
 11
3.5217
 21
31.5056
  0
LINE
  8
0
 10
3.5217
 20
31.5056
 11
3.48766
 21
31.411
  0
LINE
  8
0
 10
3.48766
 20
31.411
 11
3.44772
 21
31.3188
  0
LINE
  8
0
 10
3.44772
 20
31.3188
 11
3.4021
 21
31.2292
  0
LINE
  8
0
 10
3.4021
 20
31.2292
 11
3.35094
 21
31.1427
  0
LINE
  8
0
 10
3.35094
 20
31.1427
 11
3.29443
 21
31.0596
  0
LINE
  8
0
 10
3.29443
 20
31.0596
 11
3.23283
 21
30.9801
  0
LINE
  8
0
 10
3.23283
 20
30.9801
 11
3.16635
 21
30.9047
  0
LINE
  8
0
 10
3.16635
 20
30.9047
 11
3.09528
 21
30.8337
  0
LINE
  8
0
 10
3.09528
 20
30.8337
 11
3.01988
 21
30.7672
  0
LINE
  8
0
 10
3.01988
 20
30.7672
 11
2.94046
 21
30.7056
  0
LINE
  8
0
 10
2.94046
 20
30.7056
 11
2.85733
 21
30.6491
  0
LINE
  8
0
 10
2.85733
 20
30.6491
 11
2.77081
 21
30.5979
  0
LINE
  8
0
 10
2.77081
 20
30.5979
 11
2.68126
 21
30.5523
  0
LINE
  8
0
 10
2.68126
 20
30.5523
 11
2.589
 21
30.5124
  0
LINE
  8
0
 10
2.589
 20
30.5124
 11
2.49443
 21
30.4783
  0
LINE
  8
0
 10
2.49443
 20
30.4783
 11
2.39792
 21
30.4503
  0
LINE
  8
0
 10
2.39792
 20
30.4503
 11
2.29982
 21
30.4283
  0
LINE
  8
0
 10
2.29982
 20
30.4283
 11
2.20055
 21
30.4126
  0
LINE
  8
0
 10
2.20055
 20
30.4126
 11
2.10048
 21
30.4032
  0
LINE
  8
0
 10
2.10048
 20
30.4032
 11
2
 21
30.4
  0
LINE
  8
0
 10
2
 20
30.4
 11
1.89954
 21
30.4032
  0
LINE
  8
0
 10
8.95296
 20
31.5022
 11
8.87566
 21
31.5157
  0
LINE
  8
0
 10
8.87566
 20
31.5157
 11
8.80144
 21
31.5411
  0
LINE
  8
0
 10
8.80144
 20
31.5411
 11
8.7321
 21
31.5779
  0
LINE
  8
0
 10
8.7321
 20
31.5779
 11
8.66936
 21
31.625
  0
LINE
  8
0
 10
8.66936
 20
31.625
 11
8.61475
 21
31.6813
  0
LINE
  8
0
 10
8.61475
 20
31.6813
 11
8.56964
 21
31.7455
  0
LINE
  8
0
 10
8.56964
 20
31.7455
 11
8.53513
 21
31.8159
  0
LINE
  8
0
 10
8.53513
 20
31.8159
 11
8.51205
 21
31.8909
  0
LINE
  8
0
 10
8.51205
 20
31.8909
 11
8.50099
 21
31.9686
  0
LINE
  8
0
 10
8.50099
 20
31.9686
 11
8.50223
 21
32.047
  0
LINE
  8
0
 10
8.50223
 20
32.047
 11
8.51572
 21
32.1243
  0
LINE
  8
0
 10
8.51572
 20
32.1243
 11
8.54114
 21
32.1986
  0
LINE
  8
0
 10
8.54114
 20
32.1986
 11
8.57785
 21
32.2679
  0
LINE
  8
0
 10
8.57785
 20
32.2679
 11
8.62495
 21
32.3306
  0
LINE
  8
0
 10
8.62495
 20
32.3306
 11
8.68129
 21
32.3853
  0
LINE
  8
0
 10
8.68129
 20
32.3853
 11
8.74548
 21
32.4304
  0
LINE
  8
0
 10
8.74548
 20
32.4304
 11
8.81595
 21
32.4649
  0
LINE
  8
0
 10
8.81595
 20
32.4649
 11
8.89093
 21
32.4879
  0
LINE
  8
0
 10
8.89093
 20
32.4879
 11
8.96861
 21
32.499
  0
LINE
  8
0
 10
8.96861
 20
32.499
 11
9.04704
 21
32.4978
  0
LINE
  8
0
 10
9.04704
 20
32.4978
 11
9.12434
 21
32.4843
  0
LINE
  8
0
 10
9.12434
 20
32.4843
 11
9.19856
 21
32.4589
  0
LINE
  8
0
 10
9.19856
 20
32.4589
 11
9.2679
 21
32.4221
  0
LINE
  8
0
 10
9.2679
 20
32.4221
 11
9.33064
 21
32.375
  0
LINE
  8
0
 10
9.33064
 20
32.375
 11
9.38525
 21
32.3187
  0
LINE
  8
0
 10
9.38525
 20
32.3187
 11
9.43036
 21
32.2545
  0
LINE
  8
0
 10
9.43036
 20
32.2545
 11
9.46487
 21
32.1841
  0
LINE
  8
0
 10
9.46487
 20
32.1841
 11
9.48795
 21
32.1091
  0
LINE
  8
0
 10
9.48795
 20
32.1091
 11
9.49901
 21
32.0314
  0
LINE
  8
0
 10
9.49901
 20
32.0314
 11
9.49777
 21
31.953
  0
LINE
  8
0
 10
9.49777
 20
31.953
 11
9.48428
 21
31.8757
  0
LINE
  8
0
 10
9.48428
 20
31.8757
 11
9.45886
 21
31.8014
  0
LINE
  8
0
 10
9.45886
 20
31.8014
 11
9.42215
 21
31.7321
  0
LINE
  8
0
 10
9.42215
 20
31.7321
 11
9.37505
 21
31.6694
  0
LINE
  8
0
 10
9.37505
 20
31.6694
 11
9.31871
 21
31.6147
  0
LINE
  8
0
 10
9.31871
 20
31.6147
 11
9.25452
 21
31.5696
  0
LINE
  8
0
 10
9.25452
 20
31.5696
 11
9.18405
 21
31.5351
  0
LINE
  8
0
 10
9.18405
 20
31.5351
 11
9.10907
 21
31.5121
  0
LINE
  8
0
 10
9.10907
 20
31.5121
 11
9.03139
 21
31.501
  0
LINE
  8
0
 10
9.03139
 20
31.501
 11
8.95296
 21
31.5022
  0
LINE
  8
0
 10
65
 20
21
 11
44
 21
21
  0
LINE
  8
0
 10
44
 20
21
 11
43.6702
 21
20.9948
  0
LINE
  8
0
 10
43.6702
 20
20.9948
 11
43.3407
 21
20.9793
  0
LINE
  8
0
 10
43.3407
 20
20.9793
 11
43.0119
 21
20.9534
  0
LINE
  8
0
 10
43.0119
 20
20.9534
 11
42.684
 21
20.9172
  0
LINE
  8
0
 10
42.684
 20
20.9172
 11
42.3574
 21
20.8707
  0
LINE
  8
0
 10
42.3574
 20
20.8707
 11
42.0325
 21
20.814
  0
LINE
  8
0
 10
42.0325
 20
20.814
 11
41.7095
 21
20.7471
  0
LINE
  8
0
 10
41.7095
 20
20.7471
 11
41.3887
 21
20.6701
  0
LINE
  8
0
 10
41.3887
 20
20.6701
 11
41.0706
 21
20.5831
  0
LINE
  8
0
 10
41.0706
 20
20.5831
 11
40.7553
 21
20.4861
  0
LINE
  8
0
 10
40.7553
 20
20.4861
 11
40.4432
 21
20.3792
  0
LINE
  8
0
 10
40.4432
 20
20.3792
 11
40.1347
 21
20.2626
  0
LINE
  8
0
 10
40.1347
 20
20.2626
 11
39.8299
 21
20.1364
  0
LINE
  8
0
 10
39.8299
 20
20.1364
 11
39.5293
 21
20.0007
  0
LINE
  8
0
 10
39.5293
 20
20.0007
 11
39.2331
 21
19.8556
  0
LINE
  8
0
 10
39.2331
 20
19.8556
 11
38.9416
 21
19.7012
  0
LINE
  8
0
 10
38.9416
 20
19.7012
 11
38.6551
 21
19.5378
  0
LINE
  8
0
 10
38.6551
 20
19.5378
 11
38.3738
 21
19.3654
  0
LINE
  8
0
 10
38.3738
 20
19.3654
 11
38.0981
 21
19.1843
  0
LINE
  8
0
 10
38.0981
 20
19.1843
 11
37.8282
 21
18.9947
  0
LINE
  8
0
 10
37.8282
 20
18.9947
 11
37.5645
 21
18.7966
  0
LINE
  8
0
 10
37.5645
 20
18.7966
 11
37.307
 21
18.5904
  0
LINE
  8
0
 10
37.307
 20
18.5904
 11
37.0562
 21
18.3762
  0
LINE
  8
0
 10
37.0562
 20
18.3762
 11
36.8122
 21
18.1542
  0
LINE
  8
0
 10
36.8122
 20
18.1542
 11
36.5754
 21
17.9246
  0
LINE
  8
0
 10
36.5754
 20
17.9246
 11
36.3458
 21
17.6877
  0
LINE
  8
0
 10
36.3458
 20
17.6877
 11
36.1238
 21
17.4438
  0
LINE
  8
0
 10
36.1238
 20
17.4438
 11
35.9096
 21
17.1929
  0
LINE
  8
0
 10
35.9096
 20
17.1929
 11
35.7034
 21
16.9355
  0
LINE
  8
0
 10
35.7034
 20
16.9355
 11
35.5053
 21
16.6717
  0
LINE
  8
0
 10
35.5053
 20
16.6717
 11
35.3156
 21
16.4019
  0
LINE
  8
0
 10
35.3156
 20
16.4019
 11
35.1346
 21
16.1262
  0
LINE
  8
0
 10
35.1346
 20
16.1262
 11
34.9622
 21
15.8449
  0
LINE
  8
0
 10
34.9622
 20
15.8449
 11
34.7988
 21
15.5584
  0
LINE
  8
0
 10
34.7988
 20
15.5584
 11
34.6444
 21
15.2669
  0
LINE
  8
0
 10
34.6444
 20
15.2669
 11
34.4993
 21
14.9707
  0
LINE
  8
0
 10
34.4993
 20
14.9707
 11
34.3636
 21
14.67
  0
LINE
  8
0
 10
34.3636
 20
14.67
 11
34.2373
 21
14.3653
  0
LINE
  8
0
 10
34.2373
 20
14.3653
 11
34.1207
 21
14.0567
  0
LINE
  8
0
 10
34.1207
 20
14.0567
 11
34.0139
 21
13.7447
  0
LINE
  8
0
 10
34.0139
 20
13.7447
 11
33.9169
 21
13.4294
  0
LINE
  8
0
 10
33.9169
 20
13.4294
 11
33.8299
 21
13.1112
  0
LINE
  8
0
 10
33.8299
 20
13.1112
 11
33.7529
 21
12.7905
  0
LINE
  8
0
 10
33.7529
 20
12.7905
 11
33.686
 21
12.4675
  0
LINE
  8
0
 10
33.686
 20
12.4675
 11
33.6293
 21
12.1425
  0
LINE
  8
0
 10
33.6293
 20
12.1425
 11
33.5828
 21
11.816
  0
LINE
  8
0
 10
33.5828
 20
11.816
 11
33.5466
 21
11.4881
  0
LINE
  8
0
 10
33.5466
 20
11.4881
 11
33.5207
 21
11.1593
  0
LINE
  8
0
 10
33.5207
 20
11.1593
 11
33.5052
 21
10.8298
  0
LINE
  8
0
 10
33.5052
 20
10.8298
 11
33.5
 21
10.5
  0
LINE
  8
0
 10
33.5
 20
10.5
 11
33.5052
 21
10.1702
  0
LINE
  8
0
 10
33.5052
 20
10.1702
 11
33.5207
 21
9.8407
  0
LINE
  8
0
 10
33.5207
 20
9.8407
 11
33.5466
 21
9.51186
  0
LINE
  8
0
 10
33.5466
 20
9.51186
 11
33.5828
 21
9.18399
  0
LINE
  8
0
 10
33.5828
 20
9.18399
 11
33.6293
 21
8.85744
  0
LINE
  8
0
 10
33.6293
 20
8.85744
 11
33.686
 21
8.53249
  0
LINE
  8
0
 10
33.686
 20
8.53249
 11
33.7529
 21
8.20949
  0
LINE
  8
0
 10
33.7529
 20
8.20949
 11
33.8299
 21
7.88875
  0
LINE
  8
0
 10
33.8299
 20
7.88875
 11
33.9169
 21
7.57059
  0
LINE
  8
0
 10
33.9169
 20
7.57059
 11
34.0139
 21
7.25531
  0
LINE
  8
0
 10
34.0139
 20
7.25531
 11
34.1207
 21
6.94324
  0
LINE
  8
0
 10
34.1207
 20
6.94324
 11
34.2373
 21
6.63469
  0
LINE
  8
0
 10
34.2373
 20
6.63469
 11
34.3636
 21
6.32994
  0
LINE
  8
0
 10
34.3636
 20
6.32994
 11
34.4993
 21
6.02931
  0
LINE
  8
0
 10
34.4993
 20
6.02931
 11
34.6444
 21
5.73309
  0
LINE
  8
0
 10
34.6444
 20
5.73309
 11
34.7988
 21
5.44157
  0
LINE
  8
0
 10
34.7988
 20
5.44157
 11
34.9622
 21
5.15506
  0
LINE
  8
0
 10
34.9622
 20
5.15506
 11
35.1346
 21
4.87381
  0
LINE
  8
0
 10
35.1346
 20
4.87381
 11
35.3156
 21
4.59811
  0
LINE
  8
0
 10
35.3156
 20
4.59811
 11
35.5053
 21
4.32825
  0
LINE
  8
0
 10
35.5053
 20
4.32825
 11
35.7034
 21
4.06447
  0
LINE
  8
0
 10
35.7034
 20
4.06447
 11
35.9096
 21
3.80704
  0
LINE
  8
0
 10
35.9096
 20
3.80704
 11
36.1238
 21
3.55621
  0
LINE
  8
0
 10
36.1238
 20
3.55621
 11
36.3458
 21
3.31224
  0
LINE
  8
0
 10
36.3458
 20
3.31224
 11
36.5754
 21
3.07538
  0
LINE
  8
0
 10
36.5754
 20
3.07538
 11
36.8122
 21
2.84583
  0
LINE
  8
0
 10
36.8122
 20
2.84583
 11
37.0562
 21
2.62383
  0
LINE
  8
0
 10
37.0562
 20
2.62383
 11
37.307
 21
2.40961
  0
LINE
  8
0
 10
37.307
 20
2.40961
 11
37.5645
 21
2.20337
  0
LINE
  8
0
 10
37.5645
 20
2.20337
 11
37.8282
 21
2.00531
  0
LINE
  8
0
 10
37.8282
 20
2.00531
 11
38.0981
 21
1.81564
  0
LINE
  8
0
 10
38.0981
 20
1.81564
 11
38.3738
 21
1.63455
  0
LINE
  8
0
 10
38.3738
 20
1.63455
 11
38.6551
 21
1.4622
  0
LINE
  8
0
 10
38.6551
 20
1.4622
 11
38.9416
 21
1.29877
  0
LINE
  8
0
 10
38.9416
 20
1.29877
 11
39.2331
 21
1.14442
  0
LINE
  8
0
 10
39.2331
 20
1.14442
 11
39.5293
 21
0.999313
  0
LINE
  8
0
 10
39.5293
 20
0.999313
 11
39.8299
 21
0.863571
  0
LINE
  8
0
 10
39.8299
 20
0.863571
 11
40.1347
 21
0.737335
  0
LINE
  8
0
 10
40.1347
 20
0.737335
 11
40.4432
 21
0.620743
  0
LINE
  8
0
 10
40.4432
 20
0.620743
 11
40.7553
 21
0.513901
  0
LINE
  8
0
 10
40.7553
 20
0.513901
 11
41.0706
 21
0.416916
  0
LINE
  8
0
 10
41.0706
 20
0.416916
 11
41.3887
 21
0.329865
  0
LINE
  8
0
 10
41.3887
 20
0.329865
 11
41.7095
 21
0.252869
  0
LINE
  8
0
 10
41.7095
 20
0.252869
 11
42.0325
 21
0.185974
  0
LINE
  8
0
 10
42.0325
 20
0.185974
 11
42.3574
 21
0.129257
  0
LINE
  8
0
 10
42.3574
 20
0.129257
 11
42.684
 21
0.0827942
  0
LINE
  8
0
 10
42.684
 20
0.0827942
 11
43.0119
 21
0.0465851
  0
LINE
  8
0
 10
43.0119
 20
0.0465851
 11
43.3407
 21
0.0207062
  0
LINE
  8
0
 10
43.3407
 20
0.0207062
 11
43.6702
 21
0.00517273
  0
LINE
  8
0
 10
43.6702
 20
0.00517273
 11
44
 21
0
  0
LINE
  8
0
 10
44
 20
0
 11
65
 21
0
  0
LINE
  8
0
 10
65
 20
0
 11
65
 21
21
  0
LINE
  8
0
 10
43.8909
 20
10.012
 11
43.8159
 21
10.0351
  0
LINE
  8
0
 10
43.8159
 20
10.0351
 11
43.7455
 21
10.0696
  0
LINE
  8
0
 10
43.7455
 20
10.0696
 11
43.6813
 21
10.1147
  0
LINE
  8
0
 10
43.6813
 20
10.1147
 11
43.6249
 21
10.1693
  0
LINE
  8
0
 10
43.6249
 20
10.1693
 11
43.5778
 21
10.2321
  0
LINE
  8
0
 10
43.5778
 20
10.2321
 11
43.5411
 21
10.3014
  0
LINE
  8
0
 10
43.5411
 20
10.3014
 11
43.5157
 21
10.3756
  0
LINE
  8
0
 10
43.5157
 20
10.3756
 11
43.5022
 21
10.4529
  0
LINE
  8
0
 10
43.5022
 20
10.4529
 11
43.501
 21
10.5314
  0
LINE
  8
0
 10
43.501
 20
10.5314
 11
43.512
 21
10.6091
  0
LINE
  8
0
 10
43.512
 20
10.6091
 11
43.5351
 21
10.6841
  0
LINE
  8
0
 10
43.5351
 20
10.6841
 11
43.5696
 21
10.7545
  0
LINE
  8
0
 10
43.5696
 20
10.7545
 11
43.6147
 21
10.8187
  0
LINE
  8
0
 10
43.6147
 20
10.8187
 11
43.6693
 21
10.875
  0
LINE
  8
0
 10
43.6693
 20
10.875
 11
43.7321
 21
10.9221
  0
LINE
  8
0
 10
43.7321
 20
10.9221
 11
43.8014
 21
10.9589
  0
LINE
  8
0
 10
43.8014
 20
10.9589
 11
43.8756
 21
10.9843
  0
LINE
  8
0
 10
43.8756
 20
10.9843
 11
43.9529
 21
10.9978
  0
LINE
  8
0
 10
43.9529
 20
10.9978
 11
44.0314
 21
10.999
  0
LINE
  8
0
 10
44.0314
 20
10.999
 11
44.1091
 21
10.9879
  0
LINE
  8
0
 10
44.1091
 20
10.9879
 11
44.1841
 21
10.9649
  0
LINE
  8
0
 10
44.1841
 20
10.9649
 11
44.2545
 21
10.9304
  0
LINE
  8
0
 10
44.2545
 20
10.9304
 11
44.3187
 21
10.8853
  0
LINE
  8
0
 10
44.3187
 20
10.8853
 11
44.375
 21
10.8306
  0
LINE
  8
0
 10
44.375
 20
10.8306
 11
44.4221
 21
10.7679
  0
LINE
  8
0
 10
44.4221
 20
10.7679
 11
44.4589
 21
10.6986
  0
LINE
  8
0
 10
44.4589
 20
10.6986
 11
44.4843
 21
10.6243
  0
LINE
  8
0
 10
44.4843
 20
10.6243
 11
44.4978
 21
10.547
  0
LINE
  8
0
 10
44.4978
 20
10.547
 11
44.499
 21
10.4686
  0
LINE
  8
0
 10
44.499
 20
10.4686
 11
44.4879
 21
10.3909
  0
LINE
  8
0
 10
44.4879
 20
10.3909
 11
44.4649
 21
10.3159
  0
LINE
  8
0
 10
44.4649
 20
10.3159
 11
44.4304
 21
10.2455
  0
LINE
  8
0
 10
44.4304
 20
10.2455
 11
44.3853
 21
10.1813
  0
LINE
  8
0
 10
44.3853
 20
10.1813
 11
44.3306
 21
10.1249
  0
LINE
  8
0
 10
44.3306
 20
10.1249
 11
44.2679
 21
10.0778
  0
LINE
  8
0
 10
44.2679
 20
10.0778
 11
44.1986
 21
10.0411
  0
LINE
  8
0
 10
44.1986
 20
10.0411
 11
44.1243
 21
10.0157
  0
LINE
  8
0
 10
44.1243
 20
10.0157
 11
44.047
 21
10.0022
  0
LINE
  8
0
 10
44.047
 20
10.0022
 11
43.9686
 21
10.001
  0
LINE
  8
0
 10
43.9686
 20
10.001
 11
43.8909
 21
10.012
  0
LINE
  8
0
 10
31.5
 20
21
 11
10.5
 21
21
  0
LINE
  8
0
 10
10.5
 20
21
 11
10.1702
 21
20.9948
  0
LINE
  8
0
 10
10.1702
 20
20.9948
 11
9.8407
 21
20.9793
  0
LINE
  8
0
 10
9.8407
 20
20.9793
 11
9.51186
 21
20.9534
  0
LINE
  8
0
 10
9.51186
 20
20.9534
 11
9.18399
 21
20.9172
  0
LINE
  8
0
 10
9.18399
 20
20.9172
 11
8.85744
 21
20.8707
  0
LINE
  8
0
 10
8.85744
 20
20.8707
 11
8.53249
 21
20.814
  0
LINE
  8
0
 10
8.53249
 20
20.814
 11
8.20949
 21
20.7471
  0
LINE
  8
0
 10
8.20949
 20
20.7471
 11
7.88875
 21
20.6701
  0
LINE
  8
0
 10
7.88875
 20
20.6701
 11
7.57059
 21
20.5831
  0
LINE
  8
0
 10
7.57059
 20
20.5831
 11
7.25531
 21
20.4861
  0
LINE
  8
0
 10
7.25531
 20
20.4861
 11
6.94324
 21
20.3792
  0
LINE
  8
0
 10
6.94324
 20
20.3792
 11
6.63469
 21
20.2626
  0
LINE
  8
0
 10
6.63469
 20
20.2626
 11
6.32994
 21
20.1364
  0
LINE
  8
0
 10
6.32994
 20
20.1364
 11
6.02931
 21
20.0007
  0
LINE
  8
0
 10
6.02931
 20
20.0007
 11
5.73309
 21
19.8556
  0
LINE
  8
0
 10
5.73309
 20
19.8556
 11
5.44157
 21
19.7012
  0
LINE
  8
0
 10
5.44157
 20
19.7012
 11
5.15506
 21
19.5378
  0
LINE
  8
0
 10
5.15506
 20
19.5378
 11
4.87381
 21
19.3654
  0
LINE
  8
0
 10
4.87381
 20
19.3654
 11
4.59811
 21
19.1843
  0
LINE
  8
0
 10
4.59811
 20
19.1843
 11
4.32825
 21
18.9947
  0
LINE
  8
0
 10
4.32825
 20
18.9947
 11
4.06447
 21
18.7966
  0
LINE
  8
0
 10
4.06447
 20
18.7966
 11
3.80704
 21
18.5904
  0
LINE
  8
0
 10
3.80704
 20
18.5904
 11
3.55621
 21
18.3762
  0
LINE
  8
0
 10
3.55621
 20
18.3762
 11
3.31224
 21
18.1542
  0
LINE
  8
0
 10
3.31224
 20
18.1542
 11
3.07538
 21
17.9246
  0
LINE
  8
0
 10
3.07538
 20
17.9246
 11
2.84583
 21
17.6877
  0
LINE
  8
0
 10
2.84583
 20
17.6877
 11
2.62383
 21
17.4438
  0
LINE
  8
0
 10
2.62383
 20
17.4438
 11
2.40961
 21
17.1929
  0
LINE
  8
0
 10
2.40961
 20
17.1929
 11
2.20337
 21
16.9355
  0
LINE
  8
0
 10
2.20337
 20
16.9355
 11
2.00531
 21
16.6717
  0
LINE
  8
0
 10
2.00531
 20
16.6717
 11
1.81564
 21
16.4019
  0
LINE
  8
0
 10
1.81564
 20
16.4019
 11
1.63455
 21
16.1262
  0
LINE
  8
0
 10
1.63455
 20
16.1262
 11
1.4622
 21
15.8449
  0
LINE
  8
0
 10
1.4622
 20
15.8449
 11
1.29877
 21
15.5584
  0
LINE
  8
0
 10
1.29877
 20
15.5584
 11
1.14442
 21
15.2669
  0
LINE
  8
0
 10
1.14442
 20
15.2669
 11
0.999313
 21
14.9707
  0
LINE
  8
0
 10
0.999313
 20
14.9707
 11
0.863571
 21
14.67
  0
LINE
  8
0
 10
0.863571
 20
14.67
 11
0.737335
 21
14.3653
  0
LINE
  8
0
 10
0.737335
 20
14.3653
 11
0.620743
 21
14.0567
  0
LINE
  8
0
 10
0.620743
 20
14.0567
 11
0.513901
 21
13.7447
  0
LINE
  8
0
 10
0.513901
 20
13.7447
 11
0.416916
 21
13.4294
  0
LINE
  8
0
 10
0.416916
 20
13.4294
 11
0.329865
 21
13.1112
  0
LINE
  8
0
 10
0.329865
 20
13.1112
 11
0.252869
 21
12.7905
  0
LINE
  8
0
 10
0.252869
 20
12.7905
 11
0.185974
 21
12.4675
  0
LINE
  8
0
 10
0.185974
 20
12.4675
 11
0.129257
 21
12.1425
  0
LINE
  8
0
 10
0.129257
 20
12.1425
 11
0.0827942
 21
11.816
  0
LINE
  8
0
 10
0.0827942
 20
11.816
 11
0.0465851
 21
11.4881
  0
LINE
  8
0
 10
0.0465851
 20
11.4881
 11
0.0207062
 21
11.1593
  0
LINE
  8
0
 10
0.0207062
 20
11.1593
 11
0.00517273
 21
10.8298
  0
LINE
  8
0
 10
0.00517273
 20
10.8298
 11
0
 21
10.5
  0
LINE
  8
0
 10
0
 20
10.5
 11
0.00517273
 21
10.1702
  0
LINE
  8
0
 10
0.00517273
 20
10.1702
 11
0.0207062
 21
9.8407
  0
LINE
  8
0
 10
0.0207062
 20
9.8407
 11
0.0465851
 21
9.51186
  0
LINE
  8
0
 10
0.0465851
 20
9.51186
 11
0.0827942
 21
9.18399
  0
LINE
  8
0
 10
0.0827942
 20
9.18399
 11
0.129257
 21
8.85744
  0
LINE
  8
0
 10
0.129257
 20
8.85744
 11
0.185974
 21
8.53249
  0
LINE
  8
0
 10
0.185974
 20
8.53249
 11
0.252869
 21
8.20949
  0
LINE
  8
0
 10
0.252869
 20
8.20949
 11
0.329865
 21
7.88875
  0
LINE
  8
0
 10
0.329865
 20
7.88875
 11
0.416916
 21
7.57059
  0
LINE
  8
0
 10
0.416916
 20
7.57059
 11
0.513901
 21
7.25531
  0
LINE
  8
0
 10
0.513901
 20
7.25531
 11
0.620743
 21
6.94324
  0
LINE
  8
0
 10
0.620743
 20
6.94324
 11
0.737335
 21
6.63469
  0
LINE
  8
0
 10
0.737335
 20
6.63469
 11
0.863571
 21
6.32994
  0
LINE
  8
0
 10
0.863571
 20
6.32994
 11
0.999313
 21
6.02931
  0
LINE
  8
0
 10
0.999313
 20
6.02931
 11
1.14442
 21
5.73309
  0
LINE
  8
0
 10
1.14442
 20
5.73309
 11
1.29877
 21
5.44157
  0
LINE
  8
0
 10
1.29877
 20
5.44157
 11
1.4622
 21
5.15506
  0
LINE
  8
0
 10
1.4622
 20
5.15506
 11
1.63455
 21
4.87381
  0
LINE
  8
0
 10
1.63455
 20
4.87381
 11
1.81564
 21
4.59811
  0
LINE
  8
0
 10
1.81564
 20
4.59811
 11
2.00531
 21
4.32825
  0
LINE
  8
0
 10
2.00531
 20
4.32825
 11
2.20337
 21
4.06447
  0
LINE
  8
0
 10
2.20337
 20
4.06447
 11
2.40961
 21
3.80704
  0
LINE
  8
0
 10
2.40961
 20
3.80704
 11
2.62383
 21
3.55621
  0
LINE
  8
0
 10
2.62383
 20
3.55621
 11
2.84583
 21
3.31224
  0
LINE
  8
0
 10
2.84583
 20
3.31224
 11
3.07538
 21
3.07538
  0
LINE
  8
0
 10
3.07538
 20
3.07538
 11
3.31224
 21
2.84583
  0
LINE
  8
0
 10
3.31224
 20
2.84583
 11
3.55621
 21
2.62383
  0
LINE
  8
0
 10
3.55621
 20
2.62383
 11
3.80704
 21
2.40961
  0
LINE
  8
0
 10
3.80704
 20
2.40961
 11
4.06447
 21
2.20337
  0
LINE
  8
0
 10
4.06447
 20
2.20337
 11
4.32825
 21
2.00531
  0
LINE
  8
0
 10
4.32825
 20
2.00531
 11
4.59811
 21
1.81564
  0
LINE
  8
0
 10
4.59811
 20
1.81564
 11
4.87381
 21
1.63455
  0
LINE
  8
0
 10
4.87381
 20
1.63455
 11
5.15506
 21
1.4622
  0
LINE
  8
0
 10
5.15506
 20
1.4622
 11
5.44157
 21
1.29877
  0
LINE
  8
0
 10
5.44157
 20
1.29877
 11
5.73309
 21
1.14442
  0
LINE
  8
0
 10
5.73309
 20
1.14442
 11
6.02931
 21
0.999313
  0
LINE
  8
0
 10
6.02931
 20
0.999313
 11
6.32994
 21
0.863571
  0
LINE
  8
0
 10
6.32994
 20
0.863571
 11
6.63469
 21
0.737335
  0
LINE
  8
0
 10
6.63469
 20
0.737335
 11
6.94324
 21
0.620743
  0
LINE
  8
0
 10
6.94324
 20
0.620743
 11
7.25531
 21
0.513901
  0
LINE
  8
0
 10
7.25531
 20
0.513901
 11
7.57059
 21
0.416916
  0
LINE
  8
0
 10
7.57059
 20
0.416916
 11
7.88875
 21
0.329865
  0
LINE
  8
0
 10
7.88875
 20
0.329865
 11
8.20949
 21
0.252869
  0
LINE
  8
0
 10
8.20949
 20
0.252869
 11
8.53249
 21
0.185974
  0
LINE
  8
0
 10
8.53249
 20
0.185974
 11
8.85744
 21
0.129257
  0
LINE
  8
0
 10
8.85744
 20
0.129257
 11
9.18399
 21
0.0827942
  0
LINE
  8
0
 10
9.18399
 20
0.0827942
 11
9.51186
 21
0.0465851
  0
LINE
  8
0
 10
9.51186
 20
0.0465851
 11
9.8407
 21
0.0207062
  0
LINE
  8
0
 10
9.8407
 20
0.0207062
 11
10.1702
 21
0.00517273
  0
LINE
  8
0
 10
10.1702
 20
0.00517273
 11
10.5
 21
0
  0
LINE
  8
0
 10
10.5
 20
0
 11
31.5
 21
0
  0
LINE
  8
0
 10
31.5
 20
0
 11
31.5
 21
21
  0
LINE
  8
0
 10
10.3909
 20
10.012
 11
10.3159
 21
10.0351
  0
LINE
  8
0
 10
10.3159
 20
10.0351
 11
10.2455
 21
10.0696
  0
LINE
  8
0
 10
10.2455
 20
10.0696
 11
10.1813
 21
10.1147
  0
LINE
  8
0
 10
10.1813
 20
10.1147
 11
10.1249
 21
10.1693
  0
LINE
  8
0
 10
10.1249
 20
10.1693
 11
10.0778
 21
10.2321
  0
LINE
  8
0
 10
10.0778
 20
10.2321
 11
10.0411
 21
10.3014
  0
LINE
  8
0
 10
10.0411
 20
10.3014
 11
10.0157
 21
10.3756
  0
LINE
  8
0
 10
10.0157
 20
10.3756
 11
10.0022
 21
10.4529
  0
LINE
  8
0
 10
10.0022
 20
10.4529
 11
10.001
 21
10.5314
  0
LINE
  8
0
 10
10.001
 20
10.5314
 11
10.012
 21
10.6091
  0
LINE
  8
0
 10
10.012
 20
10.6091
 11
10.0351
 21
10.6841
  0
LINE
  8
0
 10
10.0351
 20
10.6841
 11
10.0696
 21
10.7545
  0
LINE
  8
0
 10
10.0696
 20
10.7545
 11
10.1147
 21
10.8187
  0
LINE
  8
0
 10
10.1147
 20
10.8187
 11
10.1693
 21
10.875
  0
LINE
  8
0
 10
10.1693
 20
10.875
 11
10.2321
 21
10.9221
  0
LINE
  8
0
 10
10.2321
 20
10.9221
 11
10.3014
 21
10.9589
  0
LINE
  8
0
 10
10.3014
 20
10.9589
 11
10.3756
 21
10.9843
  0
LINE
  8
0
 10
10.3756
 20
10.9843
 11
10.4529
 21
10.9978
  0
LINE
  8
0
 10
10.4529
 20
10.9978
 11
10.5314
 21
10.999
  0
LINE
  8
0
 10
10.5314
 20
10.999
 11
10.6091
 21
10.9879
  0
LINE
  8
0
 10
10.6091
 20
10.9879
 11
10.6841
 21
10.9649
  0
LINE
  8
0
 10
10.6841
 20
10.9649
 11
10.7545
 21
10.9304
  0
LINE
  8
0
 10
10.7545
 20
10.9304
 11
10.8187
 21
10.8853
  0
LINE
  8
0
 10
10.8187
 20
10.8853
 11
10.875
 21
10.8306
  0
LINE
  8
0
 10
10.875
 20
10.8306
 11
10.9221
 21
10.7679
  0
LINE
  8
0
 10
10.9221
 20
10.7679
 11
10.9589
 21
10.6986
  0
LINE
  8
0
 10
10.9589
 20
10.6986
 11
10.9843
 21
10.6243
  0
LINE
  8
0
 10
10.9843
 20
10.6243
 11
10.9978
 21
10.547
  0
LINE
  8
0
 10
10.9978
 20
10.547
 11
10.999
 21
10.4686
  0
LINE
  8
0
 10
10.999
 20
10.4686
 11
10.9879
 21
10.3909
  0
LINE
  8
0
 10
10.9879
 20
10.3909
 11
10.9649
 21
10.3159
  0
LINE
  8
0
 10
10.9649
 20
10.3159
 11
10.9304
 21
10.2455
  0
LINE
  8
0
 10
10.9304
 20
10.2455
 11
10.8853
 21
10.1813
  0
LINE
  8
0
 10
10.8853
 20
10.1813
 11
10.8306
 21
10.1249
  0
LINE
  8
0
 10
10.8306
 20
10.1249
 11
10.7679
 21
10.0778
  0
LINE
  8
0
 10
10.7679
 20
10.0778
 11
10.6986
 21
10.0411
  0
LINE
  8
0
 10
10.6986
 20
10.0411
 11
10.6243
 21
10.0157
  0
LINE
  8
0
 10
10.6243
 20
10.0157
 11
10.547
 21
10.0022
  0
LINE
  8
0
 10
10.547
 20
10.0022
 11
10.4686
 21
10.001
  0
LINE
  8
0
 10
10.4686
 20
10.001
 11
10.3909
 21
10.012
  0
ENDSEC
  0
SECTION
  2
OBJECTS
  0
DICTIONARY
  0
ENDSEC
  0
EOF
